<?xml version="1.0" standalone="no"?>
<!DOCTYPE svg PUBLIC "-//W3C//DTD SVG 1.1//EN" "http://www.w3.org/Graphics/SVG/1.1/DTD/svg11.dtd" >
<svg xmlns="http://www.w3.org/2000/svg">
<metadata>Generated by IcoMoon</metadata>
<defs>
<font id="Wheels" horiz-adv-x="1024">
<font-face units-per-em="1024" ascent="960" descent="-64" />
<missing-glyph horiz-adv-x="1024" />
<glyph unicode="&#x20;" horiz-adv-x="512" d="" />
<glyph unicode="&#xe900;" glyph-name="account" d="M512 21.333c-235.648 0-426.667 191.019-426.667 426.667s191.019 426.667 426.667 426.667c235.648 0 426.667-191.019 426.667-426.667s-191.019-426.667-426.667-426.667zM299.221 181.077c60.397-48.286 135.454-74.534 212.779-74.411 84.053 0 160.981 30.379 220.459 80.725-27.789 28.514-61.009 51.162-97.707 66.611-36.693 15.45-76.113 23.381-115.925 23.33-41.276 0.047-82.112-8.486-119.916-25.054-37.804-16.572-71.752-40.819-99.689-71.202zM239.616 242.347c35.859 38.054 79.133 68.365 127.153 89.058s99.77 31.33 152.058 31.262c50.419 0.064 100.352-9.83 146.931-29.116 46.583-19.285 88.9-47.582 124.514-83.268 36.527 51.409 58.095 111.932 62.319 174.852 4.22 62.921-9.071 125.782-38.404 181.608s-73.557 102.436-127.765 134.656c-54.212 32.221-116.288 48.794-179.345 47.881s-124.627-19.278-177.881-53.056c-53.254-33.778-96.109-81.649-123.811-138.301s-39.168-119.872-33.125-182.643c6.042-62.775 29.357-122.603 67.357-172.932zM512 405.333c-45.265 0-88.673 17.98-120.68 49.988-32.006 32.004-49.987 75.413-49.987 120.678 0 45.264 17.981 88.673 49.987 120.68s75.415 49.987 120.68 49.987c45.265 0 88.674-17.981 120.678-49.987 32.009-32.006 49.988-75.416 49.988-120.68 0-45.265-17.98-88.674-49.988-120.678-32.004-32.009-75.413-49.988-120.678-49.988zM512 490.667c22.63 0 44.335 8.99 60.339 24.994s24.994 37.708 24.994 60.339c0 22.632-8.99 44.337-24.994 60.34s-37.709 24.994-60.339 24.994c-22.63 0-44.335-8.99-60.339-24.994s-24.994-37.708-24.994-60.34c0-22.632 8.99-44.335 24.994-60.339s37.709-24.994 60.339-24.994z" />
<glyph unicode="&#xe901;" glyph-name="add" d="M469.333 490.667v256h85.333v-256h256v-85.333h-256v-256h-85.333v256h-256v85.333h256z" />
<glyph unicode="&#xe902;" glyph-name="shop" d="M128 533.333h-42.667v255.872c0 23.637 19.413 42.795 42.325 42.795h768.683c5.602 0.012 11.149-1.091 16.32-3.243s9.865-5.312 13.803-9.294c3.938-3.983 7.044-8.709 9.139-13.903s3.136-10.754 3.063-16.355v-255.872h-42.667v-426.709c0.017-5.581-1.067-11.11-3.187-16.273s-5.235-9.856-9.169-13.815c-3.934-3.955-8.61-7.1-13.76-9.25-5.15-2.155-10.671-3.268-16.252-3.285h-683.264c-5.581 0.017-11.104 1.131-16.253 3.285-5.149 2.15-9.824 5.295-13.759 9.25-3.934 3.959-7.050 8.653-9.17 13.815s-3.203 10.692-3.186 16.273v426.709zM810.667 533.333h-597.333v-384h597.333v384zM170.667 746.667v-128h682.667v128h-682.667zM384 448h256v-85.333h-256v85.333z" />
<glyph unicode="&#xe903;" glyph-name="arrow-down" d="M554.675 269.995l228.864 228.864 60.331-60.331-331.861-331.861-331.863 331.861 60.331 60.331 228.865-228.864v519.339h85.333v-519.339z" />
<glyph unicode="&#xe904;" glyph-name="arrow-down-s" d="M512.009 397.995l211.2 211.201 60.331-60.331-271.531-271.532-271.529 271.532 60.331 60.331 211.199-211.201z" />
<glyph unicode="&#xe905;" glyph-name="arrow-drop-down" d="M512.004 320l-181.036 181.035 60.373 60.331 120.662-120.704 120.661 120.704 60.373-60.331-181.035-181.035z" />
<glyph unicode="&#xe906;" glyph-name="arrow-drop-left" d="M504.661 448l120.704-120.661-60.331-60.373-181.035 181.035 181.035 181.035 60.331-60.373-120.704-120.662z" />
<glyph unicode="&#xe907;" glyph-name="arrow-drop-right" d="M519.339 448l-120.703 120.662 60.33 60.373 181.035-181.035-181.035-181.035-60.33 60.373 120.703 120.661z" />
<glyph unicode="&#xe908;" glyph-name="arrow-drop-up" d="M512.004 455.339l-120.662-120.704-60.373 60.331 181.036 181.035 181.035-181.035-60.373-60.331-120.661 120.704z" />
<glyph unicode="&#xe909;" glyph-name="arrow-go-back" d="M248.661 661.334l108.203-108.203-60.331-60.331-211.2 211.2 211.2 211.2 60.331-60.331-108.203-108.203h306.005c90.526 0 177.348-35.962 241.361-99.974 64.009-64.012 99.972-150.834 99.972-241.36s-35.964-177.348-99.972-241.357c-64.013-64.013-150.835-99.977-241.361-99.977h-384v85.333h384c67.895 0 133.009 26.974 181.018 74.982 48.013 48.009 74.982 113.122 74.982 181.018s-26.97 133.010-74.982 181.020c-48.009 48.009-113.122 74.981-181.018 74.981h-306.005z" />
<glyph unicode="&#xe90a;" glyph-name="arrow-go-forward" d="M775.339 661.334h-306.005c-67.895 0-133.010-26.971-181.019-74.981s-74.981-113.124-74.981-181.020c0-67.895 26.971-133.009 74.981-181.018s113.124-74.982 181.019-74.982h384v-85.333h-384c-90.527 0-177.347 35.964-241.359 99.977-64.013 64.009-99.974 150.831-99.974 241.357s35.962 177.347 99.974 241.36c64.012 64.012 150.832 99.974 241.359 99.974h306.005l-108.203 108.203 60.331 60.331 211.2-211.2-211.2-211.2-60.331 60.331 108.203 108.203z" />
<glyph unicode="&#xe90b;" glyph-name="arrow-left-down" d="M384 380.16l367.232 367.232 60.331-60.331-367.232-367.232h323.669v-85.333h-469.333v469.333h85.333v-323.669z" />
<glyph unicode="&#xe90c;" glyph-name="arrow-left" d="M333.995 490.667h519.339v-85.333h-519.339l228.864-228.864-60.331-60.331-331.861 331.861 331.861 331.862 60.331-60.331-228.864-228.865z" />
<glyph unicode="&#xe90d;" glyph-name="arrow-left-s" d="M461.995 448l211.2-211.2-60.331-60.331-271.531 271.531 271.531 271.531 60.331-60.331-211.2-211.2z" />
<glyph unicode="&#xe90e;" glyph-name="arrow-left-up" d="M401.664 618.667l367.232-367.232-60.331-60.331-367.232 367.232v-323.669h-85.333v469.333h469.333v-85.333h-323.669z" />
<glyph unicode="&#xe90f;" glyph-name="arrow-right-down" d="M622.502 277.163l-367.273 367.232 60.331 60.331 367.231-367.189v323.627h85.333v-469.333h-469.332v85.333h323.711z" />
<glyph unicode="&#xe910;" glyph-name="arrow-right" d="M690.005 490.667l-228.864 228.865 60.331 60.331 331.861-331.862-331.861-331.861-60.331 60.331 228.864 228.864h-519.339v85.333h519.339z" />
<glyph unicode="&#xe911;" glyph-name="arrow-right-s" d="M562.001 448l-211.199 211.2 60.331 60.331 271.53-271.531-271.53-271.531-60.331 60.331 211.199 211.2z" />
<glyph unicode="&#xe912;" glyph-name="arrow-right-up" d="M682.833 558.336l-367.232-367.232-60.331 60.331 367.189 367.232h-323.626v85.333h469.333v-469.333h-85.333v323.669z" />
<glyph unicode="&#xe913;" glyph-name="arrow-up-down" d="M509.867 620.8l-60.331-60.331-108.201 108.203v-562.005h-85.333v562.005l-108.16-108.203-60.373 60.331 211.2 211.2 211.198-211.2zM936.538 275.2l-211.204-211.2-211.2 211.2 60.331 60.331 108.245-108.203-0.043 562.005h85.333v-562.005l108.203 108.203 60.335-60.331z" />
<glyph unicode="&#xe914;" glyph-name="arrow-up" d="M554.675 626.005v-519.339h-85.333v519.339l-228.865-228.864-60.331 60.331 331.863 331.861 331.861-331.861-60.331-60.331-228.864 228.864z" />
<glyph unicode="&#xe915;" glyph-name="arrow-up-s" d="M512.009 498.005l-211.199-211.2-60.331 60.331 271.529 271.531 271.531-271.531-60.331-60.331-211.2 211.2z" />
<glyph unicode="&#xe916;" glyph-name="attachment" d="M632.653 629.034l-241.323-241.365c-4.075-3.938-7.325-8.644-9.562-13.85s-3.413-10.803-3.462-16.469c-0.049-5.666 1.030-11.285 3.176-16.529s5.313-10.005 9.319-14.012c4.006-4.006 8.77-7.177 14.013-9.318 5.244-2.146 10.862-3.226 16.527-3.179 5.666 0.051 11.264 1.229 16.469 3.465s9.916 5.487 13.85 9.562l241.365 241.322c24.009 24.007 37.495 56.567 37.495 90.517s-13.487 66.511-37.495 90.517c-24.009 24.007-56.567 37.493-90.517 37.493s-66.509-13.487-90.517-37.493l-241.365-241.365c-20.221-19.716-36.325-43.255-47.379-69.244s-16.837-53.918-17.014-82.159c-0.177-28.241 5.256-56.239 15.983-82.364 10.727-26.129 26.535-49.865 46.507-69.833s43.711-35.776 69.839-46.498c26.128-10.722 54.125-16.154 82.367-15.97 28.244 0.179 56.169 5.969 82.158 17.024 25.988 11.059 49.519 27.166 69.235 47.39l241.365 241.323 60.331-60.331-241.365-241.365c-27.733-27.738-60.663-49.737-96.9-64.747s-75.076-22.737-114.3-22.737c-39.223 0-78.063 7.727-114.301 22.737s-69.164 37.009-96.899 64.747c-27.735 27.733-49.736 60.659-64.746 96.9-15.010 36.237-22.736 75.076-22.736 114.3s7.726 78.063 22.736 114.3c15.010 36.237 37.011 69.165 64.746 96.9l241.408 241.323c40.235 38.86 94.123 60.363 150.059 59.877s109.444-22.922 148.996-62.476c39.552-39.554 61.99-93.060 62.477-148.995s-21.018-109.824-59.878-150.059l-241.323-241.451c-11.891-11.887-26.005-21.316-41.536-27.746-15.535-6.434-32.183-9.745-48.997-9.741-16.812 0-33.46 3.315-48.992 9.749-15.532 6.438-29.644 15.868-41.531 27.759s-21.316 26.005-27.748 41.536c-6.432 15.535-9.741 32.183-9.74 48.994 0.002 16.815 3.316 33.463 9.751 48.994s15.868 29.645 27.758 41.532l241.365 241.365 60.331-60.331z" />
<glyph unicode="&#xe917;" glyph-name="attachment-big" d="M597.333 384v234.667c0 45.264-17.98 88.673-49.988 120.68-32.004 32.006-75.413 49.987-120.678 49.987s-88.673-17.981-120.68-49.987-49.987-75.416-49.987-120.68v-234.667c0-73.553 29.219-144.094 81.229-196.105s122.551-81.229 196.104-81.229c73.553 0 144.094 29.218 196.105 81.229s81.229 122.551 81.229 196.105v405.333h85.333v-405.333c0-96.183-38.208-188.429-106.223-256.444s-160.26-106.223-256.444-106.223c-96.183 0-188.431 38.208-256.444 106.223s-106.223 160.26-106.223 256.444v234.667c0 67.895 26.971 133.010 74.981 181.019s113.124 74.981 181.019 74.981c67.895 0 133.009-26.971 181.018-74.981 48.013-48.009 74.982-113.124 74.982-181.019v-234.667c0-39.607-15.731-77.589-43.738-105.596s-65.988-43.738-105.596-43.738c-39.607 0-77.589 15.731-105.596 43.738-28.004 28.006-43.738 65.988-43.738 105.596v234.667h85.333v-234.667c0-16.973 6.741-33.254 18.743-45.257s28.284-18.743 45.257-18.743c16.973 0 33.254 6.741 45.257 18.743s18.743 28.284 18.743 45.257z" />
<glyph unicode="&#xe918;" glyph-name="award" d="M725.333 309.547v-293.205c0-3.776-0.998-7.484-2.901-10.743-1.899-3.26-4.629-5.961-7.915-7.821-3.281-1.86-7.002-2.816-10.778-2.773-3.772 0.047-7.467 1.092-10.705 3.034l-181.035 108.629-181.035-108.629c-3.241-1.941-6.939-2.987-10.717-3.034-3.778-0.043-7.5 0.917-10.785 2.782-3.285 1.869-6.016 4.574-7.913 7.838-1.897 3.268-2.892 6.98-2.884 10.761v293.12c-55.204 44.198-95.318 104.452-114.796 172.437-19.479 67.981-17.361 140.335 6.060 207.062s66.99 124.532 124.684 165.427c57.695 40.895 126.665 62.86 197.385 62.86s139.691-21.965 197.385-62.86c57.694-40.895 101.265-98.7 124.685-165.427s25.54-139.081 6.059-207.062c-19.477-67.985-59.588-128.239-114.795-172.437v0.043zM384 259.499v-130.133l128 76.8 128-76.8v130.133c-40.67-16.448-84.13-24.879-128-24.832-43.87-0.047-87.332 8.384-128 24.832zM512 320c67.895 0 133.009 26.97 181.018 74.982 48.013 48.009 74.982 113.122 74.982 181.017s-26.97 133.010-74.982 181.020c-48.009 48.009-113.122 74.98-181.018 74.98s-133.010-26.971-181.019-74.98c-48.009-48.009-74.981-113.124-74.981-181.020s26.971-133.009 74.981-181.017c48.009-48.013 113.124-74.982 181.019-74.982z" />
<glyph unicode="&#xe919;" glyph-name="bar-chart-box" d="M128 832h768c11.315 0 22.17-4.495 30.17-12.497s12.497-18.854 12.497-30.17v-682.667c0-11.315-4.497-22.17-12.497-30.17s-18.854-12.497-30.17-12.497h-768c-11.316 0-22.168 4.497-30.17 12.497s-12.497 18.854-12.497 30.17v682.667c0 11.316 4.495 22.168 12.497 30.17s18.854 12.497 30.17 12.497zM170.667 746.667v-597.333h682.667v597.333h-682.667zM298.667 405.333h85.333v-170.667h-85.333v170.667zM469.333 661.333h85.333v-426.667h-85.333v426.667zM640 533.333h85.333v-298.667h-85.333v298.667z" />
<glyph unicode="&#xe91a;" glyph-name="barricade" d="M277.035 149.333h469.931l-28.459 128h-413.013l-28.459-128zM834.389 149.333h61.611v-85.333h-768v85.333h61.611l144.299 649.259c2.106 9.475 7.38 17.948 14.95 24.022s16.986 9.385 26.692 9.386h272.896c9.707-0.002 19.123-3.313 26.692-9.386s12.843-14.547 14.95-24.022l144.299-649.259zM324.437 362.667h375.125l-37.973 170.667h-299.179l-37.973-170.667zM381.355 618.667h261.291l-28.416 128h-204.459l-28.416-128z" />
<glyph unicode="&#xe91b;" glyph-name="bookmark-fill" d="M213.333 874.667h597.333c11.315 0 22.17-4.495 30.17-12.497s12.497-18.854 12.497-30.17v-816.768c0.004-3.814-1.011-7.561-2.948-10.85-1.937-3.285-4.715-5.995-8.055-7.842-3.337-1.847-7.108-2.765-10.923-2.658-3.81 0.102-7.526 1.229-10.756 3.26l-308.651 193.579-308.651-193.536c-3.227-2.027-6.938-3.153-10.748-3.26s-7.578 0.806-10.914 2.65c-3.337 1.843-6.118 4.544-8.056 7.825s-2.961 7.023-2.964 10.833v816.768c0 11.316 4.495 22.168 12.497 30.17s18.854 12.497 30.17 12.497z" />
<glyph unicode="&#xe91c;" glyph-name="bookmark-line" d="M213.333 874.667h597.333c11.315 0 22.17-4.495 30.17-12.497s12.497-18.854 12.497-30.17v-816.768c0.004-3.814-1.011-7.561-2.948-10.85-1.937-3.285-4.715-5.995-8.055-7.842-3.337-1.847-7.108-2.765-10.923-2.658-3.81 0.102-7.526 1.229-10.756 3.26l-308.651 193.579-308.651-193.536c-3.227-2.027-6.938-3.153-10.748-3.26s-7.578 0.806-10.914 2.65c-3.337 1.843-6.118 4.544-8.056 7.825s-2.961 7.023-2.964 10.833v816.768c0 11.316 4.495 22.168 12.497 30.17s18.854 12.497 30.17 12.497zM768 789.333h-512v-658.432l256 160.469 256-160.469v658.432z" />
<glyph unicode="&#xe91d;" glyph-name="book-mark" d="M128 170.667v576c0 33.948 13.486 66.505 37.49 90.51s56.562 37.49 90.51 37.49h597.333c11.315 0 22.17-4.495 30.17-12.497s12.497-18.854 12.497-30.17v-768c0-11.315-4.497-22.17-12.497-30.17s-18.854-12.497-30.17-12.497h-576c-39.606 0-77.589 15.731-105.594 43.738s-43.739 65.988-43.739 105.596zM810.667 106.667v128h-533.333c-16.974 0-33.253-6.741-45.255-18.743s-18.745-28.284-18.745-45.257c0-16.973 6.743-33.254 18.745-45.257s28.281-18.743 45.255-18.743h533.333zM426.667 789.333h-170.667c-11.316 0-22.168-4.495-30.17-12.497s-12.497-18.854-12.497-30.17v-441.045c19.997 9.498 41.862 14.409 64 14.379h533.333v469.333h-85.333v-341.333l-149.333 85.333-149.333-85.333v341.333z" />
<glyph unicode="&#xe91e;" glyph-name="check-double" d="M495.019 372.907l60.245-60.245 361.216 361.216 60.331-60.331-421.547-421.547-271.531 271.531 60.331 60.331 150.955-150.955zM495.104 493.568l211.285 211.328 60.16-60.16-211.285-211.328-60.16 60.16zM374.485 252.288l-60.288-60.288-271.531 271.531 60.331 60.331 60.288-60.288-0.043-0.043 211.243-211.243z" />
<glyph unicode="&#xe91f;" glyph-name="check" d="M426.675 312.661l392.192 392.235 60.373-60.331-452.565-452.565-271.529 271.531 60.331 60.331 211.199-211.2z" />
<glyph unicode="&#xe920;" glyph-name="close" d="M512.009 508.331l211.2 211.2 60.331-60.331-211.2-211.2 211.2-211.2-60.331-60.331-211.2 211.2-211.199-211.2-60.331 60.331 211.199 211.2-211.199 211.2 60.331 60.331 211.199-211.2z" />
<glyph unicode="&#xe921;" glyph-name="creative-commons-by" d="M512 874.667c235.648 0 426.667-191.019 426.667-426.667s-191.019-426.667-426.667-426.667c-235.648 0-426.667 191.019-426.667 426.667s191.019 426.667 426.667 426.667zM512 789.333c-90.527 0-177.347-35.962-241.359-99.974s-99.974-150.832-99.974-241.359c0-90.526 35.962-177.348 99.974-241.361 64.012-64.009 150.832-99.972 241.359-99.972 90.526 0 177.348 35.964 241.361 99.972 64.009 64.013 99.972 150.835 99.972 241.361 0 90.527-35.964 177.347-99.972 241.359-64.013 64.013-150.835 99.974-241.361 99.974zM597.333 533.333c11.315 0 22.17-4.497 30.17-12.497s12.497-18.854 12.497-30.17v-170.667h-64v-170.667h-128v170.667h-64v170.667c0 11.315 4.495 22.17 12.497 30.17s18.854 12.497 30.17 12.497h170.667zM512 746.667c22.63 0 44.335-8.99 60.339-24.994s24.994-37.708 24.994-60.34c0-22.632-8.99-44.337-24.994-60.34s-37.709-24.994-60.339-24.994c-22.63 0-44.335 8.99-60.339 24.994s-24.994 37.708-24.994 60.34c0 22.632 8.99 44.337 24.994 60.34s37.709 24.994 60.339 24.994z" />
<glyph unicode="&#xe922;" glyph-name="dashboard-2" d="M512 874.667c235.648 0 426.667-191.019 426.667-426.667s-191.019-426.667-426.667-426.667c-235.648 0-426.667 191.019-426.667 426.667s191.019 426.667 426.667 426.667zM512 789.333c-188.501 0-341.333-152.832-341.333-341.333s152.832-341.333 341.333-341.333c188.501 0 341.333 152.832 341.333 341.333s-152.832 341.333-341.333 341.333zM512 746.667c43.435 0 84.693-9.259 121.941-25.941l-66.688-66.645c-17.621 4.693-36.139 7.253-55.253 7.253-117.803 0-213.333-95.531-213.333-213.333 0-58.88 23.893-112.213 62.464-150.869l-60.331-60.331-6.656 6.869c-50.091 53.419-80.811 125.312-80.811 204.331 0 164.949 133.717 298.667 298.667 298.667zM784.725 569.899c16.64-37.205 25.941-78.507 25.941-121.899 0-82.475-33.451-157.141-87.467-211.2l-60.331 60.331c38.571 38.656 62.464 91.989 62.464 150.869 0 19.115-2.517 37.632-7.253 55.253l66.645 66.645zM692.992 689.365l60.373-60.331-158.891-158.976c1.877-7.040 2.859-14.421 2.859-22.059 0-47.147-38.187-85.333-85.333-85.333s-85.333 38.187-85.333 85.333c0 47.147 38.187 85.333 85.333 85.333 7.637 0 15.019-0.981 22.059-2.859l158.933 158.891z" />
<glyph unicode="&#xe923;" glyph-name="dashboard-3" d="M512 874.667c235.648 0 426.667-191.019 426.667-426.667s-191.019-426.667-426.667-426.667c-235.648 0-426.667 191.019-426.667 426.667s191.019 426.667 426.667 426.667zM512 789.333c-188.501 0-341.333-152.832-341.333-341.333s152.832-341.333 341.333-341.333c188.501 0 341.333 152.832 341.333 341.333s-152.832 341.333-341.333 341.333zM675.541 646.955c10.112 7.083 23.851 5.888 32.555-2.859 8.704-8.704 9.813-22.443 2.688-32.427-93.013-129.963-144.213-199.595-153.515-208.939-25.003-24.96-65.536-24.96-90.539 0-24.96 25.003-24.96 65.536 0 90.539 15.957 15.915 85.547 67.157 208.811 153.685zM746.667 490.667c23.552 0 42.667-19.115 42.667-42.667s-19.115-42.667-42.667-42.667c-23.552 0-42.667 19.115-42.667 42.667s19.115 42.667 42.667 42.667zM277.333 490.667c23.552 0 42.667-19.115 42.667-42.667s-19.115-42.667-42.667-42.667c-23.552 0-42.667 19.115-42.667 42.667s19.115 42.667 42.667 42.667zM376.235 644.096c16.64-16.64 16.64-43.648 0-60.331-16.64-16.64-43.691-16.64-60.331 0s-16.64 43.691 0 60.331c16.64 16.64 43.648 16.64 60.331 0zM512 725.333c23.552 0 42.667-19.115 42.667-42.667s-19.115-42.667-42.667-42.667c-23.552 0-42.667 19.115-42.667 42.667s19.115 42.667 42.667 42.667z" />
<glyph unicode="&#xe924;" glyph-name="delete-bin-2-fill" d="M170.667 618.667h682.667v-554.667c0-11.315-4.497-22.17-12.497-30.17s-18.854-12.497-30.17-12.497h-597.333c-11.316 0-22.168 4.497-30.17 12.497s-12.497 18.854-12.497 30.17v554.667zM298.667 746.667v85.333c0 11.316 4.495 22.168 12.497 30.17s18.854 12.497 30.17 12.497h341.333c11.315 0 22.17-4.495 30.17-12.497s12.497-18.854 12.497-30.17v-85.333h213.333v-85.333h-853.333v85.333h213.333zM384 789.333v-42.667h256v42.667h-256zM384 448v-256h85.333v256h-85.333zM554.667 448v-256h85.333v256h-85.333z" />
<glyph unicode="&#xe925;" glyph-name="delete-bin-2" d="M170.667 618.667h682.667v-554.667c0-11.315-4.497-22.17-12.497-30.17s-18.854-12.497-30.17-12.497h-597.333c-11.316 0-22.168 4.497-30.17 12.497s-12.497 18.854-12.497 30.17v554.667zM256 533.333v-426.667h512v426.667h-512zM384 448h85.333v-256h-85.333v256zM554.667 448h85.333v-256h-85.333v256zM298.667 746.667v85.333c0 11.316 4.495 22.168 12.497 30.17s18.854 12.497 30.17 12.497h341.333c11.315 0 22.17-4.495 30.17-12.497s12.497-18.854 12.497-30.17v-85.333h213.333v-85.333h-853.333v85.333h213.333zM384 789.333v-42.667h256v42.667h-256z" />
<glyph unicode="&#xe926;" glyph-name="delete-bin-fill" d="M725.333 704h213.333v-85.333h-85.333v-554.667c0-11.315-4.497-22.17-12.497-30.17s-18.854-12.497-30.17-12.497h-597.333c-11.316 0-22.168 4.497-30.17 12.497s-12.497 18.854-12.497 30.17v554.667h-85.333v85.333h213.333v128c0 11.316 4.495 22.168 12.497 30.17s18.854 12.497 30.17 12.497h341.333c11.315 0 22.17-4.495 30.17-12.497s12.497-18.854 12.497-30.17v-128zM384 490.667v-256h85.333v256h-85.333zM554.667 490.667v-256h85.333v256h-85.333zM384 789.333v-85.333h256v85.333h-256z" />
<glyph unicode="&#xe927;" glyph-name="delete-bin-line" d="M725.333 704h213.333v-85.333h-85.333v-554.667c0-11.315-4.497-22.17-12.497-30.17s-18.854-12.497-30.17-12.497h-597.333c-11.316 0-22.168 4.497-30.17 12.497s-12.497 18.854-12.497 30.17v554.667h-85.333v85.333h213.333v128c0 11.316 4.495 22.168 12.497 30.17s18.854 12.497 30.17 12.497h341.333c11.315 0 22.17-4.495 30.17-12.497s12.497-18.854 12.497-30.17v-128zM768 618.667h-512v-512h512v512zM384 490.667h85.333v-256h-85.333v256zM554.667 490.667h85.333v-256h-85.333v256zM384 789.333v-85.333h256v85.333h-256z" />
<glyph unicode="&#xe928;" glyph-name="download" d="M128 149.333h768v-85.333h-768v85.333zM554.667 397.995l259.029 259.072 60.331-60.331-362.027-362.069-362.027 362.027 60.331 60.373 259.029-258.987v476.587h85.333v-476.672z" />
<glyph unicode="&#xe929;" glyph-name="edit-box" d="M714.965 832l-85.333-85.333h-416.299v-597.333h597.333v416.298l85.333 85.333v-544.298c0-11.315-4.497-22.17-12.497-30.17s-18.854-12.497-30.17-12.497h-682.667c-11.316 0-22.168 4.497-30.17 12.497s-12.497 18.854-12.497 30.17v682.666c0 11.316 4.495 22.168 12.497 30.17s18.854 12.497 30.17 12.497h544.299zM874.027 870.4l60.373-60.416-392.192-392.192-60.245-0.128-0.085 60.459 392.149 392.277z" />
<glyph unicode="&#xe92a;" glyph-name="edit-fill" d="M309.035 192h-181.035v181.035l487.893 487.894c8 7.999 18.85 12.492 30.165 12.492s22.165-4.493 30.165-12.492l120.704-120.704c8-8.001 12.493-18.852 12.493-30.165s-4.493-22.164-12.493-30.165l-487.893-487.894zM128 106.667h768v-85.333h-768v85.333z" />
<glyph unicode="&#xe92b;" glyph-name="edit" d="M273.664 277.333l432.725 432.726-60.331 60.331-432.725-432.726v-60.331h60.331zM309.035 192h-181.035v181.035l487.893 487.894c8 7.999 18.85 12.492 30.165 12.492s22.165-4.493 30.165-12.492l120.704-120.704c8-8.001 12.493-18.852 12.493-30.165s-4.493-22.164-12.493-30.165l-487.893-487.894zM128 106.667h768v-85.333h-768v85.333z" />
<glyph unicode="&#xe92c;" glyph-name="eye-fill" d="M50.396 448c40.107 218.453 231.552 384 461.613 384 230.059 0 421.461-165.547 461.611-384-40.107-218.453-231.552-384-461.611-384-230.061 0-421.463 165.547-461.613 384zM512.009 234.667c56.576 0 110.839 22.477 150.848 62.485 40.009 40.004 62.485 94.268 62.485 150.848s-22.477 110.842-62.485 150.849c-40.009 40.008-94.272 62.484-150.848 62.484-56.58 0-110.844-22.476-150.851-62.484s-62.484-94.269-62.484-150.849c0-56.58 22.476-110.844 62.484-150.848 40.008-40.009 94.271-62.485 150.851-62.485zM512.009 320c-33.95 0-66.509 13.487-90.512 37.491-24.005 24.004-37.49 56.563-37.49 90.509s13.486 66.505 37.49 90.51c24.003 24.005 56.562 37.49 90.512 37.49 33.946 0 66.505-13.486 90.509-37.49s37.491-56.564 37.491-90.51c0-33.946-13.487-66.505-37.491-90.509s-56.563-37.491-90.509-37.491z" />
<glyph unicode="&#xe92d;" glyph-name="eye" d="M511.996 832c230.059 0 421.461-165.547 461.611-384-40.107-218.453-231.552-384-461.611-384s-421.461 165.547-461.61 384c40.107 218.453 231.552 384 461.61 384zM511.996 149.333c87.019 0.017 171.452 29.577 239.484 83.831 68.028 54.259 115.627 130.001 135.002 214.835-19.447 84.766-67.076 160.427-135.1 214.612s-152.418 83.691-239.386 83.691c-86.967 0-171.362-29.505-239.386-83.691s-115.652-129.846-135.098-214.612c19.375-84.834 66.973-160.576 135.003-214.835 68.031-54.255 152.465-83.814 239.482-83.831zM511.996 256c-50.923 0-99.757 20.228-135.764 56.235s-56.236 84.843-56.236 135.765c0 50.923 20.228 99.758 56.236 135.764s84.841 56.236 135.764 56.236c50.923 0 99.759-20.229 135.765-56.236s56.235-84.842 56.235-135.764c0-50.923-20.228-99.759-56.235-135.765s-84.843-56.235-135.765-56.235zM511.996 341.333c28.288 0 55.42 11.238 75.426 31.241 20.002 20.006 31.241 47.138 31.241 75.426s-11.238 55.42-31.241 75.426c-20.006 20.003-47.138 31.241-75.426 31.241s-55.42-11.238-75.426-31.241c-20.002-20.006-31.24-47.138-31.24-75.426s11.238-55.42 31.24-75.426c20.006-20.002 47.138-31.241 75.426-31.241z" />
<glyph unicode="&#xe92e;" glyph-name="eye-off-fill" d="M192.849 706.816l-133.419 133.376 60.373 60.373 844.757-844.8-60.373-60.331-141.227 141.227c-75.042-47.599-162.103-72.802-250.965-72.661-230.058 0-421.461 165.547-461.61 384 18.348 99.383 68.294 190.17 142.464 258.816zM629.628 269.995l-62.464 62.464c-23.889-11.43-50.739-15.168-76.847-10.701-26.103 4.471-50.18 16.926-68.908 35.657-18.728 18.726-31.185 42.803-35.655 68.907-4.469 26.108-0.731 52.954 10.7 76.847l-62.464 62.464c-27.148-41.024-39.284-90.167-34.354-139.114s26.625-94.682 61.41-129.468c34.784-34.786 80.524-56.478 129.466-61.41 48.947-4.928 98.091 7.206 139.115 34.355zM340.22 799.573c53.205 20.907 111.189 32.427 171.776 32.427 230.059 0 421.461-165.547 461.611-384-13.073-71.070-42.458-138.138-85.845-195.925l-164.693 164.693c4.894 32.956 1.997 66.598-8.452 98.231-10.449 31.637-28.16 60.385-51.721 83.944-23.556 23.558-52.305 41.271-83.938 51.72-31.637 10.449-65.28 13.343-98.236 8.451l-140.501 140.459z" />
<glyph unicode="&#xe92f;" glyph-name="eye-off" d="M762.961 136.661c-75.042-47.599-162.103-72.802-250.965-72.661-230.058 0-421.461 165.547-461.61 384 18.348 99.383 68.336 190.17 142.507 258.816l-133.504 133.376 60.373 60.373 844.757-844.8-60.373-60.331-141.184 141.227zM253.223 646.4c-57.984-52.719-98.376-121.975-115.712-198.4 13.324-58.304 40.075-112.687 78.123-158.831 38.048-46.14 86.341-82.765 141.037-106.953s114.284-35.277 174.018-32.375c59.733 2.897 117.969 19.699 170.065 49.071l-86.528 86.528c-36.834-23.202-80.461-33.199-123.725-28.348-43.26 4.847-83.59 24.256-114.373 55.040-30.783 30.78-50.191 71.113-55.040 114.372-4.85 43.264 5.146 86.891 28.349 123.724l-96.213 96.171zM550.993 348.672l-138.325 138.325c-7.592-19.324-9.379-40.448-5.141-60.774 4.238-20.322 14.316-38.972 28.996-53.653 14.682-14.682 33.331-24.759 53.658-28.996s41.446-2.449 60.77 5.141l0.043-0.043zM887.761 252.075l-61.056 61.013c28.523 40.649 48.828 86.477 59.776 134.912-11.597 50.786-33.395 98.682-64.077 140.779-30.686 42.097-69.606 77.516-114.402 104.102s-94.532 43.786-146.185 50.553c-51.648 6.767-104.137 2.961-154.269-11.189l-67.328 67.328c53.205 20.907 111.189 32.427 171.776 32.427 230.059 0 421.461-165.547 461.611-384-13.073-71.070-42.458-138.138-85.845-195.925zM500.177 639.658c27.157 1.679 54.362-2.435 79.812-12.067 25.446-9.632 48.555-24.563 67.797-43.803 19.238-19.24 34.167-42.35 43.802-67.799 9.63-25.446 13.743-52.651 12.066-79.808l-203.477 203.477z" />
<glyph unicode="&#xe930;" glyph-name="file-edit" d="M896 671.701l-85.333-85.333v202.965h-384v-213.333h-213.332v-469.333h597.332v117.632l85.333 85.333v-245.973c-0.009-11.23-4.48-21.995-12.425-29.931s-18.714-12.395-29.943-12.395h-683.263c-5.603 0.038-11.143 1.182-16.305 3.362s-9.843 5.355-13.777 9.344c-3.934 3.989-7.044 8.717-9.152 13.909s-3.173 10.748-3.133 16.35v554.368l256.128 256h469.119c23.552 0 42.752-19.413 42.752-42.325v-160.64zM929.195 584.235l60.331-60.373-331.861-331.861-60.416 0.085 0.085 60.245 331.861 331.904z" />
<glyph unicode="&#xe931;" glyph-name="file-history" d="M682.667 874.667l213.333-213.333v-597.035c0-23.723-18.987-42.965-42.368-42.965h-683.264c-23.381 0-42.368 19.413-42.368 42.325v768.683c0 23.381 19.072 42.325 42.624 42.325h512.043zM640 789.333h-426.667v-682.667h597.333v512h-170.667v170.667zM554.667 576v-170.667h128v-85.333h-213.333v256h85.333z" />
<glyph unicode="&#xe932;" glyph-name="filter-2" d="M597.333 362.667v-256l-170.667-85.333v341.333l-256 384v85.333h682.667v-85.333l-256-384zM273.237 746.667l238.763-358.144 238.763 358.144h-477.525z" />
<glyph unicode="&#xe933;" glyph-name="filter-fill" d="M896 789.333v-85.333h-42.667l-256-384v-298.667h-170.667v298.667l-256 384h-42.667v85.333h768z" />
<glyph unicode="&#xe934;" glyph-name="filter" d="M896 789.333v-85.333h-42.667l-213.333-320v-362.667h-256v362.667l-213.333 320h-42.667v85.333h768zM273.237 704l196.096-294.144v-303.189h85.333v303.189l196.096 294.144h-477.525z" />
<glyph unicode="&#xe935;" glyph-name="filter-3" d="M896 789.333v-85.333h-42.667l-213.333-320v-362.667h-256v362.667l-213.333 320h-42.667v85.333h768zM273.237 704l196.096-294.144v-303.189h85.333v303.189l196.096 294.144h-477.525z" />
<glyph unicode="&#xe936;" glyph-name="filter-off-fill" d="M295.637 938.026l603.349-603.391-60.331-60.331-163.115 163.072-78.208-117.376v-298.667h-170.667v298.667l-256 384h-42.667v85.333h195.627l-88.32 88.363 60.331 60.33zM896 789.333v-85.333h-42.667l-81.707-122.539-207.872 207.872h332.245z" />
<glyph unicode="&#xe937;" glyph-name="filter-off" d="M295.637 938.026l603.349-603.391-60.331-60.331-163.115 163.072-35.541-53.376v-362.667h-256v362.667l-213.333 320h-42.667v85.333h195.627l-88.32 88.363 60.331 60.33zM408.96 704h-135.723l196.096-294.144v-303.189h85.333v303.189l59.392 89.045-205.099 205.098zM896 789.333v-85.333h-42.667l-81.707-122.539-61.525 61.568 40.661 60.971h-101.675l-85.333 85.333h332.245z" />
<glyph unicode="&#xe938;" glyph-name="flashlight-fill" d="M554.667 533.333h298.667l-384-554.667v384h-298.667l384 554.667v-384z" />
<glyph unicode="&#xe939;" glyph-name="flashlight" d="M554.667 576h341.333l-426.667-640v384h-298.667l384 640v-384zM469.333 490.667v161.28l-147.968-246.613h233.301v-187.477l181.888 272.811h-267.221z" />
<glyph unicode="&#xe93a;" glyph-name="footprint" d="M170.667 192h234.667v-53.333c0-31.117-12.362-60.962-34.366-82.965-22.004-22.007-51.848-34.368-82.967-34.368s-60.963 12.361-82.967 34.368c-22.004 22.003-34.366 51.849-34.366 82.965v53.333zM343.808 362.667l1.92 5.632c32.725 89.856 38.272 106.581 38.272 122.368 0 32-8.661 70.102-22.528 96.982-10.325 20.053-17.579 25.899-20.139 25.899-54.613 0-106.667-58.197-106.667-122.88 0-40.917 3.2-75.648 9.685-117.675l1.621-10.325h97.835zM341.333 698.88c85.333 0 128-122.88 128-208.214 0-42.667-21.333-85.333-42.667-149.333l-21.333-64h-234.667c0 42.667-21.333 106.667-21.333 213.333s85.248 208.214 192 208.214zM855.637 358.485l-9.259-52.523c-5.402-30.647-22.763-57.894-48.252-75.746-25.493-17.852-57.037-24.845-87.684-19.443-30.647 5.406-57.894 22.763-75.746 48.256-17.852 25.489-24.845 57.033-19.443 87.68l9.301 52.48 231.083-40.704zM810.837 539.648c7.040 21.333 12.843 38.187 12.928 38.4 8.619 28.075 15.403 55.595 20.693 85.675 11.221 63.659-29.952 130.005-83.712 139.52-2.517 0.427-10.667-4.053-24.32-21.973-18.347-24.107-33.451-60.16-39.040-91.605-2.475-14.080-2.091-17.28 11.52-96.555 1.92-10.923 3.499-20.736 4.949-30.592l0.853-5.888 96.128-16.981zM775.595 887.254c105.131-18.517 171.435-133.291 152.917-238.336-18.517-105.088-50.645-164.395-58.027-206.422l-231.125 40.747-9.899 66.731c-9.899 66.731-23.467 112.469-16.085 154.453 14.805 84.053 78.165 197.632 162.219 182.827z" />
<glyph unicode="&#xe93b;" glyph-name="camera" d="M896 704h-85.333v42.667h-597.333v-597.333h597.333v42.667h85.333v-85.333c0-11.315-4.497-22.17-12.497-30.17s-18.854-12.497-30.17-12.497h-682.667c-11.316 0-22.168 4.497-30.17 12.497s-12.497 18.854-12.497 30.17v682.667c0 11.316 4.495 22.168 12.497 30.17s18.854 12.497 30.17 12.497h682.667c11.315 0 22.17-4.495 30.17-12.497s12.497-18.854 12.497-30.17v-85.333zM256 704h85.333v-128h-85.333v128zM640 277.333c45.265 0 88.674 17.98 120.678 49.988 32.009 32.004 49.988 75.413 49.988 120.678s-17.98 88.673-49.988 120.68c-32.004 32.006-75.413 49.987-120.678 49.987s-88.674-17.981-120.678-49.987c-32.009-32.006-49.988-75.415-49.988-120.68s17.98-88.674 49.988-120.678c32.004-32.009 75.413-49.988 120.678-49.988zM640 192c-67.895 0-133.009 26.97-181.018 74.982-48.011 48.009-74.982 113.122-74.982 181.018s26.971 133.010 74.982 181.019c48.009 48.009 113.122 74.981 181.018 74.981s133.009-26.971 181.018-74.981c48.013-48.009 74.982-113.124 74.982-181.019s-26.97-133.009-74.982-181.018c-48.009-48.013-113.122-74.982-181.018-74.982zM640 362.667c-22.63 0-44.335 8.99-60.339 24.994s-24.994 37.709-24.994 60.339c0 22.63 8.99 44.335 24.994 60.339s37.709 24.994 60.339 24.994c22.63 0 44.335-8.99 60.339-24.994s24.994-37.709 24.994-60.339c0-22.63-8.99-44.335-24.994-60.339s-37.709-24.994-60.339-24.994z" />
<glyph unicode="&#xe93c;" glyph-name="guard" d="M512 917.333l350.592-77.909c19.499-4.352 33.408-21.632 33.408-41.643v-426.112c0-85.589-42.795-165.547-114.005-212.992l-269.995-180.011-269.995 180.011c-71.253 47.488-114.005 127.403-114.005 212.949v426.155c0 20.011 13.909 37.291 33.408 41.643l350.592 77.909zM512 829.909l-298.667-66.347v-391.893c0-57.045 28.501-110.336 75.989-141.995l222.677-148.48 222.677 148.48c47.488 31.659 75.989 84.907 75.989 141.952v391.936l-298.667 66.347zM701.952 609.195l60.373-60.331-271.531-271.531-181.035 181.035 60.331 60.331 120.661-120.661 211.2 211.157z" />
<glyph unicode="&#xe93d;" glyph-name="minus" d="M213.333 490.667h597.333v-85.333h-597.333v85.333z" />
<glyph unicode="&#xe93e;" glyph-name="favorite" d="M128 661.334l360.32 240.213c7.010 4.678 15.253 7.174 23.68 7.174s16.67-2.496 23.68-7.174l360.32-240.213v-597.334c0-11.315-4.497-22.17-12.497-30.17s-18.854-12.497-30.17-12.497h-682.667c-11.316 0-22.168 4.497-30.17 12.497s-12.497 18.854-12.497 30.17v597.334zM213.333 615.68v-509.014h597.333v509.014l-298.667 199.083-298.667-199.083zM512 490.667c-22.63 0-44.335 8.99-60.339 24.994s-24.994 37.708-24.994 60.34c0 22.632 8.99 44.337 24.994 60.34s37.709 24.994 60.339 24.994c22.63 0 44.335-8.991 60.339-24.994s24.994-37.708 24.994-60.34c0-22.632-8.99-44.335-24.994-60.34s-37.709-24.994-60.339-24.994z" />
<glyph unicode="&#xe93f;" glyph-name="heart-fill" d="M512.043 766.762c100.224 89.984 255.104 86.997 351.659-9.728 96.512-96.768 99.84-250.88 10.069-351.402l-361.813-362.325-361.728 362.325c-89.771 100.523-86.4 254.89 10.069 351.402 96.64 96.597 251.221 99.84 351.744 9.728z" />
<glyph unicode="&#xe940;" glyph-name="heart" d="M512.043 766.762c100.224 89.984 255.104 86.997 351.659-9.728 96.512-96.768 99.84-250.88 10.069-351.402l-361.813-362.325-361.728 362.325c-89.771 100.523-86.4 254.89 10.069 351.402 96.64 96.597 251.221 99.84 351.744 9.728zM803.285 696.746c-64 64.085-167.253 66.688-234.24 6.528l-56.96-51.115-57.003 51.072c-67.2 60.245-170.24 57.6-234.41-6.571-63.573-63.573-66.773-165.333-8.192-232.576l299.52-299.989 299.52 299.947c58.624 67.285 55.424 168.917-8.235 232.704z" />
<glyph unicode="&#xe941;" glyph-name="history" d="M512 874.667c235.648 0 426.667-191.019 426.667-426.667s-191.019-426.667-426.667-426.667c-235.648 0-426.667 191.019-426.667 426.667h85.333c0-188.501 152.832-341.333 341.333-341.333s341.333 152.832 341.333 341.333c0 188.501-152.832 341.333-341.333 341.333-117.333 0-220.843-59.179-282.24-149.333h111.573v-85.333h-256v256h85.333v-106.667c77.824 103.68 201.771 170.667 341.333 170.667zM554.667 661.333v-195.627l138.368-138.368-60.373-60.373-163.328 163.413v230.955h85.333z" />
<glyph unicode="&#xe942;" glyph-name="image-add" d="M896 320v-128h128v-85.333h-128v-128h-85.333v128h-128v85.333h128v128h85.333zM896.341 832c23.381 0 42.325-18.987 42.325-42.368v-384.299h-85.333v341.333h-682.667v-597.291l426.667 426.624 128-128v-120.704l-128 128-306.048-305.963h306.048v-85.333h-469.675c-11.229 0.013-21.995 4.48-29.931 12.425s-12.394 18.714-12.394 29.943v683.264c0.078 11.205 4.561 21.93 12.48 29.857s18.64 12.422 29.845 12.511h768.683zM341.333 661.333c22.632 0 44.337-8.99 60.34-24.994s24.994-37.708 24.994-60.34c0-22.632-8.99-44.335-24.994-60.339s-37.708-24.994-60.34-24.994c-22.632 0-44.337 8.99-60.34 24.994s-24.994 37.708-24.994 60.339c0 22.632 8.99 44.337 24.994 60.34s37.708 24.994 60.34 24.994z" />
<glyph unicode="&#xe943;" glyph-name="list-unordered" d="M341.333 789.333h554.667v-85.333h-554.667v85.333zM192 682.667c-16.974 0-33.253 6.743-45.255 18.745s-18.745 28.281-18.745 45.255c0 16.974 6.743 33.253 18.745 45.255s28.281 18.745 45.255 18.745c16.974 0 33.253-6.743 45.255-18.745s18.745-28.281 18.745-45.255c0-16.974-6.743-33.253-18.745-45.255s-28.281-18.745-45.255-18.745zM192 384c-16.974 0-33.253 6.741-45.255 18.743s-18.745 28.284-18.745 45.257c0 16.973 6.743 33.254 18.745 45.257s28.281 18.743 45.255 18.743c16.974 0 33.253-6.741 45.255-18.743s18.745-28.284 18.745-45.257c0-16.973-6.743-33.254-18.745-45.257s-28.281-18.743-45.255-18.743zM192 89.6c-16.974 0-33.253 6.741-45.255 18.743s-18.745 28.284-18.745 45.257c0 16.973 6.743 33.254 18.745 45.257s28.281 18.743 45.255 18.743c16.974 0 33.253-6.741 45.255-18.743s18.745-28.284 18.745-45.257c0-16.973-6.743-33.254-18.745-45.257s-28.281-18.743-45.255-18.743zM341.333 490.667h554.667v-85.333h-554.667v85.333zM341.333 192h554.667v-85.333h-554.667v85.333z" />
<glyph unicode="&#xe944;" glyph-name="logout-box" d="M170.667 192h85.333v-85.333h512v682.667h-512v-85.333h-85.333v128c0 11.316 4.495 22.168 12.497 30.17s18.854 12.497 30.17 12.497h597.333c11.315 0 22.17-4.495 30.17-12.497s12.497-18.854 12.497-30.17v-768c0-11.315-4.497-22.17-12.497-30.17s-18.854-12.497-30.17-12.497h-597.333c-11.316 0-22.168 4.497-30.17 12.497s-12.497 18.854-12.497 30.17v128zM256 490.667h298.667v-85.333h-298.667v-128l-213.333 170.667 213.333 170.667v-128z" />
<glyph unicode="&#xe945;" glyph-name="map-pin" d="M512-52.395l-271.531 271.531c-53.703 53.705-90.275 122.125-105.091 196.612-14.816 74.492-7.212 151.7 21.853 221.866s78.282 130.138 141.431 172.333c63.148 42.194 137.392 64.716 213.338 64.716s150.191-22.521 213.338-64.716c63.151-42.194 112.367-102.167 141.431-172.333s36.668-147.375 21.854-221.866c-14.818-74.487-51.388-142.908-105.092-196.612l-271.531-271.531zM723.2 279.467c41.766 41.771 70.208 94.989 81.732 152.922 11.52 57.937 5.602 117.986-17.003 172.558s-60.89 101.216-110.003 134.033c-49.114 32.817-106.859 50.332-165.926 50.332s-116.812-17.516-165.927-50.332c-49.115-32.817-87.396-79.46-110.002-134.033s-28.523-114.621-17.001-172.558c11.522-57.933 39.964-111.151 81.73-152.922l211.2-211.2 211.2 211.2zM512 405.333c-22.63 0-44.335 8.99-60.339 24.994-16.004 16-24.994 37.709-24.994 60.339s8.99 44.336 24.994 60.339c16.004 16.003 37.709 24.994 60.339 24.994s44.335-8.991 60.339-24.994c16.004-16.003 24.994-37.709 24.994-60.339s-8.99-44.339-24.994-60.339c-16.004-16.004-37.709-24.994-60.339-24.994z" />
<glyph unicode="&#xe946;" glyph-name="map-pin-2" d="M512 171.307l181.035 180.992c35.797 35.802 60.177 81.417 70.050 131.076s4.8 101.129-14.575 147.904c-19.379 46.775-52.19 86.755-94.289 114.883s-91.593 43.141-142.221 43.141c-50.628 0-100.123-15.013-142.221-43.141s-74.91-68.107-94.288-114.883c-19.377-46.775-24.449-98.244-14.575-147.904s34.252-95.275 70.049-131.076l181.035-180.992zM753.365 291.968l-241.365-241.365-241.365 241.365c-47.735 47.735-80.241 108.557-93.411 174.767-13.169 66.214-6.409 134.842 19.427 197.212s69.585 115.677 125.716 153.183c56.132 37.505 122.126 57.524 189.633 57.524s133.5-20.018 189.632-57.524c56.132-37.505 99.883-90.813 125.717-153.183s32.597-130.998 19.426-197.212c-13.167-66.21-45.675-127.031-93.41-174.767zM213.333 21.333h597.333v-85.333h-597.333v85.333z" />
<glyph unicode="&#xe947;" glyph-name="map-pin-3" d="M512 68.267l211.2 211.2c41.766 41.771 70.208 94.989 81.732 152.922 11.52 57.937 5.602 117.986-17.003 172.558s-60.89 101.216-110.003 134.033c-49.114 32.817-106.859 50.332-165.926 50.332s-116.812-17.516-165.927-50.332c-49.115-32.817-87.396-79.46-110.002-134.033s-28.523-114.621-17.001-172.558c11.522-57.933 39.964-111.151 81.73-152.922l211.2-211.2zM512-52.395l-271.531 271.531c-53.703 53.705-90.275 122.125-105.091 196.612-14.816 74.492-7.212 151.7 21.853 221.866s78.282 130.138 141.431 172.333c63.148 42.194 137.392 64.716 213.338 64.716s150.191-22.521 213.338-64.716c63.151-42.194 112.367-102.167 141.431-172.333s36.668-147.375 21.854-221.866c-14.818-74.487-51.388-142.908-105.092-196.612l-271.531-271.531zM512 405.333c22.63 0 44.335 8.99 60.339 24.994 16.004 16 24.994 37.709 24.994 60.339s-8.99 44.336-24.994 60.339c-16.004 16.003-37.709 24.994-60.339 24.994s-44.335-8.991-60.339-24.994c-16.004-16.003-24.994-37.709-24.994-60.339s8.99-44.339 24.994-60.339c16.004-16.004 37.709-24.994 60.339-24.994zM512 320c-45.265 0-88.673 17.98-120.679 49.988-32.006 32.004-49.987 75.413-49.987 120.678 0 45.263 17.981 88.673 49.987 120.679s75.414 49.987 120.679 49.987c45.265 0 88.674-17.981 120.678-49.987 32.009-32.006 49.988-75.416 49.988-120.679 0-45.265-17.98-88.674-49.988-120.678-32.004-32.009-75.413-49.988-120.678-49.988z" />
<glyph unicode="&#xe948;" glyph-name="medal" d="M512 661.334c90.526 0 177.348-35.962 241.361-99.974 64.009-64.011 99.972-150.833 99.972-241.359s-35.964-177.348-99.972-241.357c-64.013-64.013-150.835-99.977-241.361-99.977-90.527 0-177.347 35.964-241.359 99.977-64.013 64.009-99.974 150.831-99.974 241.357s35.962 177.348 99.974 241.359c64.012 64.012 150.832 99.974 241.359 99.974zM512 576c-67.895 0-133.010-26.971-181.019-74.983-48.009-48.009-74.981-113.122-74.981-181.018s26.971-133.009 74.981-181.018c48.009-48.013 113.124-74.982 181.019-74.982s133.009 26.97 181.018 74.982c48.013 48.009 74.982 113.122 74.982 181.018s-26.97 133.009-74.982 181.018c-48.009 48.012-113.122 74.983-181.018 74.983zM512 512l56.448-114.347 126.165-18.347-91.307-88.96 21.547-125.696-112.853 59.349-112.853-59.307 21.547 125.653-91.307 89.003 126.165 18.347 56.448 114.304zM768 874.667v-128l-58.155-48.555c-48.26 25.319-100.945 41.095-155.179 46.464v130.091h213.333zM469.333 874.71v-130.133c-54.214-5.361-106.888-21.123-155.136-46.421l-58.197 48.512v128l213.333 0.043z" />
<glyph unicode="&#xe949;" glyph-name="menu-2" d="M128 789.333h768v-85.333h-768v85.333zM128 490.667h512v-85.333h-512v85.333zM128 192h768v-85.333h-768v85.333z" />
<glyph unicode="&#xe94a;" glyph-name="menu-3" d="M128 789.333h768v-85.333h-768v85.333zM384 490.667h512v-85.333h-512v85.333zM128 192h768v-85.333h-768v85.333z" />
<glyph unicode="&#xe94b;" glyph-name="movie-2" d="M512 106.667h341.333v-85.333h-341.333c-235.648 0-426.667 191.019-426.667 426.667s191.019 426.667 426.667 426.667c235.648 0 426.667-191.019 426.667-426.667 0.137-92.339-29.82-182.208-85.333-256h-115.541c59.917 52.838 99.401 125.022 111.573 203.977 12.177 78.95-3.725 159.675-44.937 228.111s-105.122 120.249-180.604 146.416c-75.477 26.167-157.747 25.031-232.474-3.211-74.728-28.242-137.183-81.8-176.489-151.348s-52.973-150.681-38.621-229.264c14.352-78.588 55.814-149.653 117.166-200.819 61.352-51.162 138.708-79.189 218.593-79.194zM512 533.333c-22.63 0-44.335 8.99-60.339 24.994s-24.994 37.708-24.994 60.34c0 22.632 8.99 44.337 24.994 60.34s37.709 24.994 60.339 24.994c22.63 0 44.335-8.99 60.339-24.994s24.994-37.708 24.994-60.34c0-22.632-8.99-44.337-24.994-60.34s-37.709-24.994-60.339-24.994zM341.333 362.667c-22.632 0-44.337 8.99-60.34 24.994s-24.994 37.709-24.994 60.339c0 22.63 8.99 44.335 24.994 60.339s37.708 24.994 60.34 24.994c22.632 0 44.337-8.99 60.34-24.994s24.994-37.709 24.994-60.339c0-22.63-8.99-44.335-24.994-60.339s-37.708-24.994-60.34-24.994zM682.667 362.667c-22.63 0-44.335 8.99-60.339 24.994s-24.994 37.709-24.994 60.339c0 22.63 8.99 44.335 24.994 60.339s37.709 24.994 60.339 24.994c22.63 0 44.335-8.99 60.339-24.994s24.994-37.709 24.994-60.339c0-22.63-8.99-44.335-24.994-60.339s-37.709-24.994-60.339-24.994zM512 192c-22.63 0-44.335 8.99-60.339 24.994s-24.994 37.709-24.994 60.339c0 22.63 8.99 44.335 24.994 60.339s37.709 24.994 60.339 24.994c22.63 0 44.335-8.99 60.339-24.994s24.994-37.709 24.994-60.339c0-22.63-8.99-44.335-24.994-60.339s-37.709-24.994-60.339-24.994z" />
<glyph unicode="&#xe94c;" glyph-name="notification-2-fill" d="M938.667 106.667h-853.333v85.333h42.667v297.344c0 212.821 171.947 385.323 384 385.323s384-172.501 384-385.323v-297.344h42.667v-85.333zM405.333 64h213.333c0-28.288-11.238-55.42-31.241-75.426-20.006-20.002-47.138-31.241-75.426-31.241s-55.42 11.238-75.426 31.241c-20.003 20.006-31.241 47.138-31.241 75.426z" />
<glyph unicode="&#xe94d;" glyph-name="notification-2" d="M938.667 106.667h-853.333v85.333h42.667v297.344c0 212.821 171.947 385.323 384 385.323s384-172.501 384-385.323v-297.344h42.667v-85.333zM213.333 192h597.333v297.344c0 165.675-133.717 299.989-298.667 299.989s-298.667-134.315-298.667-299.989v-297.344zM405.333 64h213.333c0-28.288-11.238-55.42-31.241-75.426-20.006-20.002-47.138-31.241-75.426-31.241s-55.42 11.238-75.426 31.241c-20.003 20.006-31.241 47.138-31.241 75.426z" />
<glyph unicode="&#xe94e;" glyph-name="notification-3-fill" d="M853.333 234.667h85.333v-85.333h-853.333v85.333h85.333v298.667c0 90.527 35.962 177.347 99.974 241.359s150.832 99.974 241.359 99.974c90.526 0 177.348-35.962 241.361-99.974 64.009-64.012 99.972-150.832 99.972-241.359v-298.667zM384 64h256v-85.333h-256v85.333z" />
<glyph unicode="&#xe94f;" glyph-name="notification-3" d="M853.333 234.667h85.333v-85.333h-853.333v85.333h85.333v298.667c0 90.527 35.962 177.347 99.974 241.359s150.832 99.974 241.359 99.974c90.526 0 177.348-35.962 241.361-99.974 64.009-64.012 99.972-150.832 99.972-241.359v-298.667zM768 234.667v298.667c0 67.895-26.97 133.010-74.982 181.019-48.009 48.009-113.122 74.981-181.018 74.981s-133.010-26.971-181.019-74.981c-48.009-48.009-74.981-113.124-74.981-181.019v-298.667h512zM384 64h256v-85.333h-256v85.333z" />
<glyph unicode="&#xe950;" glyph-name="notification-4-fill" d="M853.333 163.541l17.067-22.741c2.377-3.17 3.823-6.938 4.181-10.884 0.354-3.947-0.397-7.915-2.167-11.456-1.771-3.546-4.493-6.524-7.863-8.606s-7.253-3.187-11.217-3.187h-682.667c-3.962 0-7.846 1.105-11.216 3.187s-6.094 5.060-7.865 8.606c-1.772 3.541-2.522 7.509-2.166 11.456s1.804 7.714 4.18 10.884l17.067 22.741v369.792c0 90.527 35.962 177.347 99.974 241.359s150.832 99.974 241.359 99.974c90.526 0 177.348-35.962 241.361-99.974 64.009-64.012 99.972-150.832 99.972-241.359v-369.792zM405.333 64h213.333c0-28.288-11.238-55.42-31.241-75.426-20.006-20.002-47.138-31.241-75.426-31.241s-55.42 11.238-75.426 31.241c-20.003 20.006-31.241 47.138-31.241 75.426z" />
<glyph unicode="&#xe951;" glyph-name="notification-4" d="M768 533.333c0 67.895-26.97 133.010-74.982 181.019-48.009 48.009-113.122 74.981-181.018 74.981s-133.010-26.971-181.019-74.981c-48.009-48.009-74.981-113.124-74.981-181.019v-341.333h512v341.333zM853.333 163.541l17.067-22.741c2.377-3.17 3.823-6.938 4.181-10.884 0.354-3.947-0.397-7.915-2.167-11.456-1.771-3.546-4.493-6.524-7.863-8.606s-7.253-3.187-11.217-3.187h-682.667c-3.962 0-7.846 1.105-11.216 3.187s-6.094 5.060-7.865 8.606c-1.772 3.541-2.522 7.509-2.166 11.456s1.804 7.714 4.18 10.884l17.067 22.741v369.792c0 90.527 35.962 177.347 99.974 241.359s150.832 99.974 241.359 99.974c90.526 0 177.348-35.962 241.361-99.974 64.009-64.012 99.972-150.832 99.972-241.359v-369.792zM405.333 64h213.333c0-28.288-11.238-55.42-31.241-75.426-20.006-20.002-47.138-31.241-75.426-31.241s-55.42 11.238-75.426 31.241c-20.003 20.006-31.241 47.138-31.241 75.426z" />
<glyph unicode="&#xe952;" glyph-name="notification-fill" d="M512 874.667c212.053 0 384-172.501 384-385.323v-382.677h-768v382.677c0 212.821 171.947 385.323 384 385.323zM405.333 64h213.333c0-28.288-11.238-55.42-31.241-75.426-20.006-20.002-47.138-31.241-75.426-31.241s-55.42 11.238-75.426 31.241c-20.003 20.006-31.241 47.138-31.241 75.426z" />
<glyph unicode="&#xe953;" glyph-name="notification" d="M213.333 192h597.333v297.344c0 165.675-133.717 299.989-298.667 299.989s-298.667-134.315-298.667-299.989v-297.344zM512 874.667c212.053 0 384-172.501 384-385.323v-382.677h-768v382.677c0 212.821 171.947 385.323 384 385.323zM405.333 64h213.333c0-28.288-11.238-55.42-31.241-75.426-20.006-20.002-47.138-31.241-75.426-31.241s-55.42 11.238-75.426 31.241c-20.003 20.006-31.241 47.138-31.241 75.426z" />
<glyph unicode="&#xe954;" glyph-name="numbers" d="M384 192h-213.333v341.333h213.333v-341.333zM298.667 277.333v170.667h-42.667v-170.667h42.667zM554.667 277.333v341.333h-42.667v-341.333h42.667zM640 192h-213.333v512h213.333v-512zM810.667 277.333v512h-42.667v-512h42.667zM896 192h-213.333v682.667h213.333v-682.667zM938.667 21.333h-810.667v85.333h810.667v-85.333z" />
<glyph unicode="&#xe955;" glyph-name="oil" d="M386.987 661.333l-130.987-196.523v-358.144h512v554.667h-381.013zM341.333 746.667h469.333c11.315 0 22.17-4.495 30.17-12.497s12.497-18.854 12.497-30.17v-640c0-11.315-4.497-22.17-12.497-30.17s-18.854-12.497-30.17-12.497h-597.333c-11.316 0-22.168 4.497-30.17 12.497s-12.497 18.854-12.497 30.17v426.667l170.667 256zM554.667 917.333h213.333c11.315 0 22.17-4.495 30.17-12.497s12.497-18.854 12.497-30.17v-85.333h-298.667v85.333c0 11.316 4.497 22.168 12.497 30.17s18.854 12.497 30.17 12.497zM341.333 448h85.333v-256h-85.333v256z" />
<glyph unicode="&#xe956;" glyph-name="passport" d="M853.333 874.667c11.315 0 22.17-4.495 30.17-12.497s12.497-18.854 12.497-30.17v-768c0-11.315-4.497-22.17-12.497-30.17s-18.854-12.497-30.17-12.497h-682.667c-11.316 0-22.168 4.497-30.17 12.497s-12.497 18.854-12.497 30.17v768c0 11.316 4.495 22.168 12.497 30.17s18.854 12.497 30.17 12.497h682.667zM810.667 789.333h-597.333v-682.667h597.333v682.667zM682.667 277.333v-85.333h-341.333v85.333h341.333zM512 704c45.265 0 88.674-17.981 120.678-49.987 32.009-32.006 49.988-75.416 49.988-120.68s-17.98-88.674-49.988-120.678c-32.004-32.009-75.413-49.988-120.678-49.988s-88.673 17.98-120.68 49.988c-32.006 32.004-49.987 75.413-49.987 120.678s17.981 88.673 49.987 120.68 75.415 49.987 120.68 49.987zM512 618.667c-22.63 0-44.335-8.99-60.339-24.994s-24.994-37.708-24.994-60.34c0-22.63 8.99-44.335 24.994-60.339s37.709-24.994 60.339-24.994c22.63 0 44.335 8.99 60.339 24.994s24.994 37.709 24.994 60.339c0 22.632-8.99 44.337-24.994 60.34s-37.709 24.994-60.339 24.994z" />
<glyph unicode="&#xe957;" glyph-name="phone" d="M399.616 504.235c40.034-70.336 98.283-128.585 168.619-168.619l37.717 52.821c6.067 8.495 15.031 14.468 25.207 16.798 10.176 2.325 20.847 0.845 30.003-4.169 60.343-32.977 126.985-52.813 195.541-58.197 10.701-0.849 20.685-5.696 27.968-13.581s11.328-18.223 11.328-28.958v-190.379c0.004-10.564-3.913-20.753-10.991-28.595s-16.815-12.779-27.324-13.858c-22.613-2.347-45.397-3.499-68.352-3.499-365.227 0-661.333 296.107-661.333 661.333 0 22.955 1.152 45.739 3.499 68.352 1.077 10.509 6.015 20.244 13.858 27.322s18.032 10.994 28.596 10.992h190.379c10.733 0.001 21.073-4.043 28.957-11.326s12.734-17.27 13.582-27.97c5.385-68.556 25.22-135.197 58.197-195.541 5.013-9.155 6.494-19.829 4.169-30.003-2.33-10.174-8.303-19.142-16.798-25.207l-52.821-37.717zM292.011 532.267l81.067 57.899c-23.007 49.66-38.769 102.364-46.805 156.501h-112.512c-0.256-7.083-0.384-14.208-0.384-21.333-0.043-318.123 257.835-576 575.957-576 7.125 0 14.251 0.128 21.333 0.427v112.512c-54.135 8.038-106.842 23.799-156.501 46.805l-57.899-81.067c-23.309 9.058-45.952 19.75-67.755 32l-2.475 1.408c-83.686 47.629-152.991 116.932-200.619 200.619l-1.408 2.475c-12.249 21.803-22.943 44.446-32 67.755z" />
<glyph unicode="&#xe958;" glyph-name="question-answer-fill" d="M341.333 192h436.779l75.221-59.093v443.093h42.667c11.315 0 22.17-4.495 30.17-12.497s12.497-18.854 12.497-30.17v-576l-190.080 149.333h-364.587c-11.316 0-22.168 4.497-30.17 12.497s-12.497 18.854-12.497 30.17v42.667zM232.747 277.333l-190.080-149.333v661.333c0 11.316 4.495 22.168 12.497 30.17s18.854 12.497 30.17 12.497h640c11.315 0 22.17-4.495 30.17-12.497s12.497-18.854 12.497-30.17v-512h-535.253z" />
<glyph unicode="&#xe959;" glyph-name="question-answer" d="M232.747 320l-190.080-149.333v661.333c0 11.316 4.495 22.168 12.497 30.17s18.854 12.497 30.17 12.497h640c11.315 0 22.17-4.495 30.17-12.497s12.497-18.854 12.497-30.17v-512h-535.253zM203.221 405.333h479.445v384h-554.667v-443.093l75.221 59.093zM341.333 234.667h436.779l75.221-59.093v443.093h42.667c11.315 0 22.17-4.495 30.17-12.497s12.497-18.854 12.497-30.17v-576l-190.080 149.333h-364.587c-11.316 0-22.168 4.497-30.17 12.497s-12.497 18.854-12.497 30.17v42.667z" />
<glyph unicode="&#xe95a;" glyph-name="refresh" d="M233.088 770.858c77.421 67.087 176.469 103.951 278.912 103.808 235.648 0 426.667-191.019 426.667-426.666 0-91.136-28.587-175.616-77.227-244.907l-136.107 244.907h128c0.004 66.918-19.661 132.36-56.546 188.191-36.89 55.831-89.378 99.588-150.933 125.83-61.559 26.241-129.472 33.81-195.294 21.764-65.826-12.045-126.658-43.174-174.933-89.514l-42.539 76.587zM790.912 125.141c-77.423-67.085-176.469-103.953-278.912-103.808-235.648 0-426.667 191.019-426.667 426.667 0 91.136 28.587 175.616 77.227 244.906l136.107-244.906h-128c-0.006-66.918 19.659-132.361 56.548-188.194 36.889-55.829 89.375-99.588 150.932-125.828 61.559-26.24 129.471-33.809 195.293-21.764 65.826 12.045 126.656 43.174 174.933 89.515l42.539-76.587z" />
<glyph unicode="&#xe95b;" glyph-name="repeat-2" d="M341.333 106.667v-82.432c0.006-4.058-1.144-8.034-3.316-11.46s-5.277-6.161-8.95-7.885c-3.673-1.724-7.761-2.368-11.785-1.852-4.024 0.521-7.817 2.172-10.935 4.77l-175.787 146.475c-3.372 2.812-5.794 6.596-6.936 10.833s-0.949 8.725 0.554 12.851c1.502 4.126 4.241 7.689 7.842 10.197 3.601 2.513 7.889 3.853 12.279 3.836h623.701c22.63 0 44.335 8.99 60.339 24.994 16.004 16 24.994 37.709 24.994 60.339v341.333h85.333v-341.333c0-45.265-17.98-88.674-49.988-120.678-32.004-32.009-75.413-49.988-120.678-49.988h-426.667zM682.667 789.333v82.432c-0.009 4.057 1.143 8.032 3.315 11.459 2.176 3.427 5.278 6.162 8.951 7.887s7.761 2.365 11.785 1.848c4.023-0.517 7.817-2.17 10.935-4.767l175.787-146.475c3.371-2.81 5.79-6.589 6.933-10.824s0.951-8.719-0.542-12.842c-1.498-4.123-4.233-7.684-7.825-10.199s-7.876-3.86-12.262-3.853h-623.744c-22.632 0-44.337-8.991-60.34-24.994s-24.994-37.708-24.994-60.34v-341.333h-85.333v341.333c0 45.263 17.981 88.673 49.987 120.679s75.416 49.987 120.68 49.987h426.667z" />
<glyph unicode="&#xe95c;" glyph-name="repeat" d="M256 789.333h640c11.315 0 22.17-4.495 30.17-12.497s12.497-18.854 12.497-30.17v-298.667h-85.333v256h-597.333v-128l-213.333 170.667 213.333 170.667v-128zM768 106.667h-640c-11.316 0-22.168 4.497-30.17 12.497s-12.497 18.854-12.497 30.17v298.667h85.333v-256h597.333v128l213.333-170.667-213.333-170.667v128z" />
<glyph unicode="&#xe95d;" glyph-name="riding" d="M234.667 64c-25.214 0-50.181 4.966-73.475 14.613-23.294 9.651-44.46 23.795-62.289 41.621-17.829 17.83-31.971 38.997-41.62 62.289-9.649 23.296-14.615 48.265-14.615 73.476s4.966 50.18 14.615 73.476c9.649 23.292 23.792 44.459 41.62 62.289 17.829 17.826 38.995 31.97 62.289 41.621 23.295 9.647 48.262 14.613 73.475 14.613 50.921 0 99.758-20.228 135.764-56.235s56.236-84.843 56.236-135.765c0-50.923-20.229-99.759-56.236-135.765s-84.843-56.235-135.764-56.235zM234.667 149.333c28.29 0 55.421 11.238 75.425 31.241 20.004 20.006 31.242 47.138 31.242 75.426s-11.238 55.42-31.242 75.426c-20.004 20.002-47.135 31.241-75.425 31.241s-55.421-11.238-75.425-31.241c-20.004-20.006-31.242-47.138-31.242-75.426s11.238-55.42 31.242-75.426c20.004-20.002 47.135-31.241 75.425-31.241zM789.333 64c-25.212 0-50.18 4.966-73.476 14.613-23.292 9.651-44.459 23.795-62.289 41.621-17.826 17.83-31.97 38.997-41.621 62.289-9.647 23.296-14.613 48.265-14.613 73.476s4.966 50.18 14.613 73.476c9.651 23.292 23.795 44.459 41.621 62.289 17.83 17.826 38.997 31.97 62.289 41.621 23.296 9.647 48.265 14.613 73.476 14.613 50.923 0 99.759-20.228 135.765-56.235s56.235-84.843 56.235-135.765c0-50.923-20.228-99.759-56.235-135.765s-84.843-56.235-135.765-56.235zM789.333 149.333c28.288 0 55.42 11.238 75.426 31.241 20.002 20.006 31.241 47.138 31.241 75.426s-11.238 55.42-31.241 75.426c-20.006 20.002-47.138 31.241-75.426 31.241s-55.42-11.238-75.426-31.241c-20.002-20.006-31.241-47.138-31.241-75.426s11.238-55.42 31.241-75.426c20.006-20.002 47.138-31.241 75.426-31.241zM470.315 520.32l84.352-72.32v-256h-85.333v213.333l-116.011 96.683c-10.324 7.095-18.959 16.375-25.292 27.183-6.334 10.806-10.21 22.875-11.354 35.349s0.471 25.047 4.733 36.826c4.261 11.779 11.063 22.476 19.924 31.33l120.661 120.661c7.923 7.927 17.331 14.216 27.686 18.507 10.359 4.291 21.457 6.499 32.666 6.499s22.306-2.208 32.666-6.499c10.355-4.291 19.763-10.579 27.686-18.507l60.331-60.331c45.184-45.347 103.799-74.9 167.125-84.267l-0.427-85.973c-85.922 9.89-165.956 48.622-227.029 109.867l-112.384-112.341zM682.667 746.667c-22.63 0-44.335 8.99-60.339 24.994s-24.994 37.708-24.994 60.34c0 22.632 8.99 44.337 24.994 60.34s37.709 24.994 60.339 24.994c22.63 0 44.335-8.99 60.339-24.994s24.994-37.708 24.994-60.34c0-22.632-8.99-44.337-24.994-60.34s-37.709-24.994-60.339-24.994z" />
<glyph unicode="&#xe95e;" glyph-name="scales-2" d="M554.662 874.667v-54.528l213.333-71.168 154.965 51.627 27.008-80.896-129.365-43.136 132.096-363.179c-46.592-48.512-112.171-78.72-184.704-78.72-72.576 0-138.112 30.208-184.704 78.72l132.011 363.179-160.64 53.589v-580.821h170.667v-85.333h-426.667v85.333h170.667v580.821l-160.768-53.589 132.096-363.179c-46.549-48.512-112.128-78.72-184.661-78.72-72.576 0-138.112 30.208-184.704 78.72l132.011 363.179-129.28 43.093 27.008 80.981 154.965-51.627 213.333 71.125v54.528h85.333zM767.996 571.605l-83.541-229.803c25.045-14.123 53.632-21.803 83.541-21.803 29.867 0 58.453 7.68 83.541 21.76l-83.541 229.845zM255.996 571.605l-83.541-229.803c25.045-14.123 53.632-21.803 83.541-21.803 29.867 0 58.453 7.68 83.541 21.76l-83.541 229.845z" />
<glyph unicode="&#xe95f;" glyph-name="scales" d="M554.667 874.667v-42.667h298.667v-85.333h-298.667v-597.333h170.667v-85.333h-426.667v85.333h170.667v597.333h-298.667v85.333h298.667v42.667h85.333zM213.333 689.365l120.661-120.704c30.891-30.848 50.005-73.515 50.005-120.661 0-94.293-76.373-170.667-170.667-170.667s-170.667 76.373-170.667 170.667c0 47.147 19.115 89.813 50.005 120.661l120.661 120.704zM810.667 689.365l120.661-120.704c30.891-30.848 50.005-73.515 50.005-120.661 0-94.293-76.373-170.667-170.667-170.667s-170.667 76.373-170.667 170.667c0 47.147 19.115 89.813 50.005 120.661l120.661 120.704zM213.333 568.661l-60.331-60.331c-15.957-15.957-25.003-37.291-25.003-60.331 0-47.147 38.187-85.333 85.333-85.333s85.333 38.187 85.333 85.333c0 23.040-9.045 44.373-25.003 60.331l-60.331 60.331zM810.667 568.661l-60.331-60.331c-15.957-15.957-25.003-37.291-25.003-60.331 0-47.147 38.187-85.333 85.333-85.333s85.333 38.187 85.333 85.333c0 23.040-9.045 44.373-25.003 60.331l-60.331 60.331z" />
<glyph unicode="&#xe960;" glyph-name="search-2" d="M469.333 874.667c211.968 0 384-172.032 384-384s-172.032-384-384-384c-211.968 0-384 172.032-384 384s172.032 384 384 384zM469.333 192c164.992 0 298.667 133.675 298.667 298.667 0 165.035-133.675 298.667-298.667 298.667-165.035 0-298.667-133.632-298.667-298.667 0-164.992 133.632-298.667 298.667-298.667zM831.36 188.971l120.704-120.661-60.373-60.373-120.661 120.704 60.331 60.331z" />
<glyph unicode="&#xe961;" glyph-name="search" d="M769.323 251.008l182.741-182.699-60.373-60.373-182.699 182.741c-67.981-54.494-152.533-84.134-239.659-84.011-211.968 0-384 172.032-384 384s172.032 384 384 384c211.968 0 384-172.032 384-384 0.124-87.125-29.517-171.678-84.011-239.659zM683.733 282.667c54.148 55.684 84.39 130.33 84.267 208 0 165.035-133.675 298.667-298.667 298.667-165.035 0-298.667-133.632-298.667-298.667 0-164.992 133.632-298.667 298.667-298.667 77.67-0.124 152.316 30.118 208 84.267l6.4 6.4z" />
<glyph unicode="&#xe962;" glyph-name="secure-payment" d="M469.333 874.667l311.381-97.28c8.683-2.711 16.273-8.127 21.662-15.458s8.294-16.191 8.29-25.289v-75.307h85.333c11.315 0 22.17-4.495 30.17-12.497s12.497-18.854 12.497-30.17v-341.333c0-11.315-4.497-22.17-12.497-30.17s-18.854-12.497-30.17-12.497l-137.387-0.043c-16.512-21.76-36.565-40.96-59.733-56.747l-229.547-156.544-229.547 156.501c-34.452 23.488-62.645 55.040-82.127 91.908s-29.664 77.935-29.659 119.633v347.264c0.005 9.091 2.914 17.942 8.301 25.263s12.973 12.732 21.651 15.441l311.381 97.323zM469.333 785.323l-256-80.043v-315.904c-0.006-26.121 5.984-51.895 17.509-75.337 11.525-23.445 28.277-43.925 48.966-59.874l8.064-5.803 181.461-123.776 161.365 110.080h-204.032c-11.316 0-22.168 4.497-30.17 12.497s-12.497 18.854-12.497 30.17v341.333c0 11.316 4.495 22.168 12.497 30.17s18.854 12.497 30.17 12.497h298.667v43.947l-256 80.043zM469.333 448v-128h384v128h-384zM469.333 533.333h384v42.667h-384v-42.667z" />
<glyph unicode="&#xe963;" glyph-name="settings-fill" d="M424.706 865.708c57.555 12.069 116.981 12.098 174.547 0.085 3.836-25.314 13.329-49.437 27.767-70.578 14.443-21.141 33.463-38.755 55.646-51.534 22.17-12.823 46.942-20.483 72.478-22.411 25.54-1.928 51.183 1.926 75.021 11.275 39.181-43.864 68.86-95.362 87.168-151.253-19.994-15.982-36.13-36.265-47.211-59.342-11.081-23.074-16.819-48.35-16.789-73.95 0-53.931 25.003-102.016 64.085-133.291-18.415-55.842-48.132-107.302-87.296-151.168-23.834 9.344-49.468 13.193-74.995 11.264-25.532-1.924-50.295-9.583-72.461-22.4-22.165-12.774-41.169-30.374-55.603-51.503-14.434-21.124-23.923-45.227-27.767-70.524-57.545-12.096-116.975-12.156-174.547-0.171-3.817 25.335-13.299 49.485-27.741 70.652-14.442 21.163-33.472 38.797-55.672 51.588-22.171 12.817-46.946 20.471-72.483 22.391s-51.178-1.941-75.016-11.298c-39.185 43.878-68.864 95.39-87.168 151.296 19.985 15.974 36.116 36.241 47.195 59.302s16.823 48.32 16.805 73.903c0.021 25.604-5.73 50.889-16.825 73.963-11.095 23.077-27.249 43.356-47.26 59.329 18.418 55.846 48.133 107.302 87.296 151.168 23.836-9.342 49.471-13.193 74.999-11.264s50.295 9.584 72.457 22.4c22.167 12.774 41.172 30.378 55.606 51.503s23.923 45.272 27.765 70.567zM512 320c33.95 0 66.509 13.487 90.513 37.491s37.487 56.563 37.487 90.509c0 33.95-13.483 66.505-37.487 90.511s-56.563 37.49-90.513 37.49c-33.946 0-66.505-13.486-90.508-37.49-24.005-24.006-37.49-56.561-37.49-90.511 0-33.946 13.486-66.505 37.49-90.509 24.003-24.004 56.562-37.491 90.508-37.491z" />
<glyph unicode="&#xe964;" glyph-name="settings" d="M142.509 234.667c-18.036 31.189-32.057 64.533-41.728 99.243 21.048 10.705 38.724 27.025 51.073 47.151s18.89 43.277 18.899 66.893c0.009 23.612-6.515 46.767-18.849 66.906-12.334 20.136-29.998 36.468-51.038 47.189 19.287 69.74 56.010 133.421 106.709 185.045 19.801-12.873 42.778-20.017 66.388-20.641s46.932 5.297 67.386 17.107c20.454 11.81 37.24 29.049 48.503 49.809s16.562 44.231 15.312 67.816c70.065 18.107 143.584 18.077 213.634-0.085-1.242-23.584 4.070-47.052 15.339-67.806 11.273-20.754 28.066-37.985 48.525-49.786s43.78-17.712 67.388-17.079c23.612 0.633 46.583 7.785 66.381 20.666 24.704-25.173 46.635-53.803 65.067-85.76 18.475-31.957 32.299-65.28 41.728-99.243-21.047-10.705-38.724-27.024-51.076-47.151-12.348-20.126-18.889-43.277-18.897-66.893-0.009-23.612 6.515-46.771 18.85-66.906 12.331-20.139 29.995-36.467 51.038-47.189-19.29-69.739-56.013-133.423-106.709-185.045-19.802 12.873-42.782 20.019-66.389 20.642-23.612 0.623-46.933-5.299-67.388-17.109-20.45-11.81-37.239-29.047-48.503-49.809-11.26-20.757-16.559-44.228-15.309-67.814-70.063-18.108-143.586-18.078-213.634 0.085 1.239 23.586-4.070 47.053-15.342 67.806s-28.065 37.986-48.523 49.788c-20.457 11.797-43.781 17.711-67.389 17.075-23.609-0.631-46.582-7.782-66.378-20.663-25.216 25.728-47.078 54.545-65.067 85.76zM384.003 226.304c45.467-26.223 79.652-68.309 96.002-118.187 21.291-2.005 42.667-2.048 63.957-0.043 16.358 49.882 50.56 91.972 96.043 118.187 45.449 26.295 99.008 34.88 150.4 24.107 12.373 17.408 23.040 35.968 31.915 55.381-35.012 39.108-54.353 89.762-54.315 142.251 0 53.76 20.053 103.978 54.315 142.25-8.939 19.407-19.652 37.946-32 55.381-51.362-10.765-104.883-2.196-150.315 24.064-45.47 26.224-79.654 68.31-96 118.187-21.291 2.005-42.667 2.048-63.957 0.043-16.358-49.883-50.56-91.971-96.044-118.187-45.449-26.296-99.009-34.881-150.4-24.107-12.349-17.42-23.034-35.962-31.915-55.381 35.011-39.107 54.352-89.762 54.315-142.25 0-53.76-20.053-103.979-54.315-142.251 8.937-19.409 19.65-37.948 32-55.381 51.359 10.765 104.884 2.197 150.315-24.064zM512.004 320c-33.95 0-66.509 13.487-90.511 37.491-24.005 24.004-37.49 56.559-37.49 90.509 0 33.946 13.486 66.505 37.49 90.509 24.003 24.005 56.561 37.49 90.511 37.49 33.946 0 66.505-13.486 90.509-37.49s37.491-56.564 37.491-90.509c0-33.95-13.487-66.505-37.491-90.509s-56.563-37.491-90.509-37.491zM512.004 405.333c11.315 0 22.165 4.497 30.17 12.497 8 8 12.497 18.854 12.497 30.17s-4.497 22.17-12.497 30.17c-8.004 8-18.854 12.497-30.17 12.497-11.319 0-22.17-4.497-30.17-12.497-8.004-8-12.497-18.854-12.497-30.17s4.493-22.17 12.497-30.17c8-8 18.85-12.497 30.17-12.497z" />
<glyph unicode="&#xe965;" glyph-name="shield-star" d="M213.333 763.563v-391.893c0-28.096 6.936-55.753 20.192-80.525 13.256-24.768 32.422-45.884 55.797-61.47l222.677-148.48 222.677 148.48c23.369 15.582 42.53 36.689 55.787 61.453 13.257 24.759 20.194 52.412 20.203 80.499v391.936l-298.667 66.304-298.667-66.304zM161.408 839.424l350.592 77.909 350.592-77.909c9.476-2.106 17.95-7.38 24.021-14.95 6.076-7.571 9.387-16.986 9.387-26.692v-426.112c-0.004-42.142-10.411-83.635-30.298-120.789s-48.64-68.826-83.708-92.203l-269.995-180.011-269.995 180.011c-35.060 23.373-63.81 55.036-83.697 92.181-19.887 37.15-30.298 78.63-30.308 120.768v426.155c0.002 9.706 3.313 19.121 9.386 26.692s14.547 12.844 24.022 14.95zM512 384l-125.397-65.92 23.936 139.605-101.419 98.901 140.203 20.395 62.677 127.019 62.72-127.019 140.16-20.395-101.419-98.901 23.893-139.605-125.355 65.92z" />
<glyph unicode="&#xe966;" glyph-name="snowy" d="M554.667 265.899l83.797 48.384 42.667-73.899-83.797-48.384 83.797-48.384-42.667-73.899-83.797 48.384v-96.768h-85.333v96.768l-83.796-48.384-42.667 73.899 83.796 48.384-83.796 48.384 42.667 73.899 83.796-48.384v96.768h85.333v-96.768zM725.333 192v85.333h21.333c24.623 0.004 48.858 6.093 70.558 17.728 21.696 11.635 40.179 28.459 53.803 48.964 13.628 20.506 21.969 44.062 24.29 68.574 2.317 24.512-1.459 49.216-10.995 71.915-9.536 22.694-24.538 42.684-43.669 58.183-19.127 15.499-41.796 26.027-65.975 30.648-24.183 4.621-49.135 3.191-72.631-4.162s-44.809-20.402-62.046-37.984v2.133c-0.017 46.928-12.932 92.95-37.338 133.035-24.401 40.084-59.358 72.689-101.039 94.252s-88.489 31.252-135.306 28.010c-46.817-3.242-91.842-19.29-130.155-46.391s-68.439-64.213-87.085-107.279c-18.647-43.066-25.097-90.428-18.645-136.911 6.452-46.485 25.556-90.3 55.227-126.66s68.764-63.863 113.009-79.505v-89.131c-56.588 14.643-108.468 43.571-150.669 84.015-42.201 40.448-73.308 91.051-90.342 146.965s-19.422 115.269-6.938 172.372c12.484 57.103 39.424 110.044 78.238 153.749s88.201 76.711 143.429 95.855c55.229 19.144 114.448 23.784 171.986 13.476 57.536-10.308 111.458-35.219 156.608-72.346 45.146-37.127 80-85.225 101.227-139.688 32.090 6.14 65.105 5.512 96.934-1.844s61.777-21.276 87.915-40.87c26.142-19.595 47.902-44.431 63.893-72.92 15.987-28.489 25.852-60.003 28.962-92.523 3.106-32.521-0.61-65.335-10.91-96.337-10.304-31.002-26.97-59.511-48.922-83.703-21.956-24.192-48.721-43.529-78.583-56.781s-62.161-20.122-94.831-20.173h-21.333z" />
<glyph unicode="&#xe967;" glyph-name="steering-fill" d="M930.138 362.624c-17.673-86.302-61.598-165.026-125.76-225.382-64.166-60.361-145.425-99.401-232.64-111.77v86.4c64.418 11.49 124.181 41.229 172.194 85.687 48.013 44.454 82.253 101.76 98.654 165.107l87.552-0.043zM181.422 362.624c16.223-62.613 49.88-119.339 97.062-163.584 47.182-44.241 105.95-74.189 169.478-86.357v-86.613c-86.362 13.158-166.611 52.484-229.927 112.67-63.315 60.19-106.652 138.342-124.165 223.927l87.552-0.043zM768.004 490.667v-85.333h-42.667c-43.789 0-85.901-16.828-117.623-47.006-31.727-30.178-50.641-71.394-52.83-115.127l-0.213-8.533v-42.667h-85.333v42.667c0 43.785-16.832 85.897-47.008 117.623-30.178 31.727-71.395 50.641-115.127 52.83l-8.533 0.213h-42.667v85.333h512.001zM512.004 874.667c221.227 0 403.157-168.405 424.533-384h-85.845c-10.415 82.479-50.564 158.324-112.922 213.304s-142.635 85.316-225.766 85.316c-83.136 0-163.412-30.336-225.769-85.316s-102.509-130.825-112.921-213.304h-85.888c21.419 215.595 203.349 384 424.577 384z" />
<glyph unicode="&#xe968;" glyph-name="team" d="M512 490.667c56.58 0 110.844-22.477 150.848-62.485 40.009-40.004 62.485-94.268 62.485-150.848v-256h-85.333v256c0 32.649-12.471 64.064-34.871 87.821-22.396 23.753-53.026 38.050-85.619 39.966l-7.509 0.213c-32.649 0-64.064-12.471-87.819-34.871-23.755-22.396-38.052-53.026-39.968-85.619l-0.213-7.509v-256h-85.333v256c0 56.58 22.476 110.844 62.484 150.848 40.008 40.009 94.269 62.485 150.849 62.485zM234.667 362.667c11.904 0 23.467-1.408 34.56-4.011-7.295-21.717-11.615-44.322-12.843-67.2l-0.384-14.123v-3.669c-4.905 1.754-10.006 2.901-15.189 3.413l-6.144 0.256c-15.91 0-31.249-5.926-43.026-16.623s-19.148-25.395-20.675-41.233l-0.299-6.144v-192h-85.333v192c0 39.607 15.733 77.589 43.739 105.596s65.989 43.738 105.594 43.738zM789.333 362.667c39.607 0 77.589-15.731 105.596-43.738s43.738-65.988 43.738-105.596v-192h-85.333v192c0 15.91-5.926 31.249-16.623 43.025s-25.395 19.149-41.233 20.676l-6.144 0.299c-7.467 0-14.635-1.28-21.333-3.627v3.627c0 28.416-4.608 55.723-13.184 81.237 11.051 2.688 22.613 4.096 34.517 4.096zM234.667 618.667c28.29 0 55.421-11.238 75.425-31.242s31.242-47.135 31.242-75.425c0-28.288-11.238-55.42-31.242-75.426-20.004-20.002-47.135-31.241-75.425-31.241s-55.421 11.238-75.425 31.241c-20.004 20.006-31.242 47.138-31.242 75.426 0 28.29 11.238 55.421 31.242 75.425s47.135 31.242 75.425 31.242zM789.333 618.667c28.288 0 55.42-11.238 75.426-31.242 20.002-20.004 31.241-47.135 31.241-75.425 0-28.288-11.238-55.42-31.241-75.426-20.006-20.002-47.138-31.241-75.426-31.241s-55.42 11.238-75.426 31.241c-20.002 20.006-31.241 47.138-31.241 75.426 0 28.29 11.238 55.421 31.241 75.425 20.006 20.004 47.138 31.242 75.426 31.242zM234.667 533.333c-5.658 0-11.084-2.249-15.085-6.246-4.001-4.002-6.249-9.429-6.249-15.087s2.248-11.085 6.249-15.087c4-3.998 9.427-6.246 15.085-6.246s11.084 2.249 15.085 6.246c4.001 4.002 6.249 9.429 6.249 15.087s-2.248 11.085-6.249 15.087c-4 3.998-9.427 6.246-15.085 6.246zM789.333 533.333c-5.658 0-11.085-2.249-15.087-6.246-3.998-4.002-6.246-9.429-6.246-15.087s2.249-11.085 6.246-15.087c4.002-3.998 9.429-6.246 15.087-6.246s11.085 2.249 15.087 6.246c3.998 4.002 6.246 9.429 6.246 15.087s-2.249 11.085-6.246 15.087c-4.002 3.998-9.429 6.246-15.087 6.246zM512 874.667c45.265 0 88.674-17.981 120.678-49.987 32.009-32.006 49.988-75.416 49.988-120.68s-17.98-88.673-49.988-120.68c-32.004-32.006-75.413-49.987-120.678-49.987s-88.673 17.981-120.68 49.987c-32.006 32.006-49.987 75.416-49.987 120.68s17.981 88.673 49.987 120.68c32.006 32.006 75.415 49.987 120.68 49.987zM512 789.333c-22.63 0-44.335-8.99-60.339-24.994s-24.994-37.708-24.994-60.34c0-22.632 8.99-44.337 24.994-60.34s37.709-24.994 60.339-24.994c22.63 0 44.335 8.99 60.339 24.994s24.994 37.708 24.994 60.34c0 22.632-8.99 44.337-24.994 60.34s-37.709 24.994-60.339 24.994z" />
<glyph unicode="&#xe969;" glyph-name="thumb-down-fill" d="M938.667 320h-128v512h128c11.315 0 22.17-4.495 30.17-12.497s12.497-18.854 12.497-30.17v-426.667c0-11.315-4.497-22.17-12.497-30.17s-18.854-12.497-30.17-12.497zM712.832 264.832l-273.067-273.067c-3.631-3.639-8.452-5.845-13.577-6.217-5.127-0.367-10.214 1.126-14.327 4.211l-36.395 27.307c-10.108 7.586-17.743 18.001-21.941 29.922s-4.774 24.815-1.653 37.065l49.195 193.28h-273.067c-22.632 0-44.337 8.99-60.34 24.994s-24.994 37.709-24.994 60.339v89.771c-0.011 11.153 2.163 22.195 6.4 32.512l132.096 320.597c3.212 7.819 8.674 14.507 15.693 19.217s15.279 7.228 23.731 7.237h462.080c11.315 0 22.17-4.495 30.17-12.497s12.497-18.854 12.497-30.17v-494.336c-0.004-11.315-4.497-22.165-12.501-30.165z" />
<glyph unicode="&#xe96a;" glyph-name="thumb-down" d="M401.067 277.333h-273.067c-22.632 0-44.337 8.99-60.34 24.994s-24.994 37.709-24.994 60.339v89.771c-0.011 11.153 2.163 22.195 6.4 32.512l132.096 320.597c3.212 7.819 8.674 14.507 15.693 19.217s15.279 7.228 23.731 7.237h718.080c11.315 0 22.17-4.495 30.17-12.497s12.497-18.854 12.497-30.17v-426.667c0-11.315-4.497-22.17-12.497-30.17s-18.854-12.497-30.17-12.497h-148.565c-6.831 0-13.564-1.638-19.627-4.779-6.067-3.14-11.29-7.689-15.232-13.269l-232.661-329.643c-2.94-4.169-7.279-7.142-12.224-8.388-4.949-1.246-10.176-0.674-14.741 1.604l-77.397 38.741c-21.781 10.889-39.182 28.898-49.311 51.042s-12.376 47.087-6.369 70.686l38.528 151.339zM725.333 387.755v358.912h-476.16l-121.173-294.229v-89.771h273.067c12.996 0 25.822-2.974 37.495-8.683 11.674-5.713 21.888-14.016 29.862-24.277 7.979-10.261 13.504-22.208 16.162-34.931 2.654-12.719 2.372-25.882-0.832-38.477l-38.528-151.381c-1.207-4.723-0.759-9.715 1.267-14.148s5.508-8.038 9.869-10.214l28.203-14.080 200.96 284.672c10.667 15.104 24.32 27.477 39.808 36.608zM810.667 405.333h85.333v341.333h-85.333v-341.333z" />
<glyph unicode="&#xe96b;" glyph-name="thumb-up-fill" d="M85.333 576h128v-512h-128c-11.316 0-22.168 4.497-30.17 12.497s-12.497 18.854-12.497 30.17v426.667c0 11.316 4.495 22.168 12.497 30.17s18.854 12.497 30.17 12.497zM311.168 631.168l273.067 273.067c3.631 3.64 8.452 5.847 13.577 6.215 5.129 0.368 10.214-1.126 14.327-4.21l36.395-27.307c10.108-7.588 17.741-17.999 21.943-29.92 4.198-11.921 4.774-24.818 1.651-37.066l-49.195-193.28h273.067c22.63 0 44.335-8.99 60.339-24.994s24.994-37.708 24.994-60.34v-89.771c0.013-11.153-2.163-22.195-6.4-32.512l-132.053-320.64c-3.221-7.817-8.691-14.502-15.718-19.204s-15.292-7.211-23.748-7.206h-462.080c-11.316 0-22.168 4.497-30.17 12.497s-12.497 18.854-12.497 30.17v494.336c0.003 11.315 4.499 22.166 12.501 30.165z" />
<glyph unicode="&#xe96c;" glyph-name="thumb-u" d="M622.933 618.665h273.067c22.63 0 44.335-8.99 60.339-24.993s24.994-37.708 24.994-60.339v-89.771c0.013-11.153-2.163-22.199-6.4-32.512l-132.053-320.64c-3.221-7.817-8.691-14.502-15.718-19.204s-15.292-7.211-23.748-7.206h-718.080c-11.316 0-22.168 4.493-30.17 12.497-8.001 8-12.497 18.854-12.497 30.17v426.667c0 11.315 4.495 22.167 12.497 30.169s18.854 12.497 30.17 12.497h148.565c6.831-0.002 13.562 1.637 19.628 4.777s11.289 7.692 15.231 13.271l232.661 329.686c2.94 4.168 7.279 7.144 12.224 8.389 4.949 1.245 10.176 0.675 14.741-1.605l77.397-38.699c21.781-10.887 39.181-28.899 49.31-51.043s12.378-47.087 6.37-70.685l-38.528-151.424zM298.667 508.245v-358.912h476.16l121.173 294.229v89.771h-273.067c-12.996 0.001-25.822 2.971-37.495 8.684s-21.888 14.015-29.862 24.276c-7.979 10.26-13.504 22.208-16.162 34.929-2.654 12.722-2.372 25.882 0.832 38.478l38.528 151.381c1.207 4.722 0.759 9.715-1.267 14.147s-5.508 8.038-9.869 10.215l-28.203 14.080-200.96-284.672c-10.667-15.103-24.32-27.476-39.808-36.607zM213.333 490.667h-85.333v-341.333h85.333v341.333z" />
<glyph unicode="&#xe96d;" glyph-name="time-fill" d="M512 21.333c-235.648 0-426.667 191.019-426.667 426.667s191.019 426.667 426.667 426.667c235.648 0 426.667-191.019 426.667-426.667s-191.019-426.667-426.667-426.667zM554.667 448v213.333h-85.333v-298.667h256v85.333h-170.667z" />
<glyph unicode="&#xe96e;" glyph-name="time" d="M512 21.333c-235.648 0-426.667 191.019-426.667 426.667s191.019 426.667 426.667 426.667c235.648 0 426.667-191.019 426.667-426.667s-191.019-426.667-426.667-426.667zM512 106.667c90.526 0 177.348 35.964 241.361 99.972 64.009 64.013 99.972 150.835 99.972 241.361 0 90.527-35.964 177.347-99.972 241.359-64.013 64.013-150.835 99.974-241.361 99.974-90.527 0-177.347-35.962-241.359-99.974s-99.974-150.832-99.974-241.359c0-90.526 35.962-177.348 99.974-241.361 64.012-64.009 150.832-99.972 241.359-99.972zM554.667 448h170.667v-85.333h-256v298.667h85.333v-213.333z" />
<glyph unicode="&#xe96f;" glyph-name="tools" d="M227.415 820.436c28.46 10.156 59.331 11.438 88.536 3.678s55.368-24.198 75.033-47.14c19.665-22.943 31.908-51.313 35.11-81.36s-2.787-60.36-17.175-86.932l456.916-456.959-60.331-60.331-456.959 456.959c-26.578-14.332-56.875-20.274-86.898-17.044-30.023 3.229-58.363 15.479-81.285 35.135s-39.351 45.797-47.122 74.976c-7.77 29.179-6.518 60.028 3.593 88.481l95.445-95.445c5.904-6.112 12.966-10.988 20.774-14.342s16.207-5.12 24.704-5.193c8.497-0.074 16.925 1.545 24.791 4.763s15.011 7.97 21.020 13.979c6.009 6.009 10.761 13.155 13.979 21.020s4.837 16.293 4.763 24.791c-0.074 8.498-1.839 16.896-5.193 24.704s-8.23 14.87-14.342 20.774l-95.36 95.488zM669.739 740.052l135.765 75.435 60.331-60.331-75.435-135.765-75.435-15.104-90.453-90.495-60.373 60.33 90.496 90.496 15.104 75.435zM383.105 393.088l60.329-60.331-226.26-226.261c-7.693-7.714-18.045-12.194-28.935-12.523-10.89-0.324-21.492 3.529-29.633 10.769s-13.203 17.318-14.15 28.173c-0.947 10.854 2.295 21.658 9.059 30.199l3.328 3.712 226.261 226.261z" />
<glyph unicode="&#xe970;" glyph-name="upload" d="M128 149.333h768v-85.333h-768v85.333zM554.667 711.339v-476.672h-85.333v476.672l-259.029-259.072-60.331 60.331 362.027 362.069 362.027-362.027-60.331-60.331-259.029 259.029z" />
<glyph unicode="&#xe971;" glyph-name="user-3" d="M853.333 21.333h-85.333v85.333c0 33.946-13.487 66.505-37.491 90.509s-56.563 37.491-90.509 37.491h-256c-33.948 0-66.505-13.487-90.51-37.491s-37.49-56.563-37.49-90.509v-85.333h-85.333v85.333c0 56.58 22.476 110.844 62.484 150.848 40.008 40.009 94.27 62.485 150.849 62.485h256c56.58 0 110.844-22.477 150.848-62.485 40.009-40.004 62.485-94.268 62.485-150.848v-85.333zM512 405.333c-33.617 0-66.906 6.622-97.967 19.486-31.059 12.868-59.281 31.723-83.052 55.497-23.772 23.77-42.629 51.989-55.494 83.051-12.865 31.059-19.487 64.349-19.487 97.967s6.621 66.908 19.487 97.967c12.865 31.059 31.722 59.281 55.494 83.052s51.993 42.629 83.052 55.494c31.061 12.865 64.35 19.487 97.967 19.487 67.895 0 133.009-26.971 181.018-74.981 48.013-48.009 74.982-113.124 74.982-181.019s-26.97-133.009-74.982-181.018c-48.009-48.013-113.122-74.982-181.018-74.982zM512 490.667c45.265 0 88.674 17.98 120.678 49.987 32.009 32.006 49.988 75.416 49.988 120.68s-17.98 88.673-49.988 120.68c-32.004 32.006-75.413 49.987-120.678 49.987s-88.673-17.981-120.68-49.987c-32.006-32.006-49.987-75.416-49.987-120.68s17.981-88.673 49.987-120.68c32.006-32.007 75.415-49.987 120.68-49.987z" />
<glyph unicode="&#xe972;" glyph-name="user" d="M170.667 21.333c0 90.526 35.962 177.348 99.974 241.361 64.012 64.009 150.832 99.972 241.359 99.972 90.526 0 177.348-35.964 241.361-99.972 64.009-64.013 99.972-150.835 99.972-241.361h-85.333c0 67.895-26.97 133.009-74.982 181.018-48.009 48.013-113.122 74.982-181.018 74.982s-133.010-26.97-181.019-74.982c-48.009-48.009-74.981-113.122-74.981-181.018h-85.333zM512 405.333c-141.44 0-256 114.56-256 256s114.56 256 256 256c141.44 0 256-114.56 256-256s-114.56-256-256-256zM512 490.667c94.293 0 170.667 76.373 170.667 170.667s-76.373 170.667-170.667 170.667c-94.293 0-170.667-76.373-170.667-170.667s76.373-170.667 170.667-170.667z" />
<glyph unicode="&#xe973;" glyph-name="video-add" d="M682.667 789.333c23.552 0 42.667-19.115 42.667-42.667v-179.2l222.421 155.733c9.643 6.741 22.955 4.395 29.739-5.291 2.475-3.584 3.84-7.851 3.84-12.203v-515.413c0-11.776-9.557-21.333-21.333-21.333-4.395 0-8.661 1.365-12.245 3.84l-222.421 155.733v-179.2c0-23.552-19.115-42.667-42.667-42.667h-597.333c-23.552 0-42.667 19.115-42.667 42.667v597.333c0 23.552 19.115 42.667 42.667 42.667h597.333zM640 704h-512v-512h512v512zM341.333 618.667h85.333v-128h128v-85.333h-128.043l0.043-128h-85.333l-0.043 128h-127.957v85.333h128v128zM896 582.784l-170.667-119.467v-30.635l170.667-119.467v269.568z" />
<glyph unicode="&#xe974;" glyph-name="vip-diamond" d="M207.916 832h608.169c6.733 0.001 13.372-1.591 19.371-4.646s11.191-7.487 15.147-12.932l163.115-224.256c2.901-3.99 4.331-8.862 4.041-13.786-0.286-4.924-2.274-9.596-5.619-13.222l-484.48-524.843c-3.836-4.147-9.165-6.605-14.814-6.831-5.645-0.222-11.153 1.805-15.309 5.636-0.299 0.256-162.132 175.573-485.673 526.037-3.345 3.625-5.33 8.297-5.618 13.222s1.14 9.796 4.039 13.786l163.115 224.256c3.959 5.446 9.15 9.877 15.149 12.932s12.636 4.647 19.369 4.646zM229.676 746.667l-119.467-164.267 401.791-435.2 401.792 435.2-119.467 164.267h-564.649z" />
</font>
</defs>
</svg>
