<?xml version="1.0" standalone="no"?>
<!DOCTYPE svg PUBLIC "-//W3C//DTD SVG 1.1//EN" "http://www.w3.org/Graphics/SVG/1.1/DTD/svg11.dtd" >
<svg xmlns="http://www.w3.org/2000/svg">
<metadata>Generated by IcoMoon</metadata>
<defs>
<font id="Wheels" horiz-adv-x="1024">
<font-face units-per-em="1024" ascent="960" descent="-64" />
<missing-glyph horiz-adv-x="1024" />
<glyph unicode="&#x20;" horiz-adv-x="512" d="" />
<glyph unicode="&#xe900;" glyph-name="account" d="M512-64c-282.777 0-512 229.223-512 512s229.223 512 512 512c282.777 0 512-229.223 512-512s-229.223-512-512-512zM256.665 127.693c72.476-57.943 162.545-89.441 255.335-89.293 100.864 0 193.177 36.455 264.551 96.87-33.347 34.217-73.211 61.394-117.248 79.933-44.032 18.54-91.336 28.057-139.11 27.996-49.531 0.056-98.534-10.183-143.899-30.065-45.365-19.886-86.102-48.983-119.627-85.442zM185.139 201.217c43.031 45.665 94.96 82.038 152.583 106.87s119.724 37.596 182.469 37.514c60.503 0.077 120.422-11.796 176.317-34.939 55.9-23.142 106.68-57.098 149.417-99.922 43.832 61.691 69.714 134.318 74.783 209.822 5.064 75.505-10.885 150.938-46.085 217.929s-88.268 122.923-153.318 161.587c-65.054 38.665-139.545 58.553-215.214 57.457s-149.552-23.134-213.457-63.667c-63.905-40.534-115.331-97.979-148.573-165.961s-47.002-143.846-39.75-219.171c7.25-75.33 35.228-147.123 80.828-207.518zM512 396.8c-54.318 0-106.408 21.576-144.816 59.986-38.407 38.405-59.984 90.496-59.984 144.813s21.577 106.408 59.984 144.816 90.498 59.984 144.816 59.984c54.318 0 106.409-21.577 144.813-59.984 38.411-38.407 59.986-90.499 59.986-144.816s-21.576-106.409-59.986-144.813c-38.405-38.411-90.496-59.986-144.813-59.986zM512 499.2c27.156 0 53.202 10.788 72.407 29.993s29.993 45.25 29.993 72.407c0 27.158-10.788 53.204-29.993 72.408s-45.251 29.993-72.407 29.993c-27.156 0-53.202-10.788-72.407-29.993s-29.993-45.25-29.993-72.408c0-27.158 10.788-53.202 29.993-72.407s45.251-29.993 72.407-29.993z" />
<glyph unicode="&#xe901;" glyph-name="add" d="M438.858 521.143v438.857h146.285v-438.857h438.857v-146.285h-438.857v-438.857h-146.285v438.857h-438.857v146.285h438.857z" />
<glyph unicode="&#xe902;" glyph-name="shop" d="M51.199 550.4h-51.2v307.045c0 28.364 23.296 51.354 50.79 51.354h922.416c6.722 0.014 13.379-1.309 19.584-3.892s11.838-6.374 16.564-11.153c4.726-4.78 8.453-10.451 10.967-16.684s3.763-12.905 3.676-19.626v-307.045h-51.2v-512.049c0.020-6.697-1.28-13.332-3.824-19.528s-6.282-11.827-11.003-16.578c-4.721-4.746-10.332-8.52-16.512-11.1-6.18-2.586-12.805-3.922-19.502-3.942h-819.914c-6.697 0.020-13.325 1.357-19.504 3.942-6.179 2.58-11.789 6.354-16.511 11.1-4.721 4.751-8.46 10.384-11.004 16.578s-3.844 12.83-3.823 19.528v512.049zM870.396 550.4h-716.797v-460.798h716.797v460.798zM102.399 806.4v-153.599h819.197v153.599h-819.197zM358.398 448.001h307.199v-102.399h-307.199v102.399z" />
<glyph unicode="&#xe903;" glyph-name="arrow-down" d="M554.667 269.995l228.864 228.864 60.331-60.331-331.861-331.861-331.863 331.861 60.331 60.331 228.865-228.864v519.339h85.333v-519.339z" />
<glyph unicode="&#xe904;" glyph-name="arrow-down-s" d="M511.998 362.64l398.241 398.243 113.761-113.761-512.002-512.004-511.998 512.004 113.761 113.761 398.239-398.243z" />
<glyph unicode="&#xe905;" glyph-name="arrow-drop-down" d="M512.004 106.686l-512.004 512.001 170.746 170.628 341.255-341.374 341.252 341.374 170.746-170.628-512.001-512.001z" />
<glyph unicode="&#xe906;" glyph-name="arrow-drop-left" d="M511.941 447.997l341.373-341.251-170.627-170.746-512 512 512 512 170.627-170.746-341.373-341.254z" />
<glyph unicode="&#xe907;" glyph-name="arrow-drop-right" d="M512.058 448l-341.37 341.254 170.624 170.746 512-512-512-512-170.624 170.746 341.37 341.251z" />
<glyph unicode="&#xe908;" glyph-name="arrow-drop-up" d="M511.998 448.059l-341.253-341.372-170.745 170.627 512.001 511.999 511.999-511.999-170.745-170.627-341.25 341.372z" />
<glyph unicode="&#xe909;" glyph-name="arrow-go-back" d="M220.867 654.597l130.169-130.169-72.578-72.578-254.075 254.075 254.075 254.075 72.578-72.578-130.169-130.169h368.125c108.903 0 213.35-43.262 290.358-120.269 77.003-77.007 120.267-181.454 120.267-290.357s-43.265-213.35-120.267-290.354c-77.008-77.008-181.455-120.273-290.358-120.273h-461.954v102.656h461.954c81.678 0 160.010 32.45 217.766 90.204 57.76 57.755 90.204 136.086 90.204 217.766s-32.445 160.012-90.204 217.768c-57.755 57.755-136.086 90.202-217.766 90.202h-368.125z" />
<glyph unicode="&#xe90a;" glyph-name="arrow-go-forward" d="M803.133 654.596h-368.125c-81.678 0-160.012-32.446-217.767-90.202s-90.202-136.089-90.202-217.768c0-81.678 32.446-160.010 90.202-217.766s136.089-90.204 217.767-90.204h461.954v-102.656h-461.954c-108.904 0-213.349 43.265-290.356 120.273-77.008 77.003-120.269 181.45-120.269 290.354s43.262 213.349 120.269 290.357c77.007 77.007 181.452 120.269 290.356 120.269h368.125l-130.169 130.169 72.578 72.578 254.075-254.075-254.075-254.075-72.578 72.578 130.169 130.169z" />
<glyph unicode="&#xe90b;" glyph-name="arrow-left-down" d="M170.368 226.819l733.181 733.181 120.451-120.451-733.181-733.181h646.207v-170.368h-937.026v937.026h170.368v-646.207z" />
<glyph unicode="&#xe90c;" glyph-name="arrow-left" d="M244.992 511.999h779.008v-127.999h-779.008l343.296-343.296-90.496-90.496-497.791 497.791 497.791 497.793 90.496-90.496-343.296-343.297z" />
<glyph unicode="&#xe90d;" glyph-name="arrow-left-s" d="M426.64 448l398.24-398.24-113.76-113.76-512 512 512 512 113.76-113.76-398.24-398.24z" />
<glyph unicode="&#xe90e;" glyph-name="arrow-left-up" d="M290.819 789.632l733.181-733.181-120.451-120.451-733.181 733.181v-646.207h-170.368v937.026h937.026v-170.368h-646.207z" />
<glyph unicode="&#xe90f;" glyph-name="arrow-right-down" d="M733.265 106.367l-733.264 733.182 120.451 120.451 733.18-733.096v646.125h170.368v-937.028h-937.026v170.368h646.292z" />
<glyph unicode="&#xe910;" glyph-name="arrow-right" d="M779.008 511.999l-343.296 343.297 90.496 90.496 497.791-497.793-497.791-497.791-90.496 90.496 343.296 343.296h-779.008v127.999h779.008z" />
<glyph unicode="&#xe911;" glyph-name="arrow-right-s" d="M597.359 448l-398.238 398.24 113.76 113.76 511.998-512-511.998-512-113.76 113.76 398.238 398.24z" />
<glyph unicode="&#xe912;" glyph-name="arrow-right-up" d="M853.632 669.181l-733.181-733.181-120.451 120.451 733.095 733.181h-646.121v170.368h937.026v-937.026h-170.368v646.207z" />
<glyph unicode="&#xe913;" glyph-name="arrow-up-down" d="M509.423 656.401l-72.761-72.761-130.493 130.496v-677.793h-102.914v677.793l-130.444-130.496-72.811 72.761 254.713 254.713 254.71-254.713zM1023.999 239.599l-254.718-254.713-254.713 254.713 72.761 72.761 130.546-130.496-0.052 677.793h102.914v-677.793l130.496 130.496 72.766-72.761z" />
<glyph unicode="&#xe914;" glyph-name="arrow-up" d="M575.999 715.008v-779.008h-127.999v779.008l-343.297-343.296-90.496 90.496 497.794 497.791 497.791-497.791-90.496-90.496-343.296 343.296z" />
<glyph unicode="&#xe915;" glyph-name="arrow-up-s" d="M512 533.36l-398.239-398.241-113.761 113.761 511.998 512.002 512.002-512.002-113.761-113.761-398.241 398.241z" />
<glyph unicode="&#xe916;" glyph-name="attachment" d="M681.501 655.893l-304.669-304.722c-5.145-4.972-9.248-10.913-12.072-17.486s-4.309-13.639-4.371-20.792c-0.062-7.153 1.3-14.247 4.010-20.868s6.708-12.631 11.765-17.69c5.058-5.058 11.072-9.061 17.691-11.764 6.621-2.709 13.713-4.073 20.865-4.013 7.153 0.064 14.221 1.552 20.792 4.375s12.519 6.927 17.486 12.072l304.722 304.668c30.311 30.309 47.337 71.416 47.337 114.277s-17.027 83.97-47.337 114.277c-30.311 30.309-71.416 47.335-114.277 47.335s-83.967-17.027-114.277-47.335l-304.722-304.722c-25.529-24.891-45.86-54.609-59.816-87.42s-21.257-68.071-21.48-103.725c-0.223-35.654 6.636-71.001 20.178-103.984 13.543-32.988 33.5-62.954 58.715-88.164s55.185-45.167 88.171-58.704c32.986-13.536 68.333-20.394 103.988-20.162 35.658 0.226 70.913 7.536 103.724 21.493 32.81 13.962 62.518 34.297 87.409 59.83l304.722 304.669 76.168-76.168-304.722-304.722c-35.013-35.019-76.587-62.793-122.336-81.743s-94.783-28.705-144.303-28.705c-49.519 0-98.554 9.755-144.304 28.705s-87.319 46.724-122.335 81.743c-35.015 35.013-62.791 76.582-81.742 122.336-18.95 45.749-28.704 94.783-28.704 144.303s9.754 98.554 28.704 144.303c18.95 45.749 46.726 87.321 81.742 122.336l304.777 304.669c50.797 49.061 118.83 76.208 189.449 75.594s138.173-28.939 188.107-78.876c49.934-49.937 78.262-117.488 78.877-188.106s-26.535-138.652-75.596-189.449l-304.669-304.831c-15.012-15.007-32.831-26.911-52.439-35.029-19.613-8.123-40.631-12.303-61.858-12.298-21.225 0-42.243 4.185-61.852 12.308-19.609 8.128-37.425 20.033-52.433 35.046s-26.911 32.831-35.032 52.439c-8.12 19.613-12.298 40.631-12.297 61.855 0.003 21.229 4.186 42.247 12.311 61.855s20.033 37.427 35.044 52.434l304.722 304.722 76.168-76.168z" />
<glyph unicode="&#xe917;" glyph-name="attachment-big" d="M588.798 371.2v281.6c0 54.317-21.576 106.408-59.986 144.816-38.405 38.407-90.496 59.984-144.813 59.984s-106.408-21.577-144.816-59.984-59.984-90.499-59.984-144.816v-281.6c0-88.264 35.063-172.913 97.475-235.326s147.061-97.475 235.325-97.475c88.264 0 172.913 35.062 235.326 97.475s97.475 147.061 97.475 235.326v486.399h102.4v-486.399c0-115.42-45.85-226.115-127.467-307.733s-192.312-127.467-307.733-127.467c-115.42 0-226.117 45.85-307.733 127.467s-127.467 192.312-127.467 307.733v281.6c0 81.474 32.365 159.612 89.977 217.223s135.749 89.977 217.223 89.977c81.474 0 159.611-32.365 217.221-89.977 57.616-57.611 89.978-135.749 89.978-217.223v-281.6c0-47.528-18.877-93.107-52.486-126.715s-79.186-52.486-126.715-52.486c-47.528 0-93.107 18.877-126.715 52.486-33.605 33.607-52.486 79.186-52.486 126.715v281.6h102.4v-281.6c0-20.368 8.089-39.905 22.492-54.308s33.941-22.492 54.308-22.492c20.368 0 39.905 8.089 54.308 22.492s22.492 33.941 22.492 54.308z" />
<glyph unicode="&#xe918;" glyph-name="award" d="M748.863 285.232v-325.54c0-4.192-1.108-8.309-3.221-11.928-2.108-3.62-5.139-6.618-8.788-8.684-3.643-2.065-7.774-3.127-11.967-3.079-4.188 0.052-8.29 1.212-11.886 3.369l-201 120.609-201-120.609c-3.598-2.155-7.704-3.316-11.899-3.369-4.195-0.048-8.327 1.018-11.974 3.089-3.647 2.075-6.679 5.078-8.786 8.702-2.106 3.628-3.211 7.75-3.202 11.948v325.446c-61.292 49.072-105.83 115.971-127.456 191.454-21.627 75.478-19.276 155.811 6.728 229.897s74.378 138.266 138.434 183.671c64.058 45.405 140.634 69.792 219.153 69.792s155.096-24.387 219.153-69.792c64.057-45.405 112.433-109.585 138.435-183.671s28.357-154.419 6.727-229.897c-21.625-75.483-66.159-142.381-127.455-191.454v0.048zM369.887 229.665v-144.484l142.116 85.27 142.116-85.27v144.484c-45.155-18.262-93.408-27.623-142.116-27.571-48.708-0.052-96.963 9.309-142.116 27.571zM512.003 296.838c75.383 0 147.677 29.944 200.981 83.251 53.308 53.304 83.251 125.597 83.251 200.98s-29.944 147.679-83.251 200.983c-53.304 53.304-125.597 83.249-200.981 83.249s-147.679-29.945-200.982-83.249c-53.304-53.304-83.25-125.6-83.25-200.983s29.945-147.677 83.25-200.98c53.304-53.308 125.6-83.251 200.982-83.251z" />
<glyph unicode="&#xe919;" glyph-name="bar-chart-box" d="M51.2 908.8h921.599c13.578 0 26.604-5.394 36.204-14.996s14.996-22.625 14.996-36.204v-819.2c0-13.578-5.396-26.604-14.996-36.204s-22.625-14.996-36.204-14.996h-921.599c-13.579 0-26.602 5.396-36.204 14.996s-14.996 22.625-14.996 36.204v819.2c0 13.579 5.394 26.602 14.996 36.204s22.625 14.996 36.204 14.996zM102.401 806.4v-716.799h819.2v716.799h-819.2zM256.001 396.8h102.4v-204.8h-102.4v204.8zM460.8 703.999h102.4v-512h-102.4v512zM665.6 550.4h102.4v-358.4h-102.4v358.4z" />
<glyph unicode="&#xe91a;" glyph-name="barricade" d="M198.713 49.777h626.575l-37.945 170.667h-550.684l-37.945-170.667zM941.852 49.777h82.148v-113.777h-1024v113.777h82.148l192.399 865.679c2.808 12.633 9.84 23.931 19.933 32.029s22.648 12.513 35.589 12.515h363.861c12.943-0.003 25.497-4.417 35.589-12.515s17.124-19.396 19.933-32.029l192.399-865.679zM261.916 334.223h500.167l-50.631 227.556h-398.905l-50.631-227.556zM337.807 675.556h348.388l-37.888 170.667h-272.612l-37.888-170.667z" />
<glyph unicode="&#xe91b;" glyph-name="bookmark-fill" d="M164.773 959.999h694.452c13.155 0 25.775-5.226 35.075-14.529s14.529-21.919 14.529-35.075v-949.564c0.005-4.434-1.175-8.79-3.427-12.614-2.252-3.819-5.482-6.97-9.365-9.117-3.88-2.147-8.264-3.215-12.699-3.090-4.429 0.119-8.75 1.429-12.505 3.79l-358.834 225.052-358.834-225.002c-3.752-2.357-8.066-3.666-12.495-3.79s-8.81 0.937-12.688 3.081c-3.88 2.143-7.113 5.283-9.366 9.097s-3.442 8.165-3.446 12.594v949.564c0 13.156 5.226 25.772 14.529 35.075s21.919 14.529 35.075 14.529z" />
<glyph unicode="&#xe91c;" glyph-name="bookmark-line" d="M164.773 959.999h694.452c13.155 0 25.775-5.226 35.075-14.529s14.529-21.919 14.529-35.075v-949.564c0.005-4.434-1.175-8.79-3.427-12.614-2.252-3.819-5.482-6.97-9.365-9.117-3.88-2.147-8.264-3.215-12.699-3.090-4.429 0.119-8.75 1.429-12.505 3.79l-358.834 225.052-358.834-225.002c-3.752-2.357-8.066-3.666-12.495-3.79s-8.81 0.937-12.688 3.081c-3.88 2.143-7.113 5.283-9.366 9.097s-3.442 8.165-3.446 12.594v949.564c0 13.156 5.226 25.772 14.529 35.075s21.919 14.529 35.075 14.529zM809.621 860.791h-595.245v-765.484l297.622 186.559 297.622-186.559v765.484z" />
<glyph unicode="&#xe91d;" glyph-name="book-mark" d="M51.201 115.201v691.199c0 40.738 16.183 79.806 44.988 108.612s67.874 44.988 108.612 44.988h716.799c13.578 0 26.604-5.394 36.204-14.996s14.996-22.625 14.996-36.204v-921.599c0-13.578-5.396-26.604-14.996-36.204s-22.625-14.996-36.204-14.996h-691.199c-47.527 0-93.107 18.877-126.713 52.486s-52.487 79.186-52.487 126.715zM870.401 38.401v153.6h-639.999c-20.369 0-39.904-8.089-54.306-22.492s-22.494-33.941-22.494-54.308c0-20.368 8.092-39.905 22.494-54.308s33.937-22.492 54.306-22.492h639.999zM409.601 857.599h-204.8c-13.579 0-26.602-5.394-36.204-14.996s-14.996-22.625-14.996-36.204v-529.254c23.996 11.398 50.234 17.291 76.8 17.255h639.999v563.199h-102.4v-409.599l-179.199 102.4-179.199-102.4v409.599z" />
<glyph unicode="&#xe91e;" glyph-name="check-double" d="M495.864 365.192l66.040-66.040 395.961 395.961 66.134-66.134-462.095-462.095-297.649 297.649 66.134 66.134 165.475-165.475zM495.957 497.459l231.608 231.656 65.947-65.947-231.608-231.656-65.947 65.947zM363.736 232.971l-66.087-66.087-297.649 297.649 66.134 66.134 66.087-66.087-0.047-0.047 231.562-231.562z" />
<glyph unicode="&#xe91f;" glyph-name="check" d="M383.992 255.973l554.63 554.691 85.378-85.319-640.009-640.009-383.991 383.994 85.319 85.319 298.674-298.675z" />
<glyph unicode="&#xe920;" glyph-name="close" d="M511.999 561.76l398.24 398.24 113.76-113.76-398.24-398.24 398.24-398.24-113.76-113.76-398.24 398.24-398.238-398.24-113.76 113.76 398.238 398.24-398.238 398.24 113.76 113.76 398.238-398.24z" />
<glyph unicode="&#xe921;" glyph-name="creative-commons-by" d="M512 960c282.777 0 512-229.223 512-512s-229.223-512-512-512c-282.777 0-512 229.223-512 512s229.223 512 512 512zM512 857.599c-108.632 0-212.816-43.154-289.631-119.969s-119.969-180.998-119.969-289.631c0-108.631 43.154-212.817 119.969-289.633 76.814-76.811 180.998-119.966 289.631-119.966 108.631 0 212.817 43.157 289.633 119.966 76.811 76.816 119.966 181.002 119.966 289.633s-43.157 212.816-119.966 289.631c-76.816 76.816-181.002 119.969-289.633 119.969zM614.4 550.4c13.578 0 26.604-5.396 36.204-14.996s14.996-22.625 14.996-36.204v-204.8h-76.8v-204.8h-153.6v204.8h-76.8v204.8c0 13.578 5.394 26.604 14.996 36.204s22.625 14.996 36.204 14.996h204.8zM512 806.4c27.156 0 53.202-10.788 72.407-29.993s29.993-45.25 29.993-72.408c0-27.158-10.788-53.204-29.993-72.408s-45.251-29.993-72.407-29.993c-27.156 0-53.202 10.788-72.407 29.993s-29.993 45.25-29.993 72.408c0 27.158 10.788 53.204 29.993 72.408s45.251 29.993 72.407 29.993z" />
<glyph unicode="&#xe922;" glyph-name="dashboard-2" d="M512 960c282.777 0 512-229.223 512-512s-229.223-512-512-512c-282.777 0-512 229.223-512 512s229.223 512 512 512zM512 857.599c-226.201 0-409.599-183.398-409.599-409.599s183.398-409.599 409.599-409.599c226.201 0 409.599 183.398 409.599 409.599s-183.398 409.599-409.599 409.599zM512 806.4c52.122 0 101.632-11.111 146.329-31.129l-80.026-79.974c-21.145 5.632-43.367 8.704-66.304 8.704-141.363 0-255.999-114.637-255.999-255.999 0-70.656 28.672-134.655 74.957-181.043l-72.397-72.397-7.987 8.243c-60.109 64.103-96.973 150.374-96.973 245.197 0 197.939 160.46 358.4 358.4 358.4zM839.27 594.279c19.968-44.646 31.129-94.208 31.129-146.279 0-98.97-40.141-188.569-104.96-253.44l-72.397 72.397c46.285 46.387 74.957 110.387 74.957 181.043 0 22.938-3.020 45.158-8.704 66.304l79.974 79.974zM729.19 737.638l72.448-72.397-190.669-190.771c2.252-8.448 3.431-17.305 3.431-26.471 0-56.576-45.824-102.4-102.4-102.4s-102.4 45.824-102.4 102.4c0 56.576 45.824 102.4 102.4 102.4 9.164 0 18.023-1.177 26.471-3.431l190.719 190.669z" />
<glyph unicode="&#xe923;" glyph-name="dashboard-3" d="M512 960c282.777 0 512-229.223 512-512s-229.223-512-512-512c-282.777 0-512 229.223-512 512s229.223 512 512 512zM512 857.599c-226.201 0-409.599-183.398-409.599-409.599s183.398-409.599 409.599-409.599c226.201 0 409.599 183.398 409.599 409.599s-183.398 409.599-409.599 409.599zM708.249 686.746c12.134 8.5 28.621 7.066 39.066-3.431 10.445-10.445 11.776-26.932 3.226-38.912-111.616-155.955-173.055-239.514-184.218-250.727-30.004-29.952-78.643-29.952-108.647 0-29.952 30.004-29.952 78.643 0 108.647 19.148 19.098 102.656 80.588 250.573 184.422zM793.6 499.2c28.262 0 51.2-22.938 51.2-51.2s-22.938-51.2-51.2-51.2c-28.262 0-51.2 22.938-51.2 51.2s22.938 51.2 51.2 51.2zM230.4 499.2c28.262 0 51.2-22.938 51.2-51.2s-22.938-51.2-51.2-51.2c-28.262 0-51.2 22.938-51.2 51.2s22.938 51.2 51.2 51.2zM349.082 683.315c19.968-19.968 19.968-52.378 0-72.397-19.968-19.968-52.429-19.968-72.397 0s-19.968 52.429 0 72.397c19.968 19.968 52.378 19.968 72.397 0zM512 780.799c28.262 0 51.2-22.938 51.2-51.2s-22.938-51.2-51.2-51.2c-28.262 0-51.2 22.938-51.2 51.2s22.938 51.2 51.2 51.2z" />
<glyph unicode="&#xe924;" glyph-name="delete-bin-2-fill" d="M102.401 652.8h819.2v-665.6c0-13.578-5.396-26.604-14.996-36.204s-22.625-14.996-36.204-14.996h-716.799c-13.579 0-26.602 5.396-36.204 14.996s-14.996 22.625-14.996 36.204v665.6zM256.001 806.4v102.4c0 13.579 5.394 26.602 14.996 36.204s22.625 14.996 36.204 14.996h409.599c13.578 0 26.604-5.394 36.204-14.996s14.996-22.625 14.996-36.204v-102.4h255.999v-102.4h-1023.999v102.4h255.999zM358.4 857.599v-51.2h307.2v51.2h-307.2zM358.4 448v-307.2h102.4v307.2h-102.4zM563.2 448v-307.2h102.4v307.2h-102.4z" />
<glyph unicode="&#xe925;" glyph-name="delete-bin-2" d="M102.401 652.8h819.2v-665.6c0-13.578-5.396-26.604-14.996-36.204s-22.625-14.996-36.204-14.996h-716.799c-13.579 0-26.602 5.396-36.204 14.996s-14.996 22.625-14.996 36.204v665.6zM204.8 550.4v-512h614.4v512h-614.4zM358.4 448h102.4v-307.2h-102.4v307.2zM563.2 448h102.4v-307.2h-102.4v307.2zM256.001 806.4v102.4c0 13.579 5.394 26.602 14.996 36.204s22.625 14.996 36.204 14.996h409.599c13.578 0 26.604-5.394 36.204-14.996s14.996-22.625 14.996-36.204v-102.4h255.999v-102.4h-1023.999v102.4h255.999zM358.4 857.599v-51.2h307.2v51.2h-307.2z" />
<glyph unicode="&#xe926;" glyph-name="delete-bin-fill" d="M768 755.2h255.999v-102.4h-102.4v-665.6c0-13.578-5.396-26.604-14.996-36.204s-22.625-14.996-36.204-14.996h-716.799c-13.579 0-26.602 5.396-36.204 14.996s-14.996 22.625-14.996 36.204v665.6h-102.4v102.4h255.999v153.6c0 13.579 5.394 26.602 14.996 36.204s22.625 14.996 36.204 14.996h409.599c13.578 0 26.604-5.394 36.204-14.996s14.996-22.625 14.996-36.204v-153.6zM358.401 499.2v-307.2h102.4v307.2h-102.4zM563.201 499.2v-307.2h102.4v307.2h-102.4zM358.401 857.599v-102.4h307.2v102.4h-307.2z" />
<glyph unicode="&#xe927;" glyph-name="delete-bin-line" d="M768 755.2h255.999v-102.4h-102.4v-665.6c0-13.578-5.396-26.604-14.996-36.204s-22.625-14.996-36.204-14.996h-716.799c-13.579 0-26.602 5.396-36.204 14.996s-14.996 22.625-14.996 36.204v665.6h-102.4v102.4h255.999v153.6c0 13.579 5.394 26.602 14.996 36.204s22.625 14.996 36.204 14.996h409.599c13.578 0 26.604-5.394 36.204-14.996s14.996-22.625 14.996-36.204v-153.6zM819.201 652.8h-614.4v-614.4h614.4v614.4zM358.401 499.2h102.4v-307.2h-102.4v307.2zM563.201 499.2h102.4v-307.2h-102.4v307.2zM358.401 857.599v-102.4h307.2v102.4h-307.2z" />
<glyph unicode="&#xe928;" glyph-name="download" d="M26.948 43.789h970.105v-107.789h-970.105v107.789zM565.895 357.888l327.194 327.249 76.208-76.208-457.297-457.35-457.297 457.297 76.208 76.261 327.194-327.141v602.004h107.789v-602.112z" />
<glyph unicode="&#xe929;" glyph-name="edit-box" d="M745.353 911.237l-108.359-108.359h-528.632v-758.516h758.516v528.631l108.359 108.359v-691.17c0-14.368-5.71-28.152-15.869-38.311s-23.942-15.869-38.311-15.869h-866.877c-14.369 0-28.15 5.71-38.311 15.869s-15.869 23.942-15.869 38.311v866.875c0 14.369 5.708 28.15 15.869 38.311s23.942 15.869 38.311 15.869h691.172zM947.336 959.999l76.664-76.719-498.020-498.020-76.501-0.163-0.108 76.773 497.966 498.128z" />
<glyph unicode="&#xe92a;" glyph-name="edit-fill" d="M268.086 141.099h-217.56v217.56l586.328 586.329c9.614 9.613 22.653 15.012 36.251 15.012s26.637-5.399 36.251-15.012l145.057-145.057c9.614-9.615 15.014-22.655 15.014-36.251s-5.399-26.636-15.014-36.251l-586.328-586.329zM50.526 38.549h922.948v-102.549h-922.948v102.549z" />
<glyph unicode="&#xe92b;" glyph-name="edit" d="M225.578 243.648l520.030 520.031-72.503 72.503-520.030-520.031v-72.503h72.503zM268.086 141.099h-217.56v217.56l586.328 586.329c9.614 9.613 22.653 15.012 36.251 15.012s26.637-5.399 36.251-15.012l145.057-145.057c9.614-9.615 15.014-22.655 15.014-36.251s-5.399-26.636-15.014-36.251l-586.328-586.329zM50.526 38.549h922.948v-102.549h-922.948v102.549z" />
<glyph unicode="&#xe92c;" glyph-name="eye-fill" d="M0 448c44.485 242.299 256.827 425.916 512.001 425.916 255.171 0 467.466-183.618 511.999-425.916-44.485-242.299-256.827-425.916-511.999-425.916-255.174 0-467.468 183.618-512.001 425.916zM512.001 211.38c62.752 0 122.938 24.931 167.314 69.306 44.376 44.371 69.306 104.558 69.306 167.314s-24.931 122.941-69.306 167.315c-44.376 44.375-104.562 69.305-167.314 69.305-62.756 0-122.943-24.929-167.317-69.305s-69.305-104.559-69.305-167.315c0-62.756 24.929-122.943 69.305-167.314 44.375-44.376 104.561-69.306 167.317-69.306zM512.001 306.028c-37.656 0-73.769 14.959-100.392 41.583-26.625 26.624-41.582 62.737-41.582 100.389s14.958 73.764 41.582 100.39c26.623 26.625 62.736 41.582 100.392 41.582 37.651 0 73.764-14.958 100.389-41.582s41.583-62.738 41.583-100.39c0-37.651-14.959-73.764-41.583-100.389s-62.737-41.583-100.389-41.583z" />
<glyph unicode="&#xe92d;" glyph-name="eye" d="M511.999 873.918c255.172 0 467.468-183.618 512.001-425.918-44.485-242.299-256.828-425.918-512.001-425.918s-467.468 183.618-511.999 425.918c44.485 242.299 256.828 425.918 511.999 425.918zM511.999 116.73c96.518 0.019 190.168 32.806 265.626 92.982 75.454 60.182 128.249 144.192 149.739 238.286-21.57 94.019-74.398 177.939-149.848 238.039s-169.056 92.827-265.517 92.827c-96.46 0-190.068-32.726-265.517-92.827s-128.277-144.020-149.845-238.039c21.49-94.094 74.284-178.105 149.74-238.286 75.457-60.177 169.108-92.963 265.624-92.982zM511.999 235.041c-56.482 0-110.646 22.436-150.584 62.374s-62.375 94.104-62.375 150.585c0 56.482 22.436 110.648 62.375 150.584s94.102 62.375 150.584 62.375c56.482 0 110.649-22.437 150.585-62.375s62.374-94.103 62.374-150.584c0-56.482-22.436-110.649-62.374-150.585s-94.104-62.374-150.585-62.374zM511.999 329.689c31.376 0 61.47 12.465 83.66 34.651 22.185 22.19 34.651 52.284 34.651 83.66s-12.465 61.47-34.651 83.66c-22.19 22.187-52.284 34.651-83.66 34.651s-61.47-12.465-83.66-34.651c-22.185-22.19-34.65-52.284-34.65-83.66s12.465-61.47 34.65-83.66c22.19-22.185 52.284-34.651 83.66-34.651z" />
<glyph unicode="&#xe92e;" glyph-name="eye-off-fill" d="M158.015 735.069l-147.983 147.935 66.963 66.963 936.97-937.017-66.963-66.917-156.643 156.643c-83.234-52.795-179.798-80.749-278.36-80.593-255.171 0-467.467 183.618-511.999 425.917 20.351 110.232 75.749 210.929 158.015 287.068zM642.472 250.565l-69.283 69.283c-26.497-12.678-56.278-16.824-85.236-11.869-28.952 4.959-55.658 18.774-76.43 39.549-20.772 20.77-34.589 47.475-39.547 76.429-4.957 28.958-0.811 58.734 11.868 85.236l-69.283 69.283c-30.111-45.502-43.572-100.010-38.104-154.3s29.531-105.017 68.113-143.601c38.581-38.583 89.314-62.643 143.598-68.113 54.29-5.466 108.799 7.993 154.301 38.105zM321.473 837.951c59.013 23.189 123.326 35.967 190.527 35.967 255.172 0 467.467-183.618 512-425.917-14.5-78.828-47.093-153.217-95.216-217.312l-182.671 182.671c5.428 36.553 2.215 73.868-9.375 108.954-11.59 35.090-31.234 66.977-57.367 93.107-26.127 26.13-58.015 45.776-93.101 57.366-35.090 11.59-72.406 14.8-108.959 9.374l-155.838 155.791z" />
<glyph unicode="&#xe92f;" glyph-name="eye-off" d="M790.36 102.677c-83.234-52.795-179.798-80.749-278.36-80.593-255.171 0-467.468 183.618-511.999 425.918 20.351 110.232 75.796 210.929 158.063 287.068l-148.077 147.935 66.963 66.963 936.971-937.019-66.963-66.917-156.596 156.643zM224.979 668.059c-64.314-58.474-109.115-135.29-128.343-220.057 14.778-64.668 44.45-124.988 86.651-176.169 42.201-51.177 95.766-91.8 156.433-118.628s126.759-39.128 193.014-35.909c66.253 3.213 130.847 21.849 188.629 54.428l-95.973 95.973c-40.855-25.735-89.244-36.823-137.231-31.442-47.982 5.376-92.715 26.904-126.858 61.048-34.143 34.14-55.67 78.876-61.048 126.857-5.379 47.987 5.708 96.376 31.444 137.23l-106.716 106.669zM555.253 337.831l-153.425 153.425c-8.421-21.433-10.403-44.863-5.702-67.408 4.701-22.54 15.879-43.226 32.161-59.51 16.285-16.285 36.969-27.462 59.515-32.161s45.97-2.716 67.404 5.702l0.048-0.048zM928.783 230.69l-67.721 67.673c31.637 45.086 54.158 95.917 66.301 149.639-12.863 56.33-37.040 109.454-71.072 156.146-34.036 46.692-77.204 85.978-126.89 115.466s-104.851 48.566-162.143 56.071c-57.286 7.506-115.505 3.284-171.109-12.41l-74.678 74.678c59.013 23.189 123.326 35.967 190.527 35.967 255.172 0 467.468-183.618 512.001-425.918-14.5-78.828-47.093-153.217-95.216-217.312zM498.89 660.581c30.121 1.862 60.296-2.701 88.524-13.384 28.224-10.683 53.855-27.244 75.198-48.585 21.338-21.34 37.897-46.973 48.583-75.2 10.681-28.224 15.243-58.398 13.383-88.52l-225.689 225.689z" />
<glyph unicode="&#xe930;" glyph-name="file-edit" d="M912.835 713.89l-101.426-101.426v241.242h-456.418v-253.565h-253.564v-557.844h709.983v139.816l101.426 101.426v-292.361c-0.011-13.348-5.325-26.143-14.768-35.576s-22.243-14.733-35.59-14.733h-812.12c-6.66 0.045-13.244 1.405-19.38 3.996s-11.699 6.365-16.375 11.106c-4.676 4.741-8.372 10.361-10.878 16.532s-3.771 12.775-3.724 19.433v658.916l304.431 304.279h557.59c27.994 0 50.815-23.074 50.815-50.307v-190.935zM952.291 609.929l71.709-71.759-394.447-394.447-71.81 0.101 0.101 71.607 394.447 394.498z" />
<glyph unicode="&#xe931;" glyph-name="file-history" d="M716.8 960l256-256v-716.442c0-28.468-22.784-51.558-50.842-51.558h-819.917c-28.057 0-50.842 23.296-50.842 50.79v922.42c0 28.057 22.886 50.79 51.149 50.79h614.452zM665.6 857.599h-512.001v-819.201h716.8v614.4h-204.8v204.8zM563.2 601.599v-204.8h153.6v-102.4h-256v307.2h102.4z" />
<glyph unicode="&#xe932;" glyph-name="filter-2" d="M619.79 367.158v-323.369l-215.58-107.789v431.158l-323.369 485.053v107.789h862.317v-107.789l-323.369-485.053zM210.405 852.211l301.596-452.393 301.596 452.393h-603.19z" />
<glyph unicode="&#xe933;" glyph-name="filter-fill" d="M1024 959.999v-113.777h-56.889l-341.333-511.999v-398.222h-227.556v398.222l-341.333 511.999h-56.889v113.777h1023.999z" />
<glyph unicode="&#xe934;" glyph-name="filter" d="M1023.999 960v-113.777h-56.889l-284.444-426.667v-483.556h-341.333v483.556l-284.444 426.667h-56.889v113.777h1024zM193.648 846.222l261.461-392.192v-404.252h113.777v404.252l261.461 392.192h-636.7z" />
<glyph unicode="&#xe935;" glyph-name="filter-3" d="M1023.999 960v-113.777h-56.889l-284.444-426.667v-483.556h-341.333v483.556l-284.444 426.667h-56.889v113.777h1024zM193.648 846.222l261.461-392.192v-404.252h113.777v404.252l261.461 392.192h-636.7z" />
<glyph unicode="&#xe936;" glyph-name="filter-off-fill" d="M268.643 960l673.975-674.022-67.393-67.393-182.209 182.161-87.363-131.116v-333.629h-190.645v333.629l-285.967 428.951h-47.662v95.322h218.527l-98.659 98.707 67.393 67.392zM939.284 793.901v-95.322h-47.662l-91.272-136.883-232.205 232.205h371.137z" />
<glyph unicode="&#xe937;" glyph-name="filter-off" d="M268.642 959.999l673.976-674.023-67.393-67.393-182.209 182.161-39.701-59.624v-405.12h-285.967v405.12l-238.305 357.459h-47.662v95.322h218.527l-98.659 98.707 67.393 67.392zM395.23 698.578h-151.611l219.051-328.576v-338.68h95.322v338.68l66.344 99.468-229.108 229.107zM939.283 793.9v-95.322h-47.662l-91.272-136.883-68.727 68.775 45.421 68.108h-113.577l-95.322 95.322h371.137z" />
<glyph unicode="&#xe938;" glyph-name="flashlight-fill" d="M558.545 541.091h325.818l-418.909-605.091v418.909h-325.818l418.909 605.091v-418.909z" />
<glyph unicode="&#xe939;" glyph-name="flashlight" d="M533.334 576h341.333l-426.667-640v384h-298.667l384 640v-384zM448 490.667v161.28l-147.968-246.613h233.301v-187.477l181.888 272.811h-267.221z" />
<glyph unicode="&#xe93a;" glyph-name="footprint" d="M75.349 137.516h277.087v-62.974c0-36.742-14.597-71.982-40.578-97.962-25.982-25.985-61.22-40.581-97.965-40.581s-71.983 14.595-97.965 40.581c-25.982 25.98-40.578 61.222-40.578 97.962v62.974zM279.788 339.035l2.267 6.65c38.641 106.099 45.19 125.847 45.19 144.488 0 37.785-10.227 82.774-26.6 114.513-12.191 23.678-20.757 30.581-23.779 30.581-64.485 0-125.949-68.717-125.949-145.093 0-48.313 3.778-89.323 11.436-138.947l1.914-12.191h115.52zM276.866 736.024c100.758 0 151.138-145.093 151.138-245.852 0-50.38-25.189-100.758-50.38-176.328l-25.189-75.569h-277.087c0 50.38-25.189 125.949-25.189 251.897s100.658 245.852 226.707 245.852zM884.139 334.097l-10.933-62.017c-6.379-36.187-26.878-68.359-56.974-89.438-30.101-21.079-67.347-29.336-103.534-22.958-36.187 6.383-68.359 26.878-89.438 56.979-21.079 30.097-29.336 67.343-22.958 103.53l10.982 61.967 272.855-48.062zM831.241 548.008c8.313 25.189 15.165 45.090 15.265 45.341 10.177 33.15 18.187 65.645 24.434 101.162 13.249 75.166-35.366 153.506-98.844 164.741-2.972 0.504-12.595-4.786-28.716-25.945-21.664-28.465-39.498-71.035-46.097-108.164-2.922-16.625-2.469-20.404 13.602-114.009 2.267-12.898 4.132-24.484 5.844-36.122l1.007-6.952 113.505-20.051zM789.628 958.45c124.135-21.864 202.425-157.386 180.559-281.419-21.864-124.085-59.8-194.112-68.516-243.736l-272.905 48.113-11.688 78.794c-11.688 78.794-27.709 132.8-18.993 182.373 17.481 99.247 92.295 233.357 191.543 215.876z" />
<glyph unicode="&#xe93b;" glyph-name="camera" d="M1024.001 789.331h-113.777v56.889h-796.443v-796.443h796.443v56.889h113.777v-113.777c0-15.087-5.996-29.56-16.663-40.227s-25.139-16.663-40.227-16.663h-910.222c-15.088 0-29.557 5.996-40.227 16.663s-16.663 25.139-16.663 40.227v910.222c0 15.088 5.993 29.557 16.663 40.227s25.139 16.663 40.227 16.663h910.222c15.087 0 29.56-5.993 40.227-16.663s16.663-25.139 16.663-40.227v-113.777zM170.669 789.331h113.777v-170.666h-113.777v170.666zM682.668 220.442c60.353 0 118.232 23.973 160.904 66.651 42.679 42.672 66.651 100.551 66.651 160.904s-23.973 118.231-66.651 160.906c-42.672 42.675-100.551 66.649-160.904 66.649s-118.232-23.975-160.904-66.649c-42.679-42.675-66.651-100.553-66.651-160.906s23.973-118.232 66.651-160.904c42.672-42.679 100.551-66.651 160.904-66.651zM682.668 106.665c-90.527 0-177.345 35.96-241.357 99.976-64.015 64.012-99.976 150.829-99.976 241.357s35.961 177.346 99.976 241.358c64.012 64.012 150.829 99.975 241.357 99.975s177.345-35.961 241.357-99.975c64.017-64.012 99.976-150.832 99.976-241.358s-35.96-177.345-99.976-241.357c-64.012-64.017-150.829-99.976-241.357-99.976zM682.668 334.221c-30.173 0-59.113 11.987-80.452 33.325s-33.325 50.279-33.325 80.452c0 30.173 11.987 59.113 33.325 80.452s50.279 33.325 80.452 33.325c30.173 0 59.113-11.987 80.452-33.325s33.325-50.279 33.325-80.452c0-30.173-11.987-59.113-33.325-80.452s-50.279-33.325-80.452-33.325z" />
<glyph unicode="&#xe93c;" glyph-name="guard" d="M512 960l382.464-84.992c21.272-4.748 36.445-23.599 36.445-45.429v-464.849c0-93.37-46.685-180.597-124.369-232.355l-294.54-196.376-294.54 196.376c-77.731 51.805-124.369 138.985-124.369 232.308v464.896c0 21.83 15.173 40.681 36.445 45.429l382.464 84.992zM512 864.629l-325.818-72.379v-427.519c0-62.231 31.092-120.367 82.897-154.904l242.92-161.978 242.92 161.978c51.805 34.537 82.897 92.626 82.897 154.857v427.566l-325.818 72.379zM719.22 623.85l65.861-65.816-296.216-296.216-197.493 197.493 65.816 65.816 131.63-131.63 230.4 230.353z" />
<glyph unicode="&#xe93d;" glyph-name="minus" d="M0 521.143h1024v-146.285h-1024v146.285z" />
<glyph unicode="&#xe93e;" glyph-name="favorite" d="M68.886 674.529l415.791 277.193c8.089 5.398 17.601 8.278 27.325 8.278s19.236-2.88 27.325-8.278l415.791-277.193v-689.293c0-13.057-5.189-25.583-14.421-34.815s-21.757-14.421-34.815-14.421h-787.763c-13.058 0-25.581 5.189-34.815 14.421s-14.421 21.757-14.421 34.815v689.293zM167.356 621.847v-587.376h689.291v587.376l-344.646 229.732-344.646-229.732zM512.002 477.589c-26.114 0-51.16 10.374-69.628 28.842s-28.842 43.513-28.842 69.629c0 26.116 10.374 51.163 28.842 69.629s43.514 28.842 69.628 28.842c26.114 0 51.16-10.375 69.628-28.842s28.842-43.513 28.842-69.629c0-26.116-10.374-51.16-28.842-69.629s-43.514-28.842-69.628-28.842z" />
<glyph unicode="&#xe93f;" glyph-name="heart-fill" d="M512.041 842.924c120.267 107.979 306.119 104.394 421.984-11.673 115.812-116.119 119.806-301.050 12.083-421.675l-434.168-434.783-434.066 434.783c-107.723 120.625-103.678 305.862 12.083 421.675 115.966 115.914 301.46 119.806 422.086 11.673z" />
<glyph unicode="&#xe940;" glyph-name="heart" d="M512.041 842.923c120.267 107.979 306.119 104.394 421.983-11.673 115.812-116.119 119.806-301.050 12.083-421.674l-434.167-434.782-434.065 434.782c-107.723 120.625-103.678 305.862 12.083 421.674 115.966 115.914 301.46 119.806 422.085 11.673zM861.524 758.906c-76.799 76.901-200.7 80.024-281.083 7.833l-68.351-61.337-68.402 61.285c-80.638 72.293-204.284 69.119-281.287-7.885-76.286-76.286-80.126-198.396-9.83-279.086l359.417-359.98 359.417 359.93c70.347 80.74 66.508 202.697-9.882 279.24z" />
<glyph unicode="&#xe941;" glyph-name="history" d="M512 959.999c282.777 0 511.999-229.222 511.999-511.999s-229.222-511.999-511.999-511.999c-282.777 0-511.999 229.222-511.999 511.999h102.399c0-226.201 183.398-409.599 409.599-409.599s409.599 183.398 409.599 409.599c0 226.201-183.398 409.599-409.599 409.599-140.799 0-265.011-71.015-338.687-179.199h133.887v-102.399h-307.199v307.199h102.399v-128c93.389 124.416 242.125 204.8 409.599 204.8zM563.2 703.999v-234.752l166.041-166.041-72.447-72.447-195.993 196.095v277.145h102.399z" />
<glyph unicode="&#xe942;" glyph-name="image-add" d="M884.364 354.909v-139.636h139.636v-93.091h-139.636v-139.636h-93.091v139.636h-139.636v93.091h139.636v139.636h93.091zM884.736 913.454c25.507 0 46.173-20.713 46.173-46.22v-419.235h-93.091v372.363h-744.727v-651.59l465.455 465.408 139.636-139.636v-131.677l-139.636 139.636-333.87-333.778h333.87v-93.091h-512.373c-12.25 0.014-23.995 4.887-32.652 13.555s-13.521 20.415-13.521 32.665v745.379c0.085 12.224 4.976 23.924 13.615 32.571s20.335 13.551 32.558 13.648h838.563zM279.273 727.272c24.689 0 48.368-9.807 65.825-27.266s27.266-41.136 27.266-65.825c0-24.689-9.807-48.365-27.266-65.824s-41.136-27.266-65.825-27.266c-24.689 0-48.368 9.807-65.825 27.266s-27.266 41.136-27.266 65.824c0 24.689 9.807 48.368 27.266 65.825s41.136 27.266 65.825 27.266z" />
<glyph unicode="&#xe943;" glyph-name="list-unordered" d="M284.444 900.267h739.556v-113.777h-739.556v113.777zM85.333 758.045c-22.632 0-44.337 8.991-60.34 24.993s-24.993 37.708-24.993 60.34c0 22.632 8.991 44.337 24.993 60.34s37.708 24.993 60.34 24.993c22.632 0 44.337-8.991 60.34-24.993s24.993-37.708 24.993-60.34c0-22.632-8.991-44.337-24.993-60.34s-37.708-24.993-60.34-24.993zM85.333 359.823c-22.632 0-44.337 8.988-60.34 24.991s-24.993 37.712-24.993 60.343c0 22.631 8.991 44.339 24.993 60.343s37.708 24.991 60.34 24.991c22.632 0 44.337-8.988 60.34-24.991s24.993-37.712 24.993-60.343c0-22.631-8.991-44.339-24.993-60.343s-37.708-24.991-60.34-24.991zM85.333-32.711c-22.632 0-44.337 8.988-60.34 24.991s-24.993 37.712-24.993 60.343c0 22.631 8.991 44.339 24.993 60.343s37.708 24.991 60.34 24.991c22.632 0 44.337-8.988 60.34-24.991s24.993-37.712 24.993-60.343c0-22.631-8.991-44.339-24.993-60.343s-37.708-24.991-60.34-24.991zM284.444 502.045h739.556v-113.777h-739.556v113.777zM284.444 103.823h739.556v-113.777h-739.556v113.777z" />
<glyph unicode="&#xe944;" glyph-name="logout-box" d="M179.2 140.799h102.4v-102.4h614.401v819.201h-614.401v-102.4h-102.4v153.6c0 13.579 5.394 26.602 14.996 36.204s22.625 14.996 36.204 14.996h716.8c13.578 0 26.604-5.394 36.204-14.996s14.996-22.625 14.996-36.204v-921.6c0-13.578-5.396-26.604-14.996-36.204s-22.625-14.996-36.204-14.996h-716.8c-13.579 0-26.602 5.396-36.204 14.996s-14.996 22.625-14.996 36.204v153.6zM281.599 499.199h358.4v-102.4h-358.4v-153.6l-255.999 204.8 255.999 204.8v-153.6z" />
<glyph unicode="&#xe945;" glyph-name="map-pin" d="M512-64l-299.925 299.925c-59.319 59.321-99.715 134.896-116.080 217.172-16.365 82.282-7.966 167.563 24.138 245.066s86.468 143.746 156.22 190.354c69.751 46.606 151.759 71.483 235.647 71.483s165.896-24.876 235.647-71.483c69.755-46.606 124.117-112.851 156.22-190.354s40.502-162.786 24.139-245.066c-16.368-82.276-56.762-157.852-116.081-217.172l-299.925-299.925zM745.285 302.565c46.133 46.139 77.55 104.922 90.279 168.913 12.725 63.995 6.188 130.324-18.781 190.602s-67.257 111.8-121.506 148.049c-54.25 36.249-118.033 55.595-183.277 55.595s-129.027-19.348-183.278-55.595c-54.251-36.249-96.535-87.769-121.505-148.049s-31.506-126.607-18.779-190.602c12.727-63.991 44.143-122.774 90.276-168.913l233.285-233.285 233.285 233.285zM512 441.592c-24.996 0-48.971 9.93-66.649 27.608-17.678 17.673-27.608 41.652-27.608 66.649s9.93 48.972 27.608 66.649c17.678 17.676 41.652 27.608 66.649 27.608s48.971-9.931 66.649-27.608c17.678-17.676 27.608-41.652 27.608-66.649s-9.93-48.976-27.608-66.649c-17.678-17.678-41.652-27.608-66.649-27.608z" />
<glyph unicode="&#xe946;" glyph-name="map-pin-2" d="M512 192.702l197.495 197.448c39.052 39.057 65.649 88.82 76.419 142.994s5.236 110.324-15.9 161.352c-21.141 51.028-56.935 94.643-102.862 125.329s-99.921 47.064-155.152 47.064c-55.231 0-109.227-16.378-155.152-47.064s-81.721-74.3-102.861-125.329c-21.139-51.028-26.672-107.177-15.9-161.352s37.366-103.938 76.418-142.994l197.495-197.448zM775.311 324.334l-263.311-263.311-263.311 263.311c-52.075 52.075-87.537 118.427-101.904 190.657-14.366 72.234-6.992 147.102 21.193 215.143s75.912 126.195 137.147 167.111c61.236 40.915 133.23 62.754 206.875 62.754s145.638-21.838 206.874-62.754c61.236-40.915 108.965-99.070 137.148-167.111s35.561-142.909 21.192-215.143c-14.364-72.23-49.828-138.581-101.903-190.657zM186.177 29.092h651.645v-93.092h-651.645v93.092z" />
<glyph unicode="&#xe947;" glyph-name="map-pin-3" d="M512 69.28l233.285 233.285c46.133 46.139 77.55 104.922 90.279 168.913 12.725 63.995 6.188 130.324-18.781 190.602s-67.257 111.8-121.506 148.049c-54.25 36.249-118.033 55.595-183.277 55.595s-129.027-19.348-183.278-55.595c-54.251-36.249-96.535-87.769-121.505-148.049s-31.506-126.607-18.779-190.602c12.727-63.991 44.143-122.774 90.276-168.913l233.285-233.285zM512-64l-299.925 299.925c-59.319 59.321-99.715 134.896-116.080 217.172-16.365 82.282-7.966 167.563 24.138 245.066s86.468 143.746 156.22 190.354c69.751 46.606 151.759 71.483 235.647 71.483s165.896-24.876 235.647-71.483c69.755-46.606 124.117-112.851 156.22-190.354s40.502-162.786 24.139-245.066c-16.368-82.276-56.762-157.852-116.081-217.172l-299.925-299.925zM512 441.592c24.996 0 48.971 9.93 66.649 27.608 17.678 17.673 27.608 41.652 27.608 66.649s-9.93 48.972-27.608 66.649c-17.678 17.676-41.652 27.608-66.649 27.608s-48.971-9.931-66.649-27.608c-17.678-17.676-27.608-41.652-27.608-66.649s9.93-48.976 27.608-66.649c17.678-17.678 41.652-27.608 66.649-27.608zM512 347.336c-49.998 0-97.945 19.86-133.298 55.215-35.353 35.351-55.214 83.299-55.214 133.297 0 49.996 19.861 97.945 55.214 133.298s83.3 55.214 133.298 55.214c49.998 0 97.947-19.861 133.297-55.214 35.356-35.353 55.215-83.302 55.215-133.298 0-49.998-19.86-97.947-55.215-133.297-35.351-35.356-83.299-55.215-133.297-55.215z" />
<glyph unicode="&#xe948;" glyph-name="medal" d="M512 716.153c103.453 0 202.673-41.097 275.828-114.25 73.15-73.152 114.248-172.372 114.248-275.825s-41.1-202.673-114.248-275.823c-73.154-73.154-172.374-114.254-275.828-114.254s-202.672 41.1-275.825 114.254c-73.154 73.15-114.25 172.37-114.25 275.823s41.097 202.673 114.25 275.825c73.153 73.153 172.371 114.25 275.825 114.25zM512 618.633c-77.59 0-152.004-30.822-206.869-85.691-54.865-54.865-85.688-129.276-85.688-206.868s30.822-152.003 85.688-206.868c54.865-54.869 129.278-85.69 206.869-85.69s152.003 30.821 206.868 85.69c54.869 54.865 85.69 129.276 85.69 206.868s-30.821 152.003-85.69 206.868c-54.865 54.868-129.276 85.691-206.868 85.691zM512 545.494l64.509-130.676 144.182-20.967-104.346-101.664 24.624-143.646-128.969 67.824-128.969-67.776 24.624 143.596-104.346 101.713 144.182 20.967 64.509 130.627zM804.557 959.95v-146.279l-66.46-55.489c-55.152 28.935-115.36 46.963-177.339 53.099v148.668h243.797zM463.24 959.999v-148.716c-61.956-6.127-122.152-24.139-177.29-53.050l-66.508 55.44v146.279l243.797 0.049z" />
<glyph unicode="&#xe949;" glyph-name="menu-2" d="M0 903.111h1024v-113.777h-1024v113.777zM0 504.889h682.667v-113.777h-682.667v113.777zM0 106.667h1024v-113.777h-1024v113.777z" />
<glyph unicode="&#xe94a;" glyph-name="menu-3" d="M0 903.111h1024v-113.777h-1024v113.777zM341.333 504.889h682.667v-113.777h-682.667v113.777zM0 106.667h1024v-113.777h-1024v113.777z" />
<glyph unicode="&#xe94b;" glyph-name="movie-2" d="M512 38.399h409.599v-102.399h-409.599c-282.777 0-512 229.222-512 512s229.222 512 512 512c282.777 0 512-229.222 512-512 0.164-110.807-35.784-218.649-102.399-307.2h-138.649c71.9 63.406 119.281 150.026 133.887 244.772 14.612 94.74-4.47 191.61-53.924 273.733s-126.146 144.299-216.724 175.699c-90.572 31.4-189.296 30.037-278.968-3.853s-164.619-98.16-211.786-181.617-63.568-180.817-46.345-275.116c17.222-94.305 66.977-179.583 140.599-240.982 73.622-61.394 166.449-95.027 262.311-95.033zM512 550.397c-27.156 0-53.202 10.788-72.407 29.993s-29.993 45.25-29.993 72.408c0 27.158 10.788 53.204 29.993 72.408s45.251 29.993 72.407 29.993c27.156 0 53.202-10.788 72.407-29.993s29.993-45.25 29.993-72.408c0-27.158-10.788-53.204-29.993-72.408s-45.251-29.993-72.407-29.993zM307.2 345.598c-27.158 0-53.204 10.788-72.408 29.993s-29.993 45.251-29.993 72.407c0 27.156 10.788 53.202 29.993 72.407s45.25 29.993 72.408 29.993c27.158 0 53.204-10.788 72.408-29.993s29.993-45.251 29.993-72.407c0-27.156-10.788-53.202-29.993-72.407s-45.25-29.993-72.408-29.993zM716.8 345.598c-27.156 0-53.202 10.788-72.407 29.993s-29.993 45.251-29.993 72.407c0 27.156 10.788 53.202 29.993 72.407s45.251 29.993 72.407 29.993c27.156 0 53.202-10.788 72.407-29.993s29.993-45.251 29.993-72.407c0-27.156-10.788-53.202-29.993-72.407s-45.251-29.993-72.407-29.993zM512 140.798c-27.156 0-53.202 10.788-72.407 29.993s-29.993 45.251-29.993 72.407c0 27.156 10.788 53.202 29.993 72.407s45.251 29.993 72.407 29.993c27.156 0 53.202-10.788 72.407-29.993s29.993-45.251 29.993-72.407c0-27.156-10.788-53.202-29.993-72.407s-45.251-29.993-72.407-29.993z" />
<glyph unicode="&#xe94c;" glyph-name="notification-2-fill" d="M988.278 102.698h-952.557v95.255h47.628v331.919c0 237.567 191.941 430.128 428.651 430.128s428.651-192.559 428.651-430.128v-331.919h47.628v-95.255zM392.929 55.070h238.139c0-31.577-12.545-61.864-34.874-84.196-22.332-22.328-52.619-34.874-84.196-34.874s-61.864 12.545-84.196 34.874c-22.329 22.332-34.874 52.619-34.874 84.196z" />
<glyph unicode="&#xe94d;" glyph-name="notification-2" d="M988.278 102.698h-952.557v95.255h47.628v331.919c0 237.567 191.941 430.128 428.651 430.128s428.651-192.559 428.651-430.128v-331.919h47.628v-95.255zM178.604 197.954h666.79v331.919c0 184.939-149.265 334.871-333.395 334.871s-333.395-149.933-333.395-334.871v-331.919zM392.929 55.070h238.139c0-31.577-12.545-61.864-34.874-84.196-22.332-22.328-52.619-34.874-84.196-34.874s-61.864 12.545-84.196 34.874c-22.329 22.332-34.874 52.619-34.874 84.196z" />
<glyph unicode="&#xe94e;" glyph-name="notification-3-fill" d="M902.096 228.571h97.523v-97.523h-975.238v97.523h97.523v341.334c0 103.459 41.099 202.682 114.256 275.839s172.379 114.256 275.839 114.256c103.458 0 202.683-41.099 275.841-114.256 73.153-73.157 114.254-172.379 114.254-275.839v-341.334zM365.715 33.523h292.571v-97.523h-292.571v97.523z" />
<glyph unicode="&#xe94f;" glyph-name="notification-3" d="M902.096 228.571h97.523v-97.523h-975.238v97.523h97.523v341.334c0 103.459 41.099 202.682 114.256 275.839s172.379 114.256 275.839 114.256c103.458 0 202.683-41.099 275.841-114.256 73.153-73.157 114.254-172.379 114.254-275.839v-341.334zM804.572 228.571v341.334c0 77.594-30.823 152.011-85.694 206.879-54.867 54.867-129.282 85.693-206.878 85.693s-152.011-30.824-206.879-85.693c-54.867-54.867-85.693-129.285-85.693-206.879v-341.334h585.143zM365.715 33.523h292.571v-97.523h-292.571v97.523z" />
<glyph unicode="&#xe950;" glyph-name="notification-4-fill" d="M893.023 166.186l19.052-25.385c2.653-3.539 4.268-7.745 4.667-12.15 0.395-4.406-0.443-8.835-2.419-12.788-1.977-3.958-5.015-7.283-8.777-9.607s-8.096-3.558-12.521-3.558h-762.047c-4.423 0-8.758 1.233-12.52 3.558s-6.803 5.648-8.78 9.607c-1.978 3.953-2.815 8.382-2.418 12.788s2.014 8.611 4.666 12.15l19.052 25.385v412.791c0 101.053 40.144 197.969 111.599 269.424s168.371 111.599 269.424 111.599c101.052 0 197.97-40.144 269.426-111.599 71.452-71.455 111.597-168.371 111.597-269.424v-412.791zM392.93 55.071h238.139c0-31.577-12.545-61.864-34.874-84.196-22.332-22.328-52.619-34.874-84.196-34.874s-61.864 12.545-84.196 34.874c-22.329 22.332-34.874 52.619-34.874 84.196z" />
<glyph unicode="&#xe951;" glyph-name="notification-4" d="M797.767 578.977c0 75.79-30.106 148.476-83.701 202.068-53.591 53.591-126.276 83.7-202.067 83.7s-148.476-30.107-202.068-83.7c-53.591-53.591-83.7-126.278-83.7-202.068v-381.023h571.535v381.023zM893.022 166.186l19.052-25.385c2.653-3.539 4.268-7.745 4.667-12.15 0.395-4.406-0.443-8.835-2.419-12.788-1.977-3.958-5.015-7.283-8.777-9.607s-8.096-3.558-12.521-3.558h-762.047c-4.423 0-8.758 1.233-12.52 3.558s-6.803 5.648-8.78 9.607c-1.978 3.953-2.815 8.382-2.418 12.788s2.014 8.611 4.666 12.15l19.052 25.385v412.791c0 101.053 40.144 197.969 111.599 269.424s168.371 111.599 269.424 111.599c101.052 0 197.97-40.144 269.426-111.599 71.452-71.455 111.597-168.371 111.597-269.424v-412.791zM392.929 55.071h238.139c0-31.577-12.545-61.864-34.874-84.196-22.332-22.328-52.619-34.874-84.196-34.874s-61.864 12.545-84.196 34.874c-22.329 22.332-34.874 52.619-34.874 84.196z" />
<glyph unicode="&#xe952;" glyph-name="notification-fill" d="M512 960c236.71 0 428.651-192.559 428.651-430.128v-427.174h-857.302v427.174c0 237.567 191.941 430.128 428.651 430.128zM392.93 55.070h238.139c0-31.577-12.545-61.864-34.874-84.196-22.332-22.328-52.619-34.874-84.196-34.874s-61.864 12.545-84.196 34.874c-22.329 22.332-34.874 52.619-34.874 84.196z" />
<glyph unicode="&#xe953;" glyph-name="notification" d="M178.605 197.954h666.79v331.919c0 184.939-149.265 334.871-333.395 334.871s-333.395-149.933-333.395-334.871v-331.919zM512 960c236.71 0 428.651-192.559 428.651-430.128v-427.174h-857.302v427.174c0 237.567 191.941 430.128 428.651 430.128zM392.93 55.070h238.139c0-31.577-12.545-61.864-34.874-84.196-22.332-22.328-52.619-34.874-84.196-34.874s-61.864 12.545-84.196 34.874c-22.329 22.332-34.874 52.619-34.874 84.196z" />
<glyph unicode="&#xe954;" glyph-name="numbers" d="M332.799 140.8h-255.999v409.599h255.999v-409.599zM230.4 243.2v204.8h-51.2v-204.8h51.2zM537.6 243.2v409.599h-51.2v-409.599h51.2zM639.999 140.8h-255.999v614.4h255.999v-614.4zM844.799 243.2v614.4h-51.2v-614.4h51.2zM947.199 140.8h-255.999v819.2h255.999v-819.2zM998.399-64h-972.8v102.4h972.8v-102.4z" />
<glyph unicode="&#xe955;" glyph-name="oil" d="M369.128 667.428l-149.699-224.598v-409.307h585.143v633.905h-435.443zM316.952 764.953h536.381c12.931 0 25.337-5.137 34.48-14.282s14.282-21.547 14.282-34.48v-731.429c0-12.931-5.139-25.337-14.282-34.48s-21.547-14.282-34.48-14.282h-682.666c-12.933 0-25.335 5.139-34.48 14.282s-14.282 21.547-14.282 34.48v487.619l195.048 292.571zM560.762 960h243.809c12.931 0 25.337-5.137 34.48-14.282s14.282-21.547 14.282-34.48v-97.523h-341.334v97.523c0 12.933 5.139 25.335 14.282 34.48s21.547 14.282 34.48 14.282zM316.952 423.619h97.523v-292.571h-97.523v292.571z" />
<glyph unicode="&#xe956;" glyph-name="passport" d="M921.6 960c13.578 0 26.604-5.394 36.204-14.996s14.996-22.625 14.996-36.204v-921.599c0-13.578-5.396-26.604-14.996-36.204s-22.625-14.996-36.204-14.996h-819.2c-13.579 0-26.602 5.396-36.204 14.996s-14.996 22.625-14.996 36.204v921.599c0 13.579 5.394 26.602 14.996 36.204s22.625 14.996 36.204 14.996h819.2zM870.401 857.599h-716.799v-819.2h716.799v819.2zM716.801 243.2v-102.4h-409.599v102.4h409.599zM512.001 755.2c54.318 0 106.409-21.577 144.813-59.984 38.411-38.407 59.986-90.499 59.986-144.816s-21.576-106.409-59.986-144.813c-38.405-38.411-90.496-59.986-144.813-59.986s-106.408 21.576-144.816 59.986c-38.407 38.405-59.984 90.496-59.984 144.813s21.577 106.408 59.984 144.816 90.498 59.984 144.816 59.984zM512.001 652.8c-27.156 0-53.202-10.788-72.407-29.993s-29.993-45.25-29.993-72.408c0-27.156 10.788-53.202 29.993-72.407s45.251-29.993 72.407-29.993c27.156 0 53.202 10.788 72.407 29.993s29.993 45.251 29.993 72.407c0 27.158-10.788 53.204-29.993 72.408s-45.251 29.993-72.407 29.993z" />
<glyph unicode="&#xe957;" glyph-name="phone" d="M362.157 522.983c53.379-93.781 131.044-171.447 224.825-224.825l50.289 70.428c8.089 11.327 20.041 19.291 33.609 22.397 13.568 3.1 27.796 1.127 40.004-5.559 80.457-43.969 169.313-70.417 260.721-77.596 14.268-1.132 27.58-7.595 37.291-18.108s15.104-24.297 15.104-38.611v-253.839c0.005-14.085-5.217-27.671-14.655-38.127s-22.42-17.039-36.432-18.477c-30.151-3.129-60.529-4.665-91.136-4.665-486.969 0-881.777 394.809-881.777 881.777 0 30.607 1.536 60.985 4.665 91.136 1.436 14.012 8.020 26.992 18.477 36.429s24.043 14.659 38.128 14.656h253.839c14.311 0.001 28.097-5.391 38.609-15.101s16.979-23.027 18.109-37.293c7.18-91.408 33.627-180.263 77.596-260.721 6.684-12.207 8.659-26.439 5.559-40.004-3.107-13.565-11.071-25.523-22.397-33.609l-70.428-50.289zM218.683 560.359l108.089 77.199c-30.676 66.213-51.692 136.485-62.407 208.668h-150.016c-0.341-9.444-0.512-18.944-0.512-28.444-0.057-424.164 343.78-768 767.943-768 9.5 0 19.001 0.171 28.444 0.569v150.016c-72.18 10.717-142.456 31.732-208.668 62.407l-77.199-108.089c-31.079 12.077-61.269 26.333-90.34 42.667l-3.3 1.877c-111.581 63.505-203.988 155.909-267.492 267.492l-1.877 3.3c-16.332 29.071-30.591 59.261-42.667 90.34z" />
<glyph unicode="&#xe958;" glyph-name="question-answer-fill" d="M341.333 216.382h499.176l85.967-67.535v506.392h48.762c12.931 0 25.337-5.137 34.48-14.282s14.282-21.547 14.282-34.48v-658.286l-217.234 170.666h-416.671c-12.933 0-25.335 5.139-34.48 14.282s-14.282 21.547-14.282 34.48v48.762zM217.234 313.905l-217.234-170.666v755.809c0 12.933 5.137 25.335 14.282 34.48s21.547 14.282 34.48 14.282h731.429c12.931 0 25.337-5.137 34.48-14.282s14.282-21.547 14.282-34.48v-585.143h-611.718z" />
<glyph unicode="&#xe959;" glyph-name="question-answer" d="M217.234 313.905l-217.234-170.666v755.809c0 12.933 5.137 25.335 14.282 34.48s21.547 14.282 34.48 14.282h731.429c12.931 0 25.337-5.137 34.48-14.282s14.282-21.547 14.282-34.48v-585.143h-611.718zM183.49 411.429h547.937v438.857h-633.905v-506.392l85.967 67.535zM341.332 216.382h499.176l85.967-67.535v506.392h48.762c12.931 0 25.337-5.137 34.48-14.282s14.282-21.547 14.282-34.48v-658.286l-217.234 170.666h-416.671c-12.933 0-25.335 5.139-34.48 14.282s-14.282 21.547-14.282 34.48v48.762z" />
<glyph unicode="&#xe95a;" glyph-name="refresh" d="M177.306 835.43c92.905 80.504 211.763 124.741 334.694 124.57 282.777 0 512-229.223 512-511.999 0-109.363-34.304-210.739-92.672-293.888l-163.328 293.888h153.6c0.005 80.302-23.593 158.832-67.855 225.829-44.268 66.997-107.254 119.506-181.119 150.996-73.871 31.489-155.366 40.572-234.353 26.117-78.991-14.454-151.989-51.809-209.919-107.417l-51.047 91.904zM846.694 60.571c-92.908-80.502-211.763-124.744-334.694-124.57-282.777 0-512 229.223-512 512 0 109.363 34.304 210.739 92.672 293.887l163.328-293.887h-153.6c-0.007-80.302 23.591-158.833 67.858-225.833 44.267-66.995 107.25-119.506 181.118-150.993 73.871-31.488 155.365-40.571 234.351-26.117 78.991 14.454 151.987 51.809 209.919 107.418l51.047-91.904z" />
<glyph unicode="&#xe95b;" glyph-name="repeat-2" d="M315.696 55.395v-94.815c0.007-4.668-1.316-9.241-3.814-13.181s-6.070-7.086-10.294-9.069c-4.225-1.983-8.927-2.724-13.555-2.13-4.628 0.599-8.991 2.498-12.578 5.487l-202.193 168.478c-3.879 3.234-6.664 7.587-7.978 12.46s-1.092 10.036 0.637 14.781c1.728 4.746 4.878 8.844 9.020 11.729 4.142 2.89 9.074 4.432 14.123 4.412h717.39c26.029 0 50.995 10.34 69.403 28.748 18.408 18.403 28.748 43.373 28.748 69.403v392.606h98.151v-392.606c0-52.064-20.681-101.994-57.497-138.806-36.811-36.817-86.741-57.497-138.806-57.497h-490.759zM708.304 840.607v94.815c-0.010 4.666 1.315 9.239 3.813 13.18 2.503 3.942 6.071 7.088 10.296 9.072s8.927 2.72 13.555 2.126c4.627-0.595 8.991-2.496 12.578-5.483l202.193-168.478c3.877-3.232 6.66-7.579 7.974-12.45s1.094-10.029-0.623-14.771c-1.723-4.742-4.869-8.838-9-11.731s-9.059-4.44-14.104-4.432h-717.44c-26.032 0-50.997-10.342-69.404-28.748s-28.748-43.372-28.748-69.404v-392.606h-98.151v392.606c0 52.062 20.682 101.993 57.496 138.807s86.745 57.496 138.808 57.496h490.759z" />
<glyph unicode="&#xe95c;" glyph-name="repeat" d="M232.727 820.364h698.182c12.344 0 24.185-4.904 32.913-13.633s13.633-20.568 13.633-32.913v-325.819h-93.091v279.273h-651.636v-139.636l-232.727 186.182 232.727 186.182v-139.636zM791.273 75.636h-698.182c-12.345 0-24.183 4.906-32.913 13.633s-13.633 20.568-13.633 32.913v325.819h93.091v-279.273h651.636v139.636l232.727-186.182-232.727-186.182v139.636z" />
<glyph unicode="&#xe95d;" glyph-name="riding" d="M209.454-17.456c-27.506 0-54.743 5.417-80.155 15.941-25.412 10.528-48.502 25.958-67.952 45.405-19.45 19.451-34.878 42.542-45.404 67.952-10.526 25.414-15.944 52.653-15.944 80.156s5.417 54.742 15.944 80.156c10.526 25.409 25.955 48.501 45.404 67.952 19.45 19.447 42.54 34.876 67.952 45.405 25.413 10.524 52.65 15.941 80.155 15.941 55.55 0 108.827-22.067 148.106-61.347s61.348-92.556 61.348-148.108c0-55.552-22.068-108.828-61.348-148.108s-92.556-61.347-148.106-61.347zM209.454 75.635c30.862 0 60.459 12.26 82.282 34.081 21.823 21.825 34.082 51.423 34.082 82.283s-12.26 60.458-34.082 82.283c-21.823 21.82-51.42 34.081-82.282 34.081s-60.459-12.26-82.282-34.081c-21.823-21.825-34.082-51.423-34.082-82.283s12.26-60.458 34.082-82.283c21.823-21.82 51.42-34.081 82.282-34.081zM814.546-17.456c-27.504 0-54.742 5.417-80.156 15.941-25.409 10.528-48.501 25.958-67.952 45.405-19.447 19.451-34.876 42.542-45.405 67.952-10.524 25.414-15.941 52.653-15.941 80.156s5.417 54.742 15.941 80.156c10.528 25.409 25.958 48.501 45.405 67.952 19.451 19.447 42.542 34.876 67.952 45.405 25.414 10.524 52.653 15.941 80.156 15.941 55.552 0 108.828-22.067 148.108-61.347s61.347-92.556 61.347-148.108c0-55.552-22.067-108.828-61.347-148.108s-92.556-61.347-148.108-61.347zM814.546 75.635c30.86 0 60.458 12.26 82.283 34.081 21.82 21.825 34.081 51.423 34.081 82.283s-12.26 60.458-34.081 82.283c-21.825 21.82-51.423 34.081-82.283 34.081s-60.458-12.26-82.283-34.081c-21.82-21.825-34.081-51.423-34.081-82.283s12.26-60.458 34.081-82.283c21.825-21.82 51.423-34.081 82.283-34.081zM466.525 480.349l92.021-78.895v-279.273h-93.091v232.727l-126.558 105.473c-11.263 7.74-20.683 17.864-27.591 29.654-6.91 11.788-11.138 24.955-12.386 38.563s0.514 27.324 5.163 40.174c4.648 12.85 12.069 24.519 21.735 34.178l131.63 131.63c8.643 8.648 18.907 15.508 30.203 20.189 11.301 4.681 23.408 7.090 35.636 7.090s24.334-2.409 35.636-7.090c11.296-4.681 21.56-11.541 30.203-20.189l65.816-65.816c49.292-49.47 113.235-81.709 182.318-91.928l-0.466-93.789c-93.733 10.789-181.043 53.042-247.668 119.855l-122.601-122.554zM698.183 727.273c-24.687 0-48.366 9.807-65.824 27.266s-27.266 41.136-27.266 65.826c0 24.689 9.807 48.368 27.266 65.826s41.137 27.266 65.824 27.266c24.687 0 48.366-9.807 65.824-27.266s27.266-41.136 27.266-65.826c0-24.689-9.807-48.368-27.266-65.826s-41.137-27.266-65.824-27.266z" />
<glyph unicode="&#xe95e;" glyph-name="scales-2" d="M561.57 918.907v-63.349l247.846-82.681 180.035 59.979 31.377-93.983-150.294-50.114 153.466-421.934c-54.13-56.36-130.318-91.455-214.585-91.455-84.317 0-160.456 35.095-214.585 91.455l153.368 421.934-186.628 62.259v-674.786h198.277v-99.138h-495.693v99.138h198.277v674.786l-186.777-62.259 153.466-421.934c-54.080-56.36-130.268-91.455-214.535-91.455-84.317 0-160.456 35.095-214.585 91.455l153.368 421.934-150.195 50.065 31.377 94.082 180.035-59.979 247.846 82.632v63.349h99.138zM809.417 566.816l-97.056-266.98c29.097-16.408 62.309-25.33 97.056-25.33 34.699 0 67.909 8.922 97.056 25.28l-97.056 267.029zM214.586 566.816l-97.056-266.98c29.097-16.408 62.309-25.33 97.056-25.33 34.699 0 67.909 8.922 97.056 25.28l-97.056 267.029z" />
<glyph unicode="&#xe95f;" glyph-name="scales" d="M558.547 890.181v-46.546h325.818v-93.090h-325.818v-651.635h186.182v-93.090h-465.454v93.090h186.182v651.635h-325.818v93.090h325.818v46.546h93.090zM186.183 688.034l131.63-131.677c33.699-33.652 54.551-80.198 54.551-131.63 0-102.865-83.316-186.182-186.182-186.182s-186.182 83.316-186.182 186.182c0 51.433 20.853 97.978 54.551 131.63l131.63 131.677zM837.819 688.034l131.63-131.677c33.699-33.652 54.551-80.198 54.551-131.63 0-102.865-83.316-186.182-186.182-186.182s-186.182 83.316-186.182 186.182c0 51.433 20.853 97.978 54.551 131.63l131.63 131.677zM186.183 556.357l-65.816-65.816c-17.408-17.408-27.276-40.681-27.276-65.816 0-51.433 41.658-93.090 93.090-93.090s93.090 41.658 93.090 93.090c0 25.135-9.867 48.407-27.276 65.816l-65.816 65.816zM837.819 556.357l-65.816-65.816c-17.408-17.408-27.276-40.681-27.276-65.816 0-51.433 41.658-93.090 93.090-93.090s93.090 41.658 93.090 93.090c0 25.135-9.867 48.407-27.276 65.816l-65.816 65.816z" />
<glyph unicode="&#xe960;" glyph-name="search-2" d="M453.677 960c250.43 0 453.677-203.247 453.677-453.677s-203.247-453.677-453.677-453.677c-250.43 0-453.677 203.247-453.677 453.677s203.247 453.677 453.677 453.677zM453.677 153.463c194.93 0 352.86 157.93 352.86 352.86 0 194.981-157.93 352.86-352.86 352.86-194.981 0-352.86-157.88-352.86-352.86 0-194.93 157.88-352.86 352.86-352.86zM881.394 149.884l142.606-142.555-71.328-71.328-142.555 142.606 71.278 71.278z" />
<glyph unicode="&#xe961;" glyph-name="search" d="M808.101 223.179l215.899-215.85-71.328-71.328-215.85 215.899c-80.316-64.382-180.21-99.4-283.145-99.255-250.43 0-453.677 203.247-453.677 453.677s203.247 453.677 453.677 453.677c250.43 0 453.677-203.247 453.677-453.677 0.146-102.934-34.873-202.829-99.255-283.145zM706.981 260.582c63.973 65.788 99.703 153.978 99.557 245.742 0 194.981-157.93 352.86-352.86 352.86-194.981 0-352.86-157.88-352.86-352.86 0-194.93 157.88-352.86 352.86-352.86 91.763-0.146 179.954 35.583 245.742 99.557l7.561 7.561z" />
<glyph unicode="&#xe962;" glyph-name="secure-payment" d="M435.201 960.001l373.656-116.736c10.42-3.253 19.528-9.752 25.994-18.55s9.953-19.429 9.948-30.347v-90.368h102.399c13.578 0 26.604-5.394 36.204-14.996s14.996-22.625 14.996-36.204v-409.599c0-13.578-5.396-26.604-14.996-36.204s-22.625-14.996-36.204-14.996l-164.864-0.052c-19.814-26.112-43.878-49.152-71.679-68.096l-275.456-187.852-275.456 187.801c-41.342 28.186-75.174 66.048-98.552 110.289s-35.597 93.522-35.591 143.559v416.716c0.006 10.909 3.497 21.53 9.961 30.316s15.568 15.278 25.981 18.529l373.656 116.787zM435.201 852.788l-307.199-96.051v-379.084c-0.007-31.345 7.181-62.274 21.011-90.404 13.83-28.134 33.932-52.71 58.759-71.849l9.677-6.964 217.753-148.531 193.638 132.096h-244.838c-13.579 0-26.602 5.396-36.204 14.996s-14.996 22.625-14.996 36.204v409.599c0 13.579 5.394 26.602 14.996 36.204s22.625 14.996 36.204 14.996h358.4v52.736l-307.199 96.051zM435.201 448.001v-153.6h460.799v153.6h-460.799zM435.201 550.401h460.799v51.2h-460.799v-51.2z" />
<glyph unicode="&#xe963;" glyph-name="settings-fill" d="M407.268 949.114c69.051 14.48 140.347 14.514 209.411 0.102 4.602-30.37 15.991-59.311 33.313-84.675 17.328-25.364 40.147-46.496 66.761-61.827 26.598-15.384 56.318-24.574 86.955-26.887 30.641-2.313 61.406 2.311 90.006 13.527 47.007-52.625 82.614-114.409 104.579-181.464-23.988-19.174-43.347-43.509-56.641-71.195-13.294-27.683-20.178-58.007-20.142-88.721 0-64.703 29.997-122.393 76.885-159.914-22.093-66.996-57.746-128.734-104.732-181.362-28.595 11.21-59.349 15.828-89.974 13.514-30.632-2.308-60.341-11.497-86.934-26.874-26.592-15.325-49.392-36.441-66.709-61.79-17.317-25.343-28.701-54.261-33.313-84.61-69.039-14.512-140.339-14.584-209.411-0.205-4.579 30.395-15.955 59.369-33.282 84.764-17.327 25.39-40.158 46.546-66.792 61.892-26.599 15.377-56.323 24.56-86.961 26.863s-61.4-2.329-90-13.555c-47.012 52.642-82.619 114.443-104.579 181.516 23.977 19.165 43.33 43.48 56.622 71.147s20.183 57.971 20.162 88.664c0.025 30.718-6.875 61.053-20.186 88.736-13.311 27.686-32.692 52.016-56.7 71.179 22.097 67.001 57.747 128.734 104.732 181.362 28.597-11.208 59.352-15.828 89.979-13.514s60.341 11.498 86.929 26.874c26.595 15.325 49.396 36.446 66.713 61.79s28.701 54.315 33.311 84.662zM511.998 294.407c40.731 0 79.793 16.181 108.592 44.979s44.975 67.861 44.975 108.587c0 40.731-16.176 79.789-44.975 108.59-28.799 28.8-67.861 44.978-108.592 44.978-40.726 0-79.789-16.18-108.586-44.978-28.8-28.801-44.978-67.858-44.978-108.59 0-40.726 16.18-79.789 44.978-108.587s67.86-44.979 108.586-44.979z" />
<glyph unicode="&#xe964;" glyph-name="settings" d="M68.685 192.044c-21.639 37.42-38.462 77.426-50.065 119.071 25.253 12.844 46.461 32.424 61.277 56.571s22.664 51.923 22.675 80.257c0.011 28.329-7.817 56.11-22.615 80.273-14.798 24.159-35.991 43.754-61.235 56.617 23.14 83.673 67.2 160.077 128.028 222.015 23.757-15.445 51.325-24.016 79.651-24.765s56.308 6.355 80.849 20.525c24.54 14.169 44.68 34.853 58.193 59.76s19.871 53.068 18.371 81.365c84.063 21.725 172.27 21.689 256.315-0.102-1.49-28.296 4.883-56.452 18.404-81.353 13.525-24.9 33.673-45.574 58.22-59.733s52.527-21.251 80.851-20.491c28.329 0.759 55.89 9.34 79.643 24.795 29.64-30.202 55.952-64.552 78.067-102.894 22.166-38.342 38.752-78.322 50.065-119.071-25.252-12.844-46.461-32.423-61.28-56.571-14.815-24.147-22.663-51.923-22.672-80.257-0.011-28.329 7.817-56.115 22.616-80.273 14.795-24.163 35.988-43.753 61.235-56.617-23.144-83.672-67.204-160.079-128.028-222.015-23.758 15.445-51.329 24.019-79.653 24.766-28.329 0.747-56.31-6.358-80.851-20.527-24.536-14.169-44.679-34.85-58.193-59.76-13.51-24.904-19.867-53.064-18.368-81.362-84.061-21.726-172.273-21.69-256.315 0.102 1.487 28.298-4.883 56.454-18.407 81.353s-33.672 45.575-58.217 59.735c-24.544 14.154-52.528 21.249-80.852 20.486-28.326-0.757-55.888-9.337-79.639-24.791-30.254 30.868-56.484 65.442-78.067 102.894zM358.426 182.010c54.551-31.462 95.565-81.956 115.182-141.799 25.545-2.406 51.191-2.457 76.735-0.052 19.626 59.848 60.661 110.347 115.231 141.799 54.529 31.548 118.789 41.849 180.448 28.923 14.845 20.886 27.643 43.154 38.291 66.445-42.007 46.921-65.212 107.695-65.166 170.671 0 64.501 24.059 124.751 65.166 170.67-10.725 23.284-23.578 45.527-38.393 66.445-61.623-12.916-125.837-2.635-180.346 28.872-54.554 31.463-95.568 81.957-115.18 141.799-25.545 2.406-51.191 2.457-76.735 0.052-19.626-59.849-60.661-110.346-115.232-141.799-54.529-31.55-118.79-41.85-180.448-28.923-14.816-20.9-27.636-43.147-38.291-66.445 42.006-46.92 65.211-107.695 65.166-170.67 0-64.501-24.059-124.753-65.166-170.671 10.723-23.287 23.576-45.53 38.393-66.445 61.62 12.916 125.839 2.636 180.346-28.872zM512 294.425c-40.733 0-79.797 16.182-108.594 44.981-28.801 28.8-44.98 67.859-44.98 108.592 0 40.728 16.18 79.792 44.98 108.592 28.798 28.801 67.861 44.98 108.594 44.98 40.728 0 79.792-16.18 108.592-44.98s44.981-67.865 44.981-108.592c0-40.733-16.182-79.792-44.981-108.592s-67.864-44.981-108.592-44.981zM512 396.806c13.576 0 26.593 5.395 36.198 14.994 9.598 9.598 14.994 22.621 14.994 36.198s-5.395 26.599-14.994 36.198c-9.603 9.598-22.621 14.994-36.198 14.994-13.58 0-26.599-5.395-36.198-14.994-9.603-9.598-14.994-22.621-14.994-36.198s5.391-26.599 14.994-36.198c9.598-9.598 22.616-14.994 36.198-14.994z" />
<glyph unicode="&#xe965;" glyph-name="shield-star" d="M186.183 792.252v-427.52c0-30.65 7.567-60.821 22.028-87.846 14.461-27.020 35.369-50.055 60.869-67.058l242.921-161.978 242.921 161.978c25.493 16.999 46.396 40.024 60.859 67.040 14.462 27.010 22.030 57.177 22.040 87.817v427.567l-325.819 72.332-325.819-72.332zM129.537 875.009l382.464 84.992 382.464-84.992c10.337-2.297 19.582-8.051 26.205-16.309 6.628-8.259 10.24-18.53 10.24-29.119v-464.85c-0.004-45.973-11.357-91.238-33.052-131.77s-53.062-75.083-91.318-100.585l-294.54-196.376-294.54 196.376c-38.247 25.498-69.611 60.039-91.306 100.561-21.695 40.527-33.052 85.778-33.063 131.747v464.897c0.002 10.588 3.614 20.859 10.239 29.119s15.869 14.012 26.206 16.309zM512.001 378.183l-136.797-71.913 26.112 152.296-110.639 107.892 152.949 22.249 68.375 138.566 68.422-138.566 152.902-22.249-110.639-107.892 26.065-152.296-136.751 71.913z" />
<glyph unicode="&#xe966;" glyph-name="snowy" d="M558.671 249.303l91.467 52.813 46.572-80.663-91.467-52.813 91.467-52.813-46.572-80.663-91.467 52.813v-105.625h-93.144v105.625l-91.466-52.813-46.572 80.663 91.466 52.813-91.466 52.813 46.572 80.663 91.466-52.813v105.625h93.144v-105.625zM744.959 168.64v93.144h23.286c26.877 0.004 53.33 6.651 77.016 19.351 23.682 12.7 43.857 31.064 58.728 53.446 14.875 22.383 23.98 48.095 26.513 74.851 2.529 26.756-1.593 53.721-12.001 78.497-10.409 24.771-26.784 46.591-47.666 63.509-20.878 16.918-45.622 28.409-72.014 33.453-26.396 5.044-53.632 3.483-79.279-4.543s-48.91-22.269-67.725-41.461v2.328c-0.019 51.223-14.116 101.458-40.756 145.212-26.634 43.753-64.791 79.342-110.287 102.879s-96.588 34.113-147.691 30.574c-51.102-3.539-100.248-21.056-142.068-50.637s-74.703-70.090-95.056-117.098c-20.354-47.008-27.394-98.705-20.352-149.443 7.043-50.74 27.895-98.565 60.282-138.253s75.058-69.708 123.353-86.782v-97.289c-61.768 15.983-118.396 47.559-164.46 91.705-46.064 44.15-80.018 99.385-98.611 160.417s-21.2 125.82-7.573 188.149c13.627 62.33 43.033 120.116 85.399 167.822s96.274 83.732 156.557 104.629c60.284 20.896 124.924 25.961 187.728 14.709 62.802-11.252 121.66-38.443 170.943-78.968 49.278-40.525 87.322-93.026 110.492-152.474 35.027 6.702 71.064 6.017 105.806-2.013s67.432-23.223 95.962-44.611c28.535-21.389 52.287-48.498 69.741-79.594 17.45-31.097 28.218-65.495 31.613-100.992 3.39-35.498-0.666-71.315-11.909-105.155-11.247-33.84-29.439-64.958-53.4-91.364-23.966-26.406-53.18-47.513-85.776-61.978s-67.851-21.964-103.511-22.019h-23.286z" />
<glyph unicode="&#xe967;" glyph-name="steering-fill" d="M1016.232 342.555c-21.311-104.067-74.278-198.996-151.647-271.776-77.374-72.786-175.36-119.862-280.528-134.778v104.185c77.678 13.855 149.743 49.716 207.64 103.325 57.896 53.605 99.185 122.707 118.962 199.094l105.574-0.052zM113.395 342.555c19.562-75.502 60.148-143.905 117.042-197.257 56.894-53.348 127.76-89.461 204.365-104.133v-104.442c-104.139 15.867-200.908 63.288-277.257 135.863-76.348 72.58-128.606 166.819-149.724 270.022l105.574-0.052zM820.724 496.955v-102.899h-51.45c-52.803 0-103.584-20.292-141.835-56.682-38.258-36.39-61.065-86.090-63.705-138.826l-0.257-10.289v-51.45h-102.899v51.45c0 52.798-20.297 103.579-56.684 141.835-36.39 38.258-86.092 61.065-138.826 63.705l-10.289 0.257h-51.45v102.899h617.395zM512.027 960.001c266.766 0 486.146-203.071 511.922-463.046h-103.516c-12.559 99.457-60.972 190.915-136.167 257.212s-171.996 102.878-272.239 102.878c-100.249 0-197.050-36.581-272.243-102.878s-123.61-157.755-136.166-257.212h-103.568c25.828 259.975 245.208 463.046 511.975 463.046z" />
<glyph unicode="&#xe968;" glyph-name="team" d="M512 499.201c67.896 0 133.013-26.972 181.017-74.982 48.011-48.005 74.982-113.122 74.982-181.017v-307.2h-102.4v307.2c0 39.179-14.965 76.877-41.845 105.385-26.875 28.504-63.631 45.66-102.743 47.959l-9.011 0.256c-39.179 0-76.877-14.965-105.383-41.845-28.506-26.875-45.662-63.631-47.962-102.743l-0.256-9.011v-307.2h-102.4v307.2c0 67.896 26.971 133.013 74.981 181.017 48.010 48.011 113.123 74.982 181.019 74.982zM179.201 345.601c14.285 0 28.16-1.69 41.472-4.813-8.754-26.060-13.938-53.186-15.412-80.64l-0.461-16.948v-4.403c-5.886 2.105-12.007 3.481-18.227 4.096l-7.373 0.307c-19.092 0-37.499-7.111-51.631-19.948s-22.978-30.474-24.81-49.48l-0.359-7.373v-230.4h-102.4v230.4c0 47.528 18.88 93.107 52.487 126.715s79.187 52.486 126.713 52.486zM844.799 345.601c47.528 0 93.107-18.877 126.715-52.486s52.486-79.186 52.486-126.715v-230.4h-102.4v230.4c0 19.092-7.111 37.499-19.948 51.63s-30.474 22.979-49.48 24.811l-7.373 0.359c-8.96 0-17.562-1.536-25.6-4.352v4.352c0 34.099-5.53 66.868-15.821 97.484 13.261 3.226 27.136 4.915 41.42 4.915zM179.201 652.801c33.948 0 66.505-13.486 90.51-37.49s37.49-56.562 37.49-90.51c0-33.946-13.486-66.504-37.49-90.511-24.005-24.002-56.562-37.489-90.51-37.489s-66.505 13.486-90.51 37.489c-24.005 24.007-37.49 56.566-37.49 90.511 0 33.948 13.486 66.505 37.49 90.51s56.562 37.49 90.51 37.49zM844.799 652.801c33.946 0 66.504-13.486 90.511-37.49 24.002-24.005 37.489-56.562 37.489-90.51 0-33.946-13.486-66.504-37.489-90.511-24.007-24.002-56.566-37.489-90.511-37.489s-66.504 13.486-90.511 37.489c-24.002 24.007-37.489 56.566-37.489 90.511 0 33.948 13.486 66.505 37.489 90.51 24.007 24.005 56.566 37.49 90.511 37.49zM179.201 550.401c-6.79 0-13.301-2.699-18.102-7.495-4.801-4.802-7.499-11.315-7.499-18.104s2.698-13.302 7.499-18.104c4.8-4.798 11.312-7.495 18.102-7.495s13.301 2.699 18.102 7.495c4.801 4.802 7.499 11.315 7.499 18.104s-2.698 13.302-7.499 18.104c-4.8 4.798-11.312 7.495-18.102 7.495zM844.799 550.401c-6.79 0-13.302-2.699-18.104-7.495-4.798-4.802-7.495-11.315-7.495-18.104s2.699-13.302 7.495-18.104c4.802-4.798 11.315-7.495 18.104-7.495s13.302 2.699 18.104 7.495c4.798 4.802 7.495 11.315 7.495 18.104s-2.699 13.302-7.495 18.104c-4.802 4.798-11.315 7.495-18.104 7.495zM512 960.001c54.318 0 106.409-21.577 144.813-59.984 38.411-38.407 59.986-90.499 59.986-144.816s-21.576-106.408-59.986-144.816c-38.405-38.407-90.496-59.984-144.813-59.984s-106.408 21.577-144.816 59.984c-38.407 38.407-59.984 90.499-59.984 144.816s21.577 106.408 59.984 144.816c38.407 38.407 90.498 59.984 144.816 59.984zM512 857.6c-27.156 0-53.202-10.788-72.407-29.993s-29.993-45.25-29.993-72.408c0-27.158 10.788-53.204 29.993-72.408s45.251-29.993 72.407-29.993c27.156 0 53.202 10.788 72.407 29.993s29.993 45.25 29.993 72.408c0 27.158-10.788 53.204-29.993 72.408s-45.251 29.993-72.407 29.993z" />
<glyph unicode="&#xe969;" glyph-name="thumb-down-fill" d="M977.454 351.185h-139.636v558.545h139.636c12.344 0 24.185-4.904 32.913-13.633s13.633-20.568 13.633-32.913v-465.454c0-12.344-4.906-24.185-13.633-32.913s-20.568-13.633-32.913-13.633zM731.089 291.002l-297.891-297.891c-3.961-3.97-9.22-6.376-14.811-6.782-5.593-0.4-11.143 1.228-15.629 4.594l-39.704 29.789c-11.027 8.276-19.356 19.637-23.936 32.642s-5.208 27.071-1.803 40.434l53.667 210.851h-297.891c-24.689 0-48.368 9.807-65.825 27.266s-27.266 41.137-27.266 65.824v97.932c-0.012 12.167 2.36 24.213 6.982 35.468l144.105 349.742c3.504 8.53 9.463 15.826 17.12 20.964s16.668 7.885 25.888 7.895h504.087c12.344 0 24.185-4.904 32.913-13.633s13.633-20.568 13.633-32.913v-539.275c-0.004-12.344-4.906-24.18-13.637-32.907z" />
<glyph unicode="&#xe96a;" glyph-name="thumb-down" d="M390.982 316.759h-297.891c-24.689 0-48.368 9.807-65.825 27.266s-27.266 41.137-27.266 65.824v97.932c-0.012 12.167 2.36 24.213 6.982 35.468l144.105 349.742c3.504 8.53 9.463 15.826 17.12 20.964s16.668 7.885 25.888 7.895h783.36c12.344 0 24.185-4.904 32.913-13.633s13.633-20.568 13.633-32.913v-465.455c0-12.344-4.906-24.185-13.633-32.913s-20.568-13.633-32.913-13.633h-162.071c-7.452 0-14.797-1.787-21.411-5.213-6.619-3.425-12.316-8.388-16.617-14.475l-253.812-359.61c-3.207-4.548-7.941-7.791-13.335-9.151-5.399-1.359-11.101-0.735-16.081 1.75l-84.433 42.263c-23.761 11.879-42.744 31.525-53.794 55.682s-13.501 51.368-6.948 77.112l42.031 165.097zM744.727 437.219v391.54h-519.447l-132.189-320.977v-97.932h297.891c14.177 0 28.169-3.244 40.904-9.472 12.735-6.232 23.878-15.29 32.577-26.484 8.704-11.194 14.732-24.227 17.631-38.107 2.895-13.875 2.588-28.235-0.908-41.975l-42.031-165.143c-1.317-5.152-0.828-10.598 1.382-15.434s6.009-8.769 10.766-11.143l30.767-15.36 219.229 310.551c11.637 16.477 26.531 29.975 43.427 39.936zM837.818 456.395h93.091v372.363h-93.091v-372.363z" />
<glyph unicode="&#xe96b;" glyph-name="thumb-up-fill" d="M46.546 544.815h139.636v-558.545h-139.636c-12.345 0-24.183 4.906-32.913 13.633s-13.633 20.568-13.633 32.913v465.455c0 12.345 4.904 24.183 13.633 32.913s20.568 13.633 32.913 13.633zM292.912 604.999l297.891 297.891c3.961 3.971 9.22 6.379 14.811 6.78 5.595 0.401 11.143-1.228 15.629-4.593l39.704-29.789c11.027-8.278 19.354-19.635 23.938-32.64 4.58-13.005 5.208-27.074 1.801-40.436l-53.667-210.851h297.891c24.687 0 48.365-9.807 65.824-27.266s27.266-41.136 27.266-65.825v-97.932c0.014-12.167-2.36-24.213-6.982-35.468l-144.058-349.789c-3.514-8.528-9.481-15.82-17.147-20.95s-16.682-7.867-25.907-7.861h-504.087c-12.345 0-24.183 4.906-32.913 13.633s-13.633 20.568-13.633 32.913v539.275c0.003 12.344 4.908 24.181 13.637 32.907z" />
<glyph unicode="&#xe96c;" glyph-name="thumb-up" d="M633.018 579.216h297.891c24.687 0 48.365-9.807 65.824-27.265s27.266-41.136 27.266-65.824v-97.932c0.014-12.167-2.36-24.217-6.982-35.468l-144.058-349.789c-3.514-8.528-9.481-15.82-17.147-20.95s-16.682-7.867-25.907-7.861h-783.36c-12.345 0-24.183 4.901-32.913 13.633-8.728 8.727-13.633 20.568-13.633 32.913v465.455c0 12.344 4.904 24.182 13.633 32.912s20.568 13.633 32.913 13.633h162.071c7.452-0.002 14.795 1.786 21.412 5.211s12.315 8.391 16.616 14.477l253.812 359.658c3.207 4.547 7.941 7.793 13.335 9.152 5.399 1.358 11.101 0.736 16.081-1.751l84.433-42.217c23.761-11.877 42.743-31.526 53.793-55.683s13.503-51.368 6.949-77.111l-42.031-165.19zM279.273 458.757v-391.541h519.448l132.189 320.977v97.932h-297.891c-14.177 0.001-28.169 3.241-40.904 9.473s-23.878 15.289-32.577 26.483c-8.704 11.193-14.732 24.227-17.631 38.104-2.895 13.879-2.588 28.235 0.908 41.976l42.031 165.143c1.317 5.151 0.828 10.598-1.382 15.433s-6.009 8.769-10.766 11.144l-30.767 15.36-219.229-310.551c-11.637-16.476-26.531-29.974-43.427-39.935zM186.181 439.581h-93.091v-372.363h93.091v372.363z" />
<glyph unicode="&#xe96d;" glyph-name="time-fill" d="M512-64c-282.777 0-512 229.223-512 512s229.223 512 512 512c282.777 0 512-229.223 512-512s-229.223-512-512-512zM563.2 448v255.999h-102.4v-358.4h307.2v102.4h-204.8z" />
<glyph unicode="&#xe96e;" glyph-name="time" d="M512-64c-282.777 0-512 229.223-512 512s229.223 512 512 512c282.777 0 512-229.223 512-512s-229.223-512-512-512zM512 38.401c108.631 0 212.817 43.157 289.633 119.966 76.811 76.816 119.966 181.002 119.966 289.633s-43.157 212.816-119.966 289.631c-76.816 76.816-181.002 119.969-289.633 119.969s-212.816-43.154-289.631-119.969-119.969-180.998-119.969-289.631c0-108.631 43.154-212.817 119.969-289.633 76.814-76.811 180.998-119.966 289.631-119.966zM563.2 448h204.8v-102.4h-307.2v358.4h102.4v-255.999z" />
<glyph unicode="&#xe96f;" glyph-name="tools" d="M137.775 947.943c39.504 14.097 82.354 15.876 122.892 5.105s76.853-33.588 104.149-65.432c27.296-31.846 44.29-71.225 48.734-112.931s-3.868-83.782-23.84-120.665l634.218-634.278-83.742-83.742-634.278 634.278c-36.891-19.893-78.945-28.141-120.618-23.658s-81.010 21.485-112.827 48.769-54.621 63.568-65.407 104.070c-10.785 40.502-9.047 83.321 4.987 122.815l132.482-132.482c8.195-8.484 17.997-15.252 28.835-19.907s22.496-7.107 34.29-7.208c11.794-0.103 23.493 2.145 34.411 6.611s20.836 11.063 29.177 19.403c8.341 8.341 14.937 18.26 19.403 29.177s6.714 22.615 6.611 34.411c-0.103 11.796-2.553 23.452-7.208 34.29s-11.424 20.64-19.907 28.835l-132.364 132.541zM751.739 836.366l188.447 104.707 83.742-83.742-104.707-188.447-104.707-20.965-125.553-125.611-83.8 83.741 125.612 125.612 20.965 104.707zM353.879 354.766l83.739-83.742-314.058-314.060c-10.678-10.707-25.047-16.926-40.163-17.382-15.116-0.45-29.832 4.898-41.132 14.948s-18.326 24.038-19.641 39.105c-1.314 15.066 3.186 30.062 12.574 41.917l4.619 5.152 314.060 314.060z" />
<glyph unicode="&#xe970;" glyph-name="upload" d="M26.948 43.79h970.105v-107.789h-970.105v107.789zM565.895 753.692v-602.112h-107.789v602.112l-327.194-327.249-76.208 76.208 457.297 457.35 457.297-457.297-76.208-76.208-327.194 327.194z" />
<glyph unicode="&#xe971;" glyph-name="user-3" d="M902.095-64h-97.523v97.523c0 38.795-15.414 76.006-42.847 103.439s-64.643 42.847-103.439 42.847h-292.571c-38.798 0-76.006-15.414-103.44-42.847s-42.846-64.643-42.846-103.439v-97.523h-97.523v97.523c0 64.663 25.687 126.679 71.41 172.398 45.723 45.725 107.737 71.411 172.399 71.411h292.571c64.663 0 126.679-25.688 172.398-71.411 45.725-45.719 71.411-107.735 71.411-172.398v-97.523zM512.001 374.857c-38.419 0-76.464 7.568-111.962 22.27-35.496 14.706-67.75 36.255-94.916 63.425-27.168 27.166-48.719 59.416-63.422 94.915-14.703 35.496-22.271 73.542-22.271 111.962s7.567 76.466 22.271 111.962c14.703 35.496 36.254 67.75 63.422 94.916s59.421 48.719 94.916 63.422c35.498 14.703 73.543 22.271 111.962 22.271 77.594 0 152.010-30.824 206.877-85.692 54.872-54.867 85.694-129.284 85.694-206.879s-30.823-152.010-85.694-206.877c-54.867-54.872-129.282-85.694-206.877-85.694zM512.001 472.381c51.731 0 101.342 20.549 137.918 57.128 36.582 36.578 57.129 86.19 57.129 137.92s-20.549 101.34-57.129 137.92c-36.576 36.578-86.186 57.128-137.918 57.128s-101.34-20.55-137.92-57.128c-36.578-36.578-57.128-86.19-57.128-137.92s20.55-101.34 57.128-137.92c36.578-36.579 86.188-57.128 137.92-57.128z" />
<glyph unicode="&#xe972;" glyph-name="user" horiz-adv-x="1008" d="M113.905-64.001c0 103.458 41.099 202.683 114.256 275.841 73.157 73.153 172.379 114.254 275.839 114.254s202.683-41.102 275.841-114.254c73.153-73.158 114.254-172.383 114.254-275.841h-97.523c0 77.594-30.823 152.010-85.694 206.878-54.867 54.872-129.282 85.694-206.878 85.694s-152.011-30.823-206.879-85.694c-54.867-54.867-85.693-129.282-85.693-206.878h-97.523zM504 374.857c-161.646 0-292.571 130.926-292.571 292.571s130.926 292.571 292.571 292.571c161.646 0 292.571-130.926 292.571-292.571s-130.926-292.571-292.571-292.571zM504 472.382c107.763 0 195.048 87.283 195.048 195.048s-87.283 195.048-195.048 195.048c-107.763 0-195.048-87.283-195.048-195.048s87.283-195.048 195.048-195.048z" />
<glyph unicode="&#xe973;" glyph-name="video-add" horiz-adv-x="1008" d="M687.273 814.548c25.292 0 45.819-20.527 45.819-45.819v-192.438l238.852 167.237c10.355 7.239 24.651 4.72 31.936-5.682 2.658-3.849 4.124-8.431 4.124-13.104v-553.486c0-12.646-10.263-22.909-22.909-22.909-4.72 0-9.301 1.466-13.15 4.124l-238.852 167.237v-192.438c0-25.292-20.527-45.819-45.819-45.819h-641.458c-25.292 0-45.819 20.527-45.819 45.819v641.458c0 25.292 20.527 45.819 45.819 45.819h641.458zM641.454 722.912h-549.821v-549.821h549.821v549.821zM320.725 631.275h91.637v-137.456h137.456v-91.637h-137.502l0.046-137.456h-91.637l-0.046 137.456h-137.409v91.637h137.456v137.456zM916.364 592.742l-183.274-128.292v-32.898l183.274-128.292v289.481z" />
<glyph unicode="&#xe974;" glyph-name="vip-diamond" d="M204.181 853.179h615.632c6.816 0.001 13.536-1.611 19.609-4.703s11.328-7.579 15.333-13.091l165.117-227.008c2.937-4.039 4.384-8.971 4.091-13.955-0.29-4.984-2.302-9.714-5.688-13.384l-490.425-531.284c-3.883-4.198-9.277-6.686-14.996-6.915-5.714-0.225-11.29 1.827-15.497 5.705-0.303 0.259-164.122 177.728-491.633 532.492-3.386 3.669-5.395 8.399-5.687 13.384s1.154 9.916 4.089 13.955l165.117 227.008c4.008 5.513 9.262 9.998 15.335 13.091s12.791 4.704 19.607 4.703zM226.208 766.799l-120.933-166.283 406.722-440.541 406.723 440.541-120.933 166.283h-571.578z" />
</font>
</defs>
</svg>
